M48
INCH
T01C0.0200
T02C0.0800
T03C0.0600
T04C0.0300
T05C0.0650
T06C0.0450
T07C0.0400
T08C0.1181
T09C0.0500
%
T01
X-018204Y+015551
X-025842Y+015551
T02
X-000118Y+020629
X-000118Y+016889
X+012401Y+020629
X+012401Y+016889
X-010170Y+002440
X-010110Y+011470
X+018503Y+026574
T03
X+013060Y+010438
X+013110Y+000000
X-049015Y+002165
X+018378Y+010433
X+018317Y+000000
X-049015Y+010039
X-041141Y-000629
X-041181Y+012992
X-056496Y+012992
X-056496Y-000590
T04
X-037560Y+030490
X-036560Y+030490
X-035560Y+030490
X-034560Y+030490
X-033560Y+030490
X-032560Y+030490
X-031560Y+030490
X-030560Y+030490
X-029560Y+030490
X-028560Y+030490
X-027560Y+030490
X-026560Y+030490
X-025560Y+030490
X-024560Y+030490
X-024560Y+036490
X-025560Y+036490
X-026560Y+036490
X-027560Y+036490
X-028560Y+036490
X-029560Y+036490
X-030560Y+036490
X-031560Y+036490
X-032560Y+036490
X-033560Y+036490
X-034560Y+036490
X-035560Y+036490
X-036560Y+036490
X-037560Y+036490
X-014590Y+030810
X-013590Y+030810
X-012590Y+030810
X-011590Y+030810
X-011590Y+033810
X-012590Y+033810
X-013590Y+033810
X-014590Y+033810
X-021260Y+034680
X-020010Y+034680
X-008390Y+035840
X-008390Y+034590
X-008440Y+031870
X-008440Y+030620
T05
X-022504Y+019291
X-020354Y+019291
X-018204Y+019291
X-030142Y+019291
X-027992Y+019291
X-025842Y+019291
X-012779Y+019291
X-010629Y+019291
X-008479Y+019291
T06
X-028080Y+028230
X-030080Y+028230
X-034616Y+024409
X-039616Y+024409
X-045364Y+023346
X-045364Y+018346
X-045364Y+030157
X-045364Y+025157
X-008604Y+026983
X-013604Y+026983
X-016844Y+034107
X-016844Y+029107
T07
X-041655Y+026456
X-040655Y+026456
X-039655Y+026456
X-041640Y+022047
X-040640Y+022047
X-039640Y+022047
X-049760Y+029430
X-048760Y+029430
X-047760Y+029430
X-019220Y+037380
X-020220Y+037380
X-021220Y+037380
T08
X-024212Y+007751
X-024212Y+004011
X-035629Y+007874
X-035629Y+004133
T09
X+007086Y+030708
X+007086Y+032874
X-000787Y+031889
X-000787Y+035826
X-000787Y+027952
M30
