M48
;DRILL file {Pcbnew (2013-07-07 BZR 4022)-stable} date 11/20/2013 1:52:19 PM
;FORMAT={2:4/ absolute / inch / keep zeros}
FMAT,2
INCH,TZ
T1C0.030
T2C0.040
T3C0.060
%
G90
G05
M72
T1
X010400Y006275
X025125Y005450
T2
X001375Y010325
X001375Y009325
X001375Y008325
X003825Y005850
X004950Y007275
X007100Y006900
X008875Y009625
X010000Y008000
X010225Y002475
X011025Y008900
X011225Y002475
X012375Y002475
X013625Y003325
X016375Y011625
X016375Y010625
X016375Y009625
X017525Y007600
X019475Y005175
X020350Y007075
X022300Y006950
X024325Y009375
X025175Y007850
X026375Y010425
X026375Y009425
X026375Y008425
X028225Y006775
X028375Y008850
X030075Y006475
T3
X005225Y004475
X005225Y002475
X005600Y012925
X005600Y010925
X006225Y003475
X006600Y011925
X007225Y004475
X007225Y002475
X007600Y012925
X007600Y010925
X020450Y004475
X020450Y002475
X020825Y012925
X020825Y010925
X021450Y003475
X021825Y011925
X022450Y004475
X022450Y002475
X022825Y012925
X022825Y010925
X028325Y004475
X028325Y002475
X028700Y012925
X028700Y010925
X029325Y003475
X029700Y011925
X030325Y004475
X030325Y002475
X030700Y012925
X030700Y010925
T0
M30
