; NON-PLATED HOLES START AT T1
; THROUGH (PLATED) HOLES START AT T100
M48
INCH
T1C0.125984
T100C0.031496
T101C0.035000
T102C0.059055
%
T1
X001488Y010223
X001488Y001223
X016488Y001223
X016488Y010223
T100
X009488Y009723
X007488Y006223
X012488Y008723
X010488Y002223
X006988Y002223
T101
X014488Y004223
X006988Y003223
X013488Y008723
X011488Y008723
X007488Y005223
X014488Y003223
X014488Y002223
X011488Y005223
X009488Y000723
X011488Y004223
X006988Y001223
X009488Y004723
X007488Y007223
X011488Y003223
X014488Y005223
X011488Y002223
T102
X003488Y008223
X003488Y004723
X007488Y009723
X003488Y006723
X005988Y009723
X003488Y003223
T00
M30
