G75*
%MOIN*%
%OFA0B0*%
%FSLAX25Y25*%
%IPPOS*%
%LPD*%
%AMOC8*
5,1,8,0,0,1.08239X$1,22.5*
%
%ADD10R,0.30000X0.30000*%
%ADD11R,0.44685X0.17500*%
%ADD12R,0.04724X0.01181*%
%ADD13R,0.01181X0.04724*%
%ADD14R,0.05512X0.04724*%
%ADD15R,0.05118X0.06299*%
%ADD16R,0.06299X0.05118*%
%ADD17R,0.09843X0.01969*%
%ADD18R,0.09843X0.07874*%
%ADD19R,0.05118X0.05906*%
%ADD20R,0.03150X0.05512*%
%ADD21R,0.03150X0.07480*%
%ADD22C,0.06000*%
%ADD23R,0.05906X0.07874*%
%ADD24OC8,0.06400*%
%ADD25R,0.05512X0.05512*%
%ADD26R,0.12598X0.04331*%
%ADD27C,0.07400*%
%ADD28R,0.06299X0.07098*%
%ADD29R,0.03937X0.04331*%
%ADD30R,0.05906X0.05118*%
%ADD31C,0.01200*%
%ADD32C,0.02400*%
%ADD33C,0.01600*%
%ADD34C,0.03181*%
%ADD35C,0.04000*%
D10*
X0102500Y0095000D03*
D11*
X0212657Y0076250D03*
D12*
X0124941Y0080236D03*
X0124941Y0082205D03*
X0124941Y0084173D03*
X0124941Y0086142D03*
X0124941Y0088110D03*
X0124941Y0090079D03*
X0124941Y0092047D03*
X0124941Y0094016D03*
X0124941Y0095984D03*
X0124941Y0097953D03*
X0124941Y0099921D03*
X0124941Y0101890D03*
X0124941Y0103858D03*
X0124941Y0105827D03*
X0124941Y0107795D03*
X0124941Y0109764D03*
X0080059Y0109764D03*
X0080059Y0107795D03*
X0080059Y0105827D03*
X0080059Y0103858D03*
X0080059Y0101890D03*
X0080059Y0099921D03*
X0080059Y0097953D03*
X0080059Y0095984D03*
X0080059Y0094016D03*
X0080059Y0092047D03*
X0080059Y0090079D03*
X0080059Y0088110D03*
X0080059Y0086142D03*
X0080059Y0084173D03*
X0080059Y0082205D03*
X0080059Y0080236D03*
D13*
X0087736Y0072559D03*
X0089705Y0072559D03*
X0091673Y0072559D03*
X0093642Y0072559D03*
X0095610Y0072559D03*
X0097579Y0072559D03*
X0099547Y0072559D03*
X0101516Y0072559D03*
X0103484Y0072559D03*
X0105453Y0072559D03*
X0107421Y0072559D03*
X0109390Y0072559D03*
X0111358Y0072559D03*
X0113327Y0072559D03*
X0115295Y0072559D03*
X0117264Y0072559D03*
X0117264Y0117441D03*
X0115295Y0117441D03*
X0113327Y0117441D03*
X0111358Y0117441D03*
X0109390Y0117441D03*
X0107421Y0117441D03*
X0105453Y0117441D03*
X0103484Y0117441D03*
X0101516Y0117441D03*
X0099547Y0117441D03*
X0097579Y0117441D03*
X0095610Y0117441D03*
X0093642Y0117441D03*
X0091673Y0117441D03*
X0089705Y0117441D03*
X0087736Y0117441D03*
D14*
X0059331Y0113346D03*
X0059331Y0106654D03*
X0050669Y0106654D03*
X0050669Y0113346D03*
D15*
X0051063Y0125000D03*
X0058937Y0125000D03*
X0056063Y0072500D03*
X0063937Y0072500D03*
X0078563Y0060000D03*
X0086437Y0060000D03*
X0121063Y0060000D03*
X0128937Y0060000D03*
X0136063Y0067500D03*
X0143937Y0067500D03*
X0141437Y0115000D03*
X0133563Y0115000D03*
X0133563Y0130000D03*
X0141437Y0130000D03*
D16*
X0082500Y0136063D03*
X0082500Y0143937D03*
X0072500Y0123937D03*
X0072500Y0116063D03*
X0040000Y0113937D03*
X0040000Y0106063D03*
X0027500Y0141063D03*
X0027500Y0148937D03*
X0275000Y0208563D03*
X0275000Y0216437D03*
D17*
X0255157Y0111299D03*
X0255157Y0108150D03*
X0255157Y0105000D03*
X0255157Y0101850D03*
X0255157Y0098701D03*
D18*
X0255157Y0087283D03*
X0276811Y0087283D03*
X0276811Y0122717D03*
X0255157Y0122717D03*
D19*
X0223740Y0107500D03*
X0216260Y0107500D03*
X0216260Y0097500D03*
X0223740Y0097500D03*
X0267510Y0072500D03*
X0274990Y0072500D03*
X0161240Y0122500D03*
X0153760Y0122500D03*
X0082490Y0176250D03*
X0075010Y0176250D03*
X0103760Y0217500D03*
X0111240Y0217500D03*
X0128760Y0217500D03*
X0136240Y0217500D03*
X0153760Y0217500D03*
X0161240Y0217500D03*
X0126240Y0047500D03*
X0118760Y0047500D03*
D20*
X0216598Y0062201D03*
X0228402Y0062201D03*
D21*
X0222500Y0063201D03*
D22*
X0223500Y0069516D02*
X0221500Y0069516D01*
X0221500Y0077886D01*
X0223500Y0077886D01*
X0223500Y0069516D01*
X0223500Y0075515D02*
X0221500Y0075515D01*
D23*
X0244094Y0072500D03*
X0255906Y0072500D03*
X0255906Y0060000D03*
X0244094Y0060000D03*
D24*
X0225000Y0147500D03*
X0215000Y0147500D03*
X0215000Y0157500D03*
X0225000Y0157500D03*
X0225000Y0167500D03*
X0215000Y0167500D03*
X0215000Y0177500D03*
X0225000Y0177500D03*
X0195000Y0207500D03*
X0185000Y0207500D03*
X0185000Y0217500D03*
X0195000Y0217500D03*
X0062500Y0217500D03*
X0052500Y0217500D03*
X0052500Y0207500D03*
X0062500Y0207500D03*
X0042500Y0207500D03*
X0032500Y0207500D03*
X0022500Y0207500D03*
X0022500Y0217500D03*
X0032500Y0217500D03*
X0042500Y0217500D03*
X0082500Y0025000D03*
X0092500Y0025000D03*
X0092500Y0015000D03*
X0082500Y0015000D03*
X0102500Y0015000D03*
X0112500Y0015000D03*
X0112500Y0025000D03*
X0102500Y0025000D03*
X0122500Y0025000D03*
X0122500Y0015000D03*
D25*
X0240000Y0081270D03*
X0240000Y0096230D03*
X0246250Y0140020D03*
X0257500Y0140020D03*
X0257500Y0154980D03*
X0246250Y0154980D03*
D26*
X0234114Y0202126D03*
X0234114Y0217874D03*
X0260886Y0217874D03*
X0260886Y0202126D03*
D27*
X0273800Y0162500D02*
X0281200Y0162500D01*
X0281200Y0152500D02*
X0273800Y0152500D01*
X0273800Y0047500D02*
X0281200Y0047500D01*
X0271200Y0047500D02*
X0263800Y0047500D01*
X0263800Y0037500D02*
X0271200Y0037500D01*
X0273800Y0037500D02*
X0281200Y0037500D01*
X0281200Y0027500D02*
X0273800Y0027500D01*
X0271200Y0027500D02*
X0263800Y0027500D01*
X0263800Y0017500D02*
X0271200Y0017500D01*
X0273800Y0017500D02*
X0281200Y0017500D01*
X0096250Y0177550D02*
X0096250Y0184950D01*
D28*
X0101902Y0205000D03*
X0113098Y0205000D03*
X0126902Y0205000D03*
X0138098Y0205000D03*
X0151902Y0205000D03*
X0163098Y0205000D03*
X0265652Y0060000D03*
X0276848Y0060000D03*
D29*
X0063750Y0058346D03*
X0063750Y0051654D03*
D30*
X0027500Y0071260D03*
X0027500Y0078740D03*
D31*
X0002568Y0002568D02*
X0002568Y0227392D01*
X0014348Y0227392D01*
X0010705Y0223749D01*
X0009814Y0222858D01*
X0009331Y0221693D01*
X0009331Y0091870D01*
X0009814Y0090705D01*
X0014814Y0085705D01*
X0015705Y0084814D01*
X0016870Y0084331D01*
X0024331Y0084331D01*
X0024331Y0083868D01*
X0024036Y0083868D01*
X0023092Y0083477D01*
X0022370Y0082754D01*
X0021979Y0081810D01*
X0021979Y0075670D01*
X0022256Y0075000D01*
X0021979Y0074330D01*
X0021979Y0068190D01*
X0022370Y0067246D01*
X0023092Y0066523D01*
X0024036Y0066132D01*
X0024331Y0066132D01*
X0024331Y0061653D01*
X0024814Y0060489D01*
X0028751Y0056552D01*
X0029642Y0055660D01*
X0030807Y0055178D01*
X0059417Y0055178D01*
X0059491Y0055000D01*
X0059213Y0054330D01*
X0059213Y0048977D01*
X0059604Y0048033D01*
X0060327Y0047311D01*
X0061271Y0046920D01*
X0066229Y0046920D01*
X0067173Y0047311D01*
X0067896Y0048033D01*
X0068083Y0048485D01*
X0083130Y0048485D01*
X0084295Y0048967D01*
X0088232Y0052904D01*
X0089123Y0053796D01*
X0089324Y0054282D01*
X0089507Y0054282D01*
X0090451Y0054673D01*
X0091174Y0055395D01*
X0091565Y0056339D01*
X0091565Y0059347D01*
X0092442Y0060225D01*
X0092442Y0052749D01*
X0090045Y0050353D01*
X0089642Y0050186D01*
X0088751Y0049295D01*
X0084814Y0045358D01*
X0084331Y0044193D01*
X0084331Y0030100D01*
X0082900Y0030100D01*
X0082900Y0025400D01*
X0082100Y0025400D01*
X0082100Y0030100D01*
X0080388Y0030100D01*
X0077400Y0027112D01*
X0077400Y0025400D01*
X0082100Y0025400D01*
X0082100Y0024600D01*
X0077400Y0024600D01*
X0077400Y0022888D01*
X0079815Y0020473D01*
X0076731Y0017389D01*
X0076731Y0012611D01*
X0080111Y0009231D01*
X0084889Y0009231D01*
X0087500Y0011842D01*
X0090111Y0009231D01*
X0094889Y0009231D01*
X0097500Y0011842D01*
X0100111Y0009231D01*
X0104889Y0009231D01*
X0107500Y0011842D01*
X0110111Y0009231D01*
X0114889Y0009231D01*
X0117500Y0011842D01*
X0120111Y0009231D01*
X0124889Y0009231D01*
X0128268Y0012611D01*
X0128268Y0016288D01*
X0131795Y0019814D01*
X0132686Y0020705D01*
X0133168Y0021870D01*
X0133168Y0034193D01*
X0132686Y0035358D01*
X0128749Y0039295D01*
X0127858Y0040186D01*
X0126693Y0040668D01*
X0112671Y0040668D01*
X0110590Y0042749D01*
X0110590Y0045756D01*
X0111532Y0044814D01*
X0112697Y0044331D01*
X0113632Y0044331D01*
X0113632Y0044036D01*
X0114023Y0043092D01*
X0114746Y0042370D01*
X0115690Y0041979D01*
X0121830Y0041979D01*
X0122774Y0042370D01*
X0123132Y0042727D01*
X0123431Y0042647D01*
X0125640Y0042647D01*
X0125640Y0046900D01*
X0126840Y0046900D01*
X0126840Y0042647D01*
X0129049Y0042647D01*
X0129533Y0042777D01*
X0129966Y0043027D01*
X0130320Y0043381D01*
X0130570Y0043814D01*
X0130699Y0044297D01*
X0130699Y0046900D01*
X0126840Y0046900D01*
X0126840Y0048100D01*
X0125640Y0048100D01*
X0125640Y0052353D01*
X0123431Y0052353D01*
X0123132Y0052273D01*
X0122774Y0052630D01*
X0121830Y0053021D01*
X0115690Y0053021D01*
X0114746Y0052630D01*
X0114023Y0051908D01*
X0113841Y0051467D01*
X0112558Y0052749D01*
X0112558Y0058328D01*
X0112609Y0058205D01*
X0113500Y0057314D01*
X0114665Y0056831D01*
X0115935Y0056831D01*
X0115935Y0056339D01*
X0116326Y0055395D01*
X0117049Y0054673D01*
X0117993Y0054282D01*
X0124133Y0054282D01*
X0125077Y0054673D01*
X0125543Y0055139D01*
X0125645Y0055080D01*
X0126128Y0054950D01*
X0128337Y0054950D01*
X0128337Y0059400D01*
X0129537Y0059400D01*
X0129537Y0060600D01*
X0133396Y0060600D01*
X0133396Y0061782D01*
X0139133Y0061782D01*
X0140077Y0062173D01*
X0140543Y0062639D01*
X0140645Y0062580D01*
X0141128Y0062450D01*
X0143337Y0062450D01*
X0143337Y0066900D01*
X0144537Y0066900D01*
X0144537Y0068100D01*
X0148396Y0068100D01*
X0148396Y0070900D01*
X0148307Y0071231D01*
X0163731Y0071231D01*
X0163731Y0049250D01*
X0164305Y0047865D01*
X0165365Y0046805D01*
X0166750Y0046231D01*
X0257540Y0046231D01*
X0258486Y0043949D01*
X0259935Y0042500D01*
X0258486Y0041051D01*
X0257531Y0038747D01*
X0257531Y0036253D01*
X0258486Y0033949D01*
X0260249Y0032186D01*
X0260550Y0032061D01*
X0260152Y0031771D01*
X0259529Y0031148D01*
X0259010Y0030435D01*
X0258610Y0029650D01*
X0258338Y0028811D01*
X0258209Y0028000D01*
X0267000Y0028000D01*
X0267000Y0027000D01*
X0268000Y0027000D01*
X0268000Y0028000D01*
X0277000Y0028000D01*
X0277000Y0027000D01*
X0276791Y0027000D01*
X0268000Y0027000D01*
X0268000Y0021900D01*
X0268000Y0018000D01*
X0277000Y0018000D01*
X0277000Y0027000D01*
X0278000Y0027000D01*
X0278000Y0021900D01*
X0278000Y0018000D01*
X0277000Y0018000D01*
X0277000Y0017000D01*
X0276791Y0017000D01*
X0268000Y0017000D01*
X0268000Y0018000D01*
X0267000Y0018000D01*
X0267000Y0027000D01*
X0258209Y0027000D01*
X0258338Y0026189D01*
X0258610Y0025350D01*
X0259010Y0024565D01*
X0259529Y0023852D01*
X0260152Y0023229D01*
X0260865Y0022710D01*
X0261278Y0022500D01*
X0260865Y0022290D01*
X0260152Y0021771D01*
X0259529Y0021148D01*
X0259010Y0020435D01*
X0258610Y0019650D01*
X0258338Y0018811D01*
X0258209Y0018000D01*
X0267000Y0018000D01*
X0267000Y0017000D01*
X0268000Y0017000D01*
X0268000Y0011900D01*
X0271641Y0011900D01*
X0272500Y0012036D01*
X0273359Y0011900D01*
X0277000Y0011900D01*
X0277000Y0017000D01*
X0278000Y0017000D01*
X0278000Y0011900D01*
X0281641Y0011900D01*
X0282511Y0012038D01*
X0283350Y0012310D01*
X0284135Y0012710D01*
X0284848Y0013229D01*
X0285471Y0013852D01*
X0285990Y0014565D01*
X0286132Y0014845D01*
X0286132Y0002568D01*
X0002568Y0002568D01*
X0002568Y0003596D02*
X0286132Y0003596D01*
X0286132Y0004794D02*
X0002568Y0004794D01*
X0002568Y0005993D02*
X0286132Y0005993D01*
X0286132Y0007191D02*
X0002568Y0007191D01*
X0002568Y0008390D02*
X0286132Y0008390D01*
X0286132Y0009588D02*
X0125246Y0009588D01*
X0126444Y0010787D02*
X0286132Y0010787D01*
X0286132Y0011985D02*
X0282178Y0011985D01*
X0284786Y0013184D02*
X0286132Y0013184D01*
X0286132Y0014382D02*
X0285857Y0014382D01*
X0278000Y0014382D02*
X0277000Y0014382D01*
X0277000Y0013184D02*
X0278000Y0013184D01*
X0278000Y0011985D02*
X0277000Y0011985D01*
X0272822Y0011985D02*
X0272178Y0011985D01*
X0268000Y0011985D02*
X0267000Y0011985D01*
X0267000Y0011900D02*
X0267000Y0017000D01*
X0258209Y0017000D01*
X0258338Y0016189D01*
X0258610Y0015350D01*
X0259010Y0014565D01*
X0259529Y0013852D01*
X0260152Y0013229D01*
X0260865Y0012710D01*
X0261650Y0012310D01*
X0262489Y0012038D01*
X0263359Y0011900D01*
X0267000Y0011900D01*
X0267000Y0013184D02*
X0268000Y0013184D01*
X0268000Y0014382D02*
X0267000Y0014382D01*
X0267000Y0015581D02*
X0268000Y0015581D01*
X0268000Y0016779D02*
X0267000Y0016779D01*
X0267000Y0017978D02*
X0129959Y0017978D01*
X0131157Y0019176D02*
X0258456Y0019176D01*
X0258980Y0020375D02*
X0132356Y0020375D01*
X0133046Y0021573D02*
X0259954Y0021573D01*
X0260781Y0022772D02*
X0133168Y0022772D01*
X0133168Y0023970D02*
X0259443Y0023970D01*
X0258703Y0025169D02*
X0133168Y0025169D01*
X0133168Y0026367D02*
X0258310Y0026367D01*
X0258330Y0028764D02*
X0133168Y0028764D01*
X0133168Y0027566D02*
X0267000Y0027566D01*
X0268000Y0027566D02*
X0277000Y0027566D01*
X0277000Y0026367D02*
X0278000Y0026367D01*
X0278000Y0025169D02*
X0277000Y0025169D01*
X0277000Y0023970D02*
X0278000Y0023970D01*
X0278000Y0022772D02*
X0277000Y0022772D01*
X0277000Y0021573D02*
X0278000Y0021573D01*
X0278000Y0020375D02*
X0277000Y0020375D01*
X0277000Y0019176D02*
X0278000Y0019176D01*
X0277000Y0017978D02*
X0268000Y0017978D01*
X0268000Y0019176D02*
X0267000Y0019176D01*
X0267000Y0020375D02*
X0268000Y0020375D01*
X0268000Y0021573D02*
X0267000Y0021573D01*
X0267000Y0022772D02*
X0268000Y0022772D01*
X0268000Y0023970D02*
X0267000Y0023970D01*
X0267000Y0025169D02*
X0268000Y0025169D01*
X0268000Y0026367D02*
X0267000Y0026367D01*
X0259542Y0031161D02*
X0258224Y0031161D01*
X0258093Y0030847D02*
X0258356Y0031482D01*
X0258491Y0032156D01*
X0258491Y0032500D01*
X0258491Y0032844D01*
X0258356Y0033518D01*
X0258093Y0034153D01*
X0257711Y0034725D01*
X0257225Y0035211D01*
X0256653Y0035593D01*
X0256018Y0035856D01*
X0255344Y0035991D01*
X0255000Y0035991D01*
X0254656Y0035991D01*
X0253982Y0035856D01*
X0253347Y0035593D01*
X0252775Y0035211D01*
X0252289Y0034725D01*
X0251907Y0034153D01*
X0251644Y0033518D01*
X0251509Y0032844D01*
X0251509Y0032500D01*
X0251509Y0032156D01*
X0251644Y0031482D01*
X0251907Y0030847D01*
X0252289Y0030275D01*
X0252775Y0029789D01*
X0253347Y0029407D01*
X0253982Y0029144D01*
X0254656Y0029009D01*
X0255000Y0029009D01*
X0255344Y0029009D01*
X0256018Y0029144D01*
X0256653Y0029407D01*
X0257225Y0029789D01*
X0257711Y0030275D01*
X0258093Y0030847D01*
X0258770Y0029963D02*
X0257399Y0029963D01*
X0255000Y0029963D02*
X0255000Y0029963D01*
X0255000Y0029009D02*
X0255000Y0032500D01*
X0258491Y0032500D01*
X0255000Y0032500D01*
X0255000Y0032500D01*
X0255000Y0032500D01*
X0255000Y0035991D01*
X0255000Y0032500D01*
X0255000Y0032500D01*
X0255000Y0032500D01*
X0251509Y0032500D01*
X0255000Y0032500D01*
X0255000Y0029009D01*
X0255000Y0031161D02*
X0255000Y0031161D01*
X0255000Y0032360D02*
X0255000Y0032360D01*
X0255000Y0033558D02*
X0255000Y0033558D01*
X0255000Y0034757D02*
X0255000Y0034757D01*
X0255000Y0035955D02*
X0255000Y0035955D01*
X0255521Y0035955D02*
X0257655Y0035955D01*
X0257680Y0034757D02*
X0258151Y0034757D01*
X0258340Y0033558D02*
X0258877Y0033558D01*
X0258491Y0032360D02*
X0260075Y0032360D01*
X0257531Y0037154D02*
X0130890Y0037154D01*
X0129692Y0038352D02*
X0257531Y0038352D01*
X0257865Y0039551D02*
X0128493Y0039551D01*
X0126063Y0037500D02*
X0111358Y0037500D01*
X0107421Y0041437D01*
X0107421Y0072559D01*
X0105453Y0072559D02*
X0105453Y0038937D01*
X0109390Y0035000D01*
X0113563Y0035000D01*
X0117500Y0031063D01*
X0117500Y0020000D01*
X0112500Y0015000D01*
X0116444Y0010787D02*
X0118555Y0010787D01*
X0119754Y0009588D02*
X0115246Y0009588D01*
X0109754Y0009588D02*
X0105246Y0009588D01*
X0106444Y0010787D02*
X0108555Y0010787D01*
X0102500Y0015000D02*
X0107500Y0020000D01*
X0107500Y0028563D01*
X0103563Y0032500D01*
X0103484Y0032500D01*
X0099547Y0036437D01*
X0099547Y0072559D01*
X0097579Y0072559D02*
X0097579Y0020079D01*
X0092500Y0015000D01*
X0096444Y0010787D02*
X0098555Y0010787D01*
X0099754Y0009588D02*
X0095246Y0009588D01*
X0089754Y0009588D02*
X0085246Y0009588D01*
X0086444Y0010787D02*
X0088555Y0010787D01*
X0082500Y0015000D02*
X0087500Y0020000D01*
X0087500Y0043563D01*
X0091437Y0047500D01*
X0091673Y0047500D01*
X0095610Y0051437D01*
X0095610Y0072559D01*
X0091673Y0072559D02*
X0091673Y0086142D01*
X0100000Y0086142D01*
X0100000Y0109764D01*
X0080059Y0109764D01*
X0124941Y0109764D01*
X0128750Y0109764D01*
X0128750Y0122500D01*
X0153760Y0122500D01*
X0155000Y0122500D01*
X0155000Y0130000D01*
X0190000Y0130000D01*
X0186708Y0133168D02*
X0187412Y0133873D01*
X0189091Y0134568D01*
X0190909Y0134568D01*
X0192588Y0133873D01*
X0193873Y0132588D01*
X0194331Y0131481D01*
X0194331Y0144208D01*
X0193627Y0144912D01*
X0193168Y0146019D01*
X0193168Y0140807D01*
X0192686Y0139642D01*
X0189999Y0136955D01*
X0189999Y0136955D01*
X0189108Y0136064D01*
X0187943Y0135581D01*
X0136963Y0135581D01*
X0137577Y0135327D01*
X0138043Y0134861D01*
X0138145Y0134920D01*
X0138628Y0135050D01*
X0140837Y0135050D01*
X0140837Y0130600D01*
X0142037Y0130600D01*
X0142037Y0135050D01*
X0144246Y0135050D01*
X0144729Y0134920D01*
X0145163Y0134670D01*
X0145516Y0134316D01*
X0145767Y0133883D01*
X0145896Y0133400D01*
X0145896Y0130600D01*
X0142037Y0130600D01*
X0142037Y0129400D01*
X0145896Y0129400D01*
X0145896Y0126600D01*
X0145767Y0126117D01*
X0145516Y0125684D01*
X0145501Y0125668D01*
X0148632Y0125668D01*
X0148632Y0125964D01*
X0149023Y0126908D01*
X0149746Y0127630D01*
X0150058Y0127759D01*
X0150000Y0127759D01*
X0150000Y0131250D01*
X0150000Y0131250D01*
X0150000Y0134741D01*
X0149656Y0134741D01*
X0148982Y0134606D01*
X0148347Y0134343D01*
X0147775Y0133961D01*
X0147289Y0133475D01*
X0146907Y0132903D01*
X0146644Y0132268D01*
X0146509Y0131594D01*
X0146509Y0131250D01*
X0146509Y0130906D01*
X0146644Y0130232D01*
X0146907Y0129597D01*
X0147289Y0129025D01*
X0147775Y0128539D01*
X0148347Y0128157D01*
X0148982Y0127894D01*
X0149656Y0127759D01*
X0150000Y0127759D01*
X0150000Y0131250D01*
X0150000Y0131250D01*
X0150000Y0131250D01*
X0146509Y0131250D01*
X0150000Y0131250D01*
X0150000Y0134741D01*
X0150344Y0134741D01*
X0151018Y0134606D01*
X0151653Y0134343D01*
X0152225Y0133961D01*
X0152711Y0133475D01*
X0153093Y0132903D01*
X0153190Y0132671D01*
X0153205Y0132686D01*
X0154370Y0133168D01*
X0186708Y0133168D01*
X0188282Y0134233D02*
X0151818Y0134233D01*
X0153005Y0133035D02*
X0154047Y0133035D01*
X0150000Y0133035D02*
X0150000Y0133035D01*
X0150000Y0134233D02*
X0150000Y0134233D01*
X0148182Y0134233D02*
X0145564Y0134233D01*
X0145896Y0133035D02*
X0146995Y0133035D01*
X0146558Y0131836D02*
X0145896Y0131836D01*
X0145896Y0130638D02*
X0146563Y0130638D01*
X0147012Y0129439D02*
X0142037Y0129439D01*
X0142037Y0130638D02*
X0140837Y0130638D01*
X0140837Y0131836D02*
X0142037Y0131836D01*
X0142037Y0133035D02*
X0140837Y0133035D01*
X0140837Y0134233D02*
X0142037Y0134233D01*
X0137324Y0135432D02*
X0194331Y0135432D01*
X0194331Y0136630D02*
X0189674Y0136630D01*
X0190873Y0137829D02*
X0194331Y0137829D01*
X0194331Y0139027D02*
X0192071Y0139027D01*
X0192928Y0140226D02*
X0194331Y0140226D01*
X0194331Y0141424D02*
X0193168Y0141424D01*
X0193168Y0142623D02*
X0194331Y0142623D01*
X0194331Y0143821D02*
X0193168Y0143821D01*
X0193168Y0145020D02*
X0193582Y0145020D01*
X0197500Y0147500D02*
X0197500Y0123937D01*
X0196063Y0122500D01*
X0161240Y0122500D01*
X0160856Y0122500D01*
X0160856Y0109764D01*
X0156919Y0105827D01*
X0124941Y0105827D01*
X0124941Y0107795D02*
X0133563Y0107795D01*
X0133563Y0115000D01*
X0136731Y0109323D02*
X0137577Y0109673D01*
X0138043Y0110139D01*
X0138145Y0110080D01*
X0138628Y0109950D01*
X0140837Y0109950D01*
X0140837Y0114400D01*
X0142037Y0114400D01*
X0142037Y0115600D01*
X0145896Y0115600D01*
X0145896Y0118400D01*
X0145767Y0118883D01*
X0145516Y0119316D01*
X0145501Y0119331D01*
X0148632Y0119331D01*
X0148632Y0119036D01*
X0149023Y0118092D01*
X0149746Y0117370D01*
X0150690Y0116979D01*
X0156830Y0116979D01*
X0157500Y0117256D01*
X0157688Y0117179D01*
X0157688Y0111076D01*
X0155607Y0108995D01*
X0136731Y0108995D01*
X0136731Y0109323D01*
X0136731Y0109065D02*
X0150629Y0109065D01*
X0150906Y0109009D02*
X0151250Y0109009D01*
X0151594Y0109009D01*
X0152268Y0109144D01*
X0152903Y0109407D01*
X0153475Y0109789D01*
X0153961Y0110275D01*
X0154343Y0110847D01*
X0154606Y0111482D01*
X0154741Y0112156D01*
X0154741Y0112500D01*
X0154741Y0112844D01*
X0154606Y0113518D01*
X0154343Y0114153D01*
X0153961Y0114725D01*
X0153475Y0115211D01*
X0152903Y0115593D01*
X0152268Y0115856D01*
X0151594Y0115991D01*
X0151250Y0115991D01*
X0150906Y0115991D01*
X0150232Y0115856D01*
X0149597Y0115593D01*
X0149025Y0115211D01*
X0148539Y0114725D01*
X0148157Y0114153D01*
X0147894Y0113518D01*
X0147759Y0112844D01*
X0147759Y0112500D01*
X0147759Y0112156D01*
X0147894Y0111482D01*
X0148157Y0110847D01*
X0148539Y0110275D01*
X0149025Y0109789D01*
X0149597Y0109407D01*
X0150232Y0109144D01*
X0150906Y0109009D01*
X0151250Y0109009D02*
X0151250Y0112500D01*
X0154741Y0112500D01*
X0151250Y0112500D01*
X0151250Y0112500D01*
X0151250Y0112500D01*
X0151250Y0115991D01*
X0151250Y0112500D01*
X0151250Y0109009D01*
X0151250Y0109065D02*
X0151250Y0109065D01*
X0151871Y0109065D02*
X0155676Y0109065D01*
X0156875Y0110263D02*
X0153949Y0110263D01*
X0154598Y0111462D02*
X0157688Y0111462D01*
X0157688Y0112660D02*
X0154741Y0112660D01*
X0154465Y0113859D02*
X0157688Y0113859D01*
X0157688Y0115057D02*
X0153629Y0115057D01*
X0151250Y0115057D02*
X0151250Y0115057D01*
X0151250Y0113859D02*
X0151250Y0113859D01*
X0151250Y0112660D02*
X0151250Y0112660D01*
X0151250Y0112500D02*
X0151250Y0112500D01*
X0151250Y0112500D01*
X0147759Y0112500D01*
X0151250Y0112500D01*
X0151250Y0111462D02*
X0151250Y0111462D01*
X0151250Y0110263D02*
X0151250Y0110263D01*
X0148551Y0110263D02*
X0145047Y0110263D01*
X0145163Y0110330D02*
X0145516Y0110684D01*
X0145767Y0111117D01*
X0145896Y0111600D01*
X0145896Y0114400D01*
X0142037Y0114400D01*
X0142037Y0109950D01*
X0144246Y0109950D01*
X0144729Y0110080D01*
X0145163Y0110330D01*
X0145859Y0111462D02*
X0147902Y0111462D01*
X0147759Y0112660D02*
X0145896Y0112660D01*
X0145896Y0113859D02*
X0148035Y0113859D01*
X0148871Y0115057D02*
X0142037Y0115057D01*
X0142037Y0113859D02*
X0140837Y0113859D01*
X0140837Y0112660D02*
X0142037Y0112660D01*
X0142037Y0111462D02*
X0140837Y0111462D01*
X0140837Y0110263D02*
X0142037Y0110263D01*
X0145896Y0116256D02*
X0157688Y0116256D01*
X0164025Y0116256D02*
X0249618Y0116256D01*
X0249725Y0116211D02*
X0251181Y0116211D01*
X0251181Y0114183D01*
X0249986Y0114183D01*
X0249503Y0114054D01*
X0249070Y0113804D01*
X0248716Y0113450D01*
X0248466Y0113017D01*
X0248336Y0112534D01*
X0248336Y0111299D01*
X0248336Y0110866D01*
X0248059Y0110589D01*
X0247668Y0109645D01*
X0247668Y0108168D01*
X0236312Y0108168D01*
X0235186Y0109295D01*
X0234295Y0110186D01*
X0233130Y0110668D01*
X0228868Y0110668D01*
X0228868Y0110964D01*
X0228477Y0111908D01*
X0227754Y0112630D01*
X0226810Y0113021D01*
X0220670Y0113021D01*
X0220000Y0112744D01*
X0219330Y0113021D01*
X0213190Y0113021D01*
X0212246Y0112630D01*
X0211523Y0111908D01*
X0211132Y0110964D01*
X0211132Y0110668D01*
X0206870Y0110668D01*
X0205705Y0110186D01*
X0204814Y0109295D01*
X0202546Y0107027D01*
X0162600Y0107027D01*
X0162651Y0107078D01*
X0163542Y0107969D01*
X0164025Y0109134D01*
X0164025Y0116979D01*
X0164310Y0116979D01*
X0165254Y0117370D01*
X0165977Y0118092D01*
X0166368Y0119036D01*
X0166368Y0119331D01*
X0196693Y0119331D01*
X0197858Y0119814D01*
X0198749Y0120705D01*
X0200186Y0122142D01*
X0200668Y0123307D01*
X0200668Y0144208D01*
X0201373Y0144912D01*
X0202068Y0146591D01*
X0202068Y0148409D01*
X0201373Y0150088D01*
X0200088Y0151373D01*
X0198409Y0152068D01*
X0196591Y0152068D01*
X0194912Y0151373D01*
X0193627Y0150088D01*
X0193168Y0148981D01*
X0193168Y0152251D01*
X0194729Y0153811D01*
X0194912Y0153627D01*
X0196591Y0152931D01*
X0198409Y0152931D01*
X0200088Y0153627D01*
X0201373Y0154912D01*
X0202068Y0156591D01*
X0202068Y0158409D01*
X0201373Y0160088D01*
X0200088Y0161373D01*
X0198409Y0162068D01*
X0196591Y0162068D01*
X0194912Y0161373D01*
X0194208Y0160668D01*
X0193307Y0160668D01*
X0193168Y0160611D01*
X0193168Y0202400D01*
X0194600Y0202400D01*
X0194600Y0207100D01*
X0195400Y0207100D01*
X0195400Y0207900D01*
X0200100Y0207900D01*
X0200100Y0209612D01*
X0197685Y0212027D01*
X0200768Y0215111D01*
X0200768Y0219331D01*
X0225246Y0219331D01*
X0225246Y0215198D01*
X0225637Y0214254D01*
X0226360Y0213531D01*
X0227304Y0213140D01*
X0240924Y0213140D01*
X0241868Y0213531D01*
X0242591Y0214254D01*
X0242778Y0214706D01*
X0252222Y0214706D01*
X0252409Y0214254D01*
X0253132Y0213531D01*
X0254076Y0213140D01*
X0267696Y0213140D01*
X0268640Y0213531D01*
X0269282Y0214173D01*
X0269282Y0213367D01*
X0269673Y0212423D01*
X0270139Y0211957D01*
X0270080Y0211855D01*
X0269950Y0211372D01*
X0269950Y0209163D01*
X0274400Y0209163D01*
X0274400Y0207963D01*
X0269950Y0207963D01*
X0269950Y0205754D01*
X0270080Y0205271D01*
X0270330Y0204837D01*
X0270684Y0204484D01*
X0271117Y0204233D01*
X0271600Y0204104D01*
X0274400Y0204104D01*
X0274400Y0207963D01*
X0275600Y0207963D01*
X0275600Y0209163D01*
X0280050Y0209163D01*
X0280050Y0211372D01*
X0279920Y0211855D01*
X0279861Y0211957D01*
X0280327Y0212423D01*
X0280718Y0213367D01*
X0280718Y0219507D01*
X0280327Y0220451D01*
X0279605Y0221174D01*
X0278661Y0221565D01*
X0271339Y0221565D01*
X0270395Y0221174D01*
X0270264Y0221043D01*
X0269550Y0221043D01*
X0269363Y0221494D01*
X0268640Y0222217D01*
X0267696Y0222608D01*
X0254076Y0222608D01*
X0253132Y0222217D01*
X0252409Y0221494D01*
X0252222Y0221043D01*
X0242778Y0221043D01*
X0242591Y0221494D01*
X0241868Y0222217D01*
X0240924Y0222608D01*
X0237283Y0222608D01*
X0237283Y0223130D01*
X0236800Y0224295D01*
X0235909Y0225186D01*
X0234744Y0225668D01*
X0189370Y0225668D01*
X0188205Y0225186D01*
X0187314Y0224295D01*
X0186288Y0223268D01*
X0182611Y0223268D01*
X0179231Y0219889D01*
X0179231Y0216212D01*
X0178205Y0215186D01*
X0177314Y0214295D01*
X0176831Y0213130D01*
X0176831Y0193812D01*
X0173688Y0190668D01*
X0149551Y0190668D01*
X0153696Y0194814D01*
X0154588Y0195705D01*
X0155070Y0196870D01*
X0155070Y0198882D01*
X0155562Y0198882D01*
X0156506Y0199273D01*
X0157229Y0199996D01*
X0157500Y0200651D01*
X0157771Y0199996D01*
X0158494Y0199273D01*
X0159438Y0198882D01*
X0166759Y0198882D01*
X0167703Y0199273D01*
X0168425Y0199996D01*
X0168817Y0200940D01*
X0168817Y0209060D01*
X0168425Y0210004D01*
X0167703Y0210727D01*
X0166759Y0211118D01*
X0166267Y0211118D01*
X0166267Y0213793D01*
X0166368Y0214036D01*
X0166368Y0220964D01*
X0165977Y0221908D01*
X0165254Y0222630D01*
X0164310Y0223021D01*
X0158170Y0223021D01*
X0157226Y0222630D01*
X0156868Y0222273D01*
X0156569Y0222353D01*
X0154360Y0222353D01*
X0154360Y0218100D01*
X0153160Y0218100D01*
X0153160Y0222353D01*
X0150951Y0222353D01*
X0150467Y0222223D01*
X0150034Y0221973D01*
X0149680Y0221619D01*
X0149430Y0221186D01*
X0149301Y0220703D01*
X0149301Y0218100D01*
X0153160Y0218100D01*
X0153160Y0216900D01*
X0154360Y0216900D01*
X0154360Y0212647D01*
X0156569Y0212647D01*
X0156868Y0212727D01*
X0157226Y0212370D01*
X0158170Y0211979D01*
X0159930Y0211979D01*
X0159930Y0211118D01*
X0159438Y0211118D01*
X0158494Y0210727D01*
X0157771Y0210004D01*
X0157500Y0209349D01*
X0157229Y0210004D01*
X0156506Y0210727D01*
X0155562Y0211118D01*
X0148241Y0211118D01*
X0147297Y0210727D01*
X0146574Y0210004D01*
X0146183Y0209060D01*
X0146183Y0200940D01*
X0146574Y0199996D01*
X0147297Y0199273D01*
X0148241Y0198882D01*
X0148733Y0198882D01*
X0148733Y0198812D01*
X0145589Y0195668D01*
X0129551Y0195668D01*
X0129588Y0195705D01*
X0130070Y0196870D01*
X0130070Y0198882D01*
X0130562Y0198882D01*
X0131506Y0199273D01*
X0132229Y0199996D01*
X0132500Y0200651D01*
X0132771Y0199996D01*
X0133494Y0199273D01*
X0134438Y0198882D01*
X0141759Y0198882D01*
X0142703Y0199273D01*
X0143425Y0199996D01*
X0143817Y0200940D01*
X0143817Y0209060D01*
X0143425Y0210004D01*
X0142703Y0210727D01*
X0141759Y0211118D01*
X0141267Y0211118D01*
X0141267Y0213793D01*
X0141368Y0214036D01*
X0141368Y0220964D01*
X0140977Y0221908D01*
X0140254Y0222630D01*
X0139310Y0223021D01*
X0133170Y0223021D01*
X0132226Y0222630D01*
X0131868Y0222273D01*
X0131569Y0222353D01*
X0129360Y0222353D01*
X0129360Y0218100D01*
X0128160Y0218100D01*
X0128160Y0222353D01*
X0125951Y0222353D01*
X0125467Y0222223D01*
X0125034Y0221973D01*
X0124680Y0221619D01*
X0124430Y0221186D01*
X0124301Y0220703D01*
X0124301Y0218100D01*
X0128160Y0218100D01*
X0128160Y0216900D01*
X0129360Y0216900D01*
X0129360Y0212647D01*
X0131569Y0212647D01*
X0131868Y0212727D01*
X0132226Y0212370D01*
X0133170Y0211979D01*
X0134930Y0211979D01*
X0134930Y0211118D01*
X0134438Y0211118D01*
X0133494Y0210727D01*
X0132771Y0210004D01*
X0132500Y0209349D01*
X0132229Y0210004D01*
X0131506Y0210727D01*
X0130562Y0211118D01*
X0123241Y0211118D01*
X0122297Y0210727D01*
X0121574Y0210004D01*
X0121183Y0209060D01*
X0121183Y0200940D01*
X0121296Y0200668D01*
X0118771Y0200668D01*
X0118690Y0200635D01*
X0118817Y0200940D01*
X0118817Y0209060D01*
X0118425Y0210004D01*
X0117703Y0210727D01*
X0116759Y0211118D01*
X0116267Y0211118D01*
X0116267Y0213793D01*
X0116368Y0214036D01*
X0116368Y0220964D01*
X0115977Y0221908D01*
X0115254Y0222630D01*
X0114310Y0223021D01*
X0108170Y0223021D01*
X0107226Y0222630D01*
X0106868Y0222273D01*
X0106569Y0222353D01*
X0104360Y0222353D01*
X0104360Y0218100D01*
X0103160Y0218100D01*
X0103160Y0222353D01*
X0100951Y0222353D01*
X0100467Y0222223D01*
X0100034Y0221973D01*
X0099680Y0221619D01*
X0099430Y0221186D01*
X0099301Y0220703D01*
X0099301Y0218100D01*
X0103160Y0218100D01*
X0103160Y0216900D01*
X0104360Y0216900D01*
X0104360Y0212647D01*
X0106569Y0212647D01*
X0106868Y0212727D01*
X0107226Y0212370D01*
X0108170Y0211979D01*
X0109930Y0211979D01*
X0109930Y0211118D01*
X0109438Y0211118D01*
X0108494Y0210727D01*
X0107771Y0210004D01*
X0107500Y0209349D01*
X0107229Y0210004D01*
X0106506Y0210727D01*
X0105562Y0211118D01*
X0098241Y0211118D01*
X0097297Y0210727D01*
X0096574Y0210004D01*
X0096183Y0209060D01*
X0096183Y0208168D01*
X0085653Y0208168D01*
X0085186Y0209295D01*
X0084295Y0210186D01*
X0079295Y0215186D01*
X0078130Y0215668D01*
X0068268Y0215668D01*
X0068268Y0219889D01*
X0064889Y0223268D01*
X0061212Y0223268D01*
X0057686Y0226795D01*
X0057089Y0227392D01*
X0286132Y0227392D01*
X0286132Y0166433D01*
X0284751Y0167814D01*
X0282447Y0168768D01*
X0272553Y0168768D01*
X0270249Y0167814D01*
X0268704Y0166268D01*
X0261750Y0166268D01*
X0260365Y0165695D01*
X0255365Y0160695D01*
X0254975Y0160305D01*
X0254233Y0160305D01*
X0253289Y0159914D01*
X0252567Y0159191D01*
X0252176Y0158247D01*
X0252176Y0151713D01*
X0252567Y0150769D01*
X0253289Y0150047D01*
X0254233Y0149656D01*
X0260767Y0149656D01*
X0261711Y0150047D01*
X0262433Y0150769D01*
X0262824Y0151713D01*
X0262824Y0157495D01*
X0264061Y0158731D01*
X0268704Y0158731D01*
X0270249Y0157186D01*
X0270550Y0157061D01*
X0270152Y0156771D01*
X0269529Y0156148D01*
X0269010Y0155435D01*
X0268610Y0154650D01*
X0268338Y0153811D01*
X0268209Y0153000D01*
X0277000Y0153000D01*
X0277000Y0152000D01*
X0278000Y0152000D01*
X0278000Y0146900D01*
X0281641Y0146900D01*
X0282511Y0147038D01*
X0283350Y0147310D01*
X0284135Y0147710D01*
X0284848Y0148229D01*
X0285471Y0148852D01*
X0285990Y0149565D01*
X0286132Y0149845D01*
X0286132Y0051433D01*
X0284751Y0052814D01*
X0282447Y0053768D01*
X0272553Y0053768D01*
X0272500Y0053746D01*
X0272447Y0053768D01*
X0269418Y0053768D01*
X0269418Y0053926D01*
X0270256Y0054273D01*
X0270979Y0054996D01*
X0271250Y0055651D01*
X0271521Y0054996D01*
X0272244Y0054273D01*
X0273188Y0053882D01*
X0280509Y0053882D01*
X0281453Y0054273D01*
X0282175Y0054996D01*
X0282567Y0055940D01*
X0282567Y0064060D01*
X0282175Y0065004D01*
X0281453Y0065727D01*
X0280509Y0066118D01*
X0280017Y0066118D01*
X0280017Y0068793D01*
X0280118Y0069036D01*
X0280118Y0075964D01*
X0279727Y0076908D01*
X0279004Y0077630D01*
X0278060Y0078021D01*
X0277876Y0078021D01*
X0278093Y0078347D01*
X0278356Y0078982D01*
X0278491Y0079656D01*
X0278491Y0080000D01*
X0278491Y0080344D01*
X0278404Y0080778D01*
X0282243Y0080778D01*
X0283187Y0081169D01*
X0283910Y0081892D01*
X0284301Y0082836D01*
X0284301Y0091731D01*
X0283910Y0092675D01*
X0283187Y0093398D01*
X0282243Y0093789D01*
X0281318Y0093789D01*
X0281318Y0116211D01*
X0282243Y0116211D01*
X0283187Y0116602D01*
X0283910Y0117325D01*
X0284301Y0118269D01*
X0284301Y0127164D01*
X0283910Y0128108D01*
X0283187Y0128831D01*
X0282243Y0129222D01*
X0271379Y0129222D01*
X0271268Y0129176D01*
X0271268Y0135750D01*
X0270695Y0137135D01*
X0269635Y0138195D01*
X0264635Y0143195D01*
X0263250Y0143768D01*
X0262625Y0143768D01*
X0262433Y0144231D01*
X0261711Y0144953D01*
X0260767Y0145344D01*
X0254233Y0145344D01*
X0253289Y0144953D01*
X0252567Y0144231D01*
X0252375Y0143768D01*
X0251375Y0143768D01*
X0251183Y0144231D01*
X0250461Y0144953D01*
X0249517Y0145344D01*
X0242983Y0145344D01*
X0242039Y0144953D01*
X0241317Y0144231D01*
X0240926Y0143286D01*
X0240926Y0136753D01*
X0241317Y0135809D01*
X0242039Y0135086D01*
X0242983Y0134695D01*
X0249517Y0134695D01*
X0250461Y0135086D01*
X0251183Y0135809D01*
X0251358Y0136231D01*
X0252392Y0136231D01*
X0252567Y0135809D01*
X0253289Y0135086D01*
X0254233Y0134695D01*
X0260767Y0134695D01*
X0261711Y0135086D01*
X0261898Y0135273D01*
X0263731Y0133439D01*
X0263731Y0126318D01*
X0262647Y0126318D01*
X0262647Y0127164D01*
X0262256Y0128108D01*
X0261534Y0128831D01*
X0260590Y0129222D01*
X0249725Y0129222D01*
X0248781Y0128831D01*
X0248059Y0128108D01*
X0247668Y0127164D01*
X0247668Y0118269D01*
X0248059Y0117325D01*
X0248781Y0116602D01*
X0249725Y0116211D01*
X0251181Y0115057D02*
X0164025Y0115057D01*
X0164025Y0113859D02*
X0249164Y0113859D01*
X0248370Y0112660D02*
X0227682Y0112660D01*
X0228661Y0111462D02*
X0248336Y0111462D01*
X0248336Y0111299D02*
X0248769Y0111299D01*
X0248336Y0111299D01*
X0248769Y0111299D02*
X0248769Y0111299D01*
X0247924Y0110263D02*
X0234109Y0110263D01*
X0235416Y0109065D02*
X0247668Y0109065D01*
X0240000Y0111299D02*
X0240000Y0122500D01*
X0243491Y0122500D01*
X0243491Y0122844D01*
X0243356Y0123518D01*
X0243093Y0124153D01*
X0242711Y0124725D01*
X0242225Y0125211D01*
X0241653Y0125593D01*
X0241018Y0125856D01*
X0240344Y0125991D01*
X0240000Y0125991D01*
X0239656Y0125991D01*
X0238982Y0125856D01*
X0238347Y0125593D01*
X0237775Y0125211D01*
X0237289Y0124725D01*
X0236907Y0124153D01*
X0236644Y0123518D01*
X0236509Y0122844D01*
X0236509Y0122500D01*
X0236509Y0122156D01*
X0236644Y0121482D01*
X0236907Y0120847D01*
X0237289Y0120275D01*
X0237775Y0119789D01*
X0238347Y0119407D01*
X0238982Y0119144D01*
X0239656Y0119009D01*
X0240000Y0119009D01*
X0240344Y0119009D01*
X0241018Y0119144D01*
X0241653Y0119407D01*
X0242225Y0119789D01*
X0242711Y0120275D01*
X0243093Y0120847D01*
X0243356Y0121482D01*
X0243491Y0122156D01*
X0243491Y0122500D01*
X0240000Y0122500D01*
X0240000Y0122500D01*
X0240000Y0122500D01*
X0240000Y0125991D01*
X0240000Y0122500D01*
X0240000Y0119009D01*
X0240000Y0122500D01*
X0240000Y0122500D01*
X0240000Y0122500D01*
X0236509Y0122500D01*
X0240000Y0122500D01*
X0240000Y0122248D02*
X0240000Y0122248D01*
X0240000Y0121050D02*
X0240000Y0121050D01*
X0240000Y0119851D02*
X0240000Y0119851D01*
X0242288Y0119851D02*
X0247668Y0119851D01*
X0247668Y0118653D02*
X0166209Y0118653D01*
X0165338Y0117454D02*
X0248005Y0117454D01*
X0247668Y0121050D02*
X0243177Y0121050D01*
X0243491Y0122248D02*
X0247668Y0122248D01*
X0247668Y0123447D02*
X0243371Y0123447D01*
X0242765Y0124645D02*
X0247668Y0124645D01*
X0247668Y0125844D02*
X0241049Y0125844D01*
X0240000Y0125844D02*
X0240000Y0125844D01*
X0238951Y0125844D02*
X0200668Y0125844D01*
X0200668Y0127042D02*
X0247668Y0127042D01*
X0248191Y0128241D02*
X0200668Y0128241D01*
X0200668Y0129439D02*
X0263731Y0129439D01*
X0263731Y0128241D02*
X0262124Y0128241D01*
X0262647Y0127042D02*
X0263731Y0127042D01*
X0263731Y0130638D02*
X0200668Y0130638D01*
X0200668Y0131836D02*
X0223517Y0131836D01*
X0223347Y0131907D02*
X0223982Y0131644D01*
X0224656Y0131509D01*
X0225000Y0131509D01*
X0225344Y0131509D01*
X0226018Y0131644D01*
X0226653Y0131907D01*
X0227225Y0132289D01*
X0227711Y0132775D01*
X0228093Y0133347D01*
X0228356Y0133982D01*
X0228491Y0134656D01*
X0228491Y0135000D01*
X0228491Y0135344D01*
X0228356Y0136018D01*
X0228093Y0136653D01*
X0227711Y0137225D01*
X0227225Y0137711D01*
X0226653Y0138093D01*
X0226018Y0138356D01*
X0225344Y0138491D01*
X0225000Y0138491D01*
X0224656Y0138491D01*
X0223982Y0138356D01*
X0223347Y0138093D01*
X0222775Y0137711D01*
X0222289Y0137225D01*
X0221907Y0136653D01*
X0221644Y0136018D01*
X0221509Y0135344D01*
X0221509Y0135000D01*
X0221509Y0134656D01*
X0221644Y0133982D01*
X0221907Y0133347D01*
X0222289Y0132775D01*
X0222775Y0132289D01*
X0223347Y0131907D01*
X0225000Y0131836D02*
X0225000Y0131836D01*
X0225000Y0131509D02*
X0225000Y0135000D01*
X0228491Y0135000D01*
X0225000Y0135000D01*
X0225000Y0135000D01*
X0225000Y0135000D01*
X0225000Y0138491D01*
X0225000Y0135000D01*
X0225000Y0135000D01*
X0225000Y0135000D01*
X0221509Y0135000D01*
X0225000Y0135000D01*
X0225000Y0131509D01*
X0226483Y0131836D02*
X0263731Y0131836D01*
X0263731Y0133035D02*
X0227885Y0133035D01*
X0228406Y0134233D02*
X0262937Y0134233D01*
X0268802Y0139027D02*
X0274355Y0139027D01*
X0274407Y0139153D02*
X0274144Y0138518D01*
X0274009Y0137844D01*
X0274009Y0137500D01*
X0274009Y0137156D01*
X0274144Y0136482D01*
X0274407Y0135847D01*
X0274789Y0135275D01*
X0275275Y0134789D01*
X0275847Y0134407D01*
X0276482Y0134144D01*
X0277156Y0134009D01*
X0277500Y0134009D01*
X0277844Y0134009D01*
X0278518Y0134144D01*
X0279153Y0134407D01*
X0279725Y0134789D01*
X0280211Y0135275D01*
X0280593Y0135847D01*
X0280856Y0136482D01*
X0280991Y0137156D01*
X0280991Y0137500D01*
X0280991Y0137844D01*
X0280856Y0138518D01*
X0280593Y0139153D01*
X0280211Y0139725D01*
X0279725Y0140211D01*
X0279153Y0140593D01*
X0278518Y0140856D01*
X0277844Y0140991D01*
X0277500Y0140991D01*
X0277156Y0140991D01*
X0276482Y0140856D01*
X0275847Y0140593D01*
X0275275Y0140211D01*
X0274789Y0139725D01*
X0274407Y0139153D01*
X0274009Y0137829D02*
X0270001Y0137829D01*
X0270904Y0136630D02*
X0274114Y0136630D01*
X0274009Y0137500D02*
X0277500Y0137500D01*
X0280991Y0137500D01*
X0277500Y0137500D01*
X0277500Y0137500D01*
X0277500Y0137500D01*
X0277500Y0140991D01*
X0277500Y0137500D01*
X0277500Y0134009D01*
X0277500Y0137500D01*
X0277500Y0137500D01*
X0277500Y0137500D01*
X0274009Y0137500D01*
X0274684Y0135432D02*
X0271268Y0135432D01*
X0271268Y0134233D02*
X0276265Y0134233D01*
X0277500Y0134233D02*
X0277500Y0134233D01*
X0277500Y0135432D02*
X0277500Y0135432D01*
X0277500Y0136630D02*
X0277500Y0136630D01*
X0277500Y0137829D02*
X0277500Y0137829D01*
X0277500Y0139027D02*
X0277500Y0139027D01*
X0277500Y0140226D02*
X0277500Y0140226D01*
X0275297Y0140226D02*
X0267604Y0140226D01*
X0266405Y0141424D02*
X0286132Y0141424D01*
X0286132Y0140226D02*
X0279703Y0140226D01*
X0280645Y0139027D02*
X0286132Y0139027D01*
X0286132Y0137829D02*
X0280991Y0137829D01*
X0280886Y0136630D02*
X0286132Y0136630D01*
X0286132Y0135432D02*
X0280316Y0135432D01*
X0278735Y0134233D02*
X0286132Y0134233D01*
X0286132Y0133035D02*
X0271268Y0133035D01*
X0271268Y0131836D02*
X0286132Y0131836D01*
X0286132Y0130638D02*
X0271268Y0130638D01*
X0271268Y0129439D02*
X0286132Y0129439D01*
X0286132Y0128241D02*
X0283778Y0128241D01*
X0284301Y0127042D02*
X0286132Y0127042D01*
X0286132Y0125844D02*
X0284301Y0125844D01*
X0284301Y0124645D02*
X0286132Y0124645D01*
X0286132Y0123447D02*
X0284301Y0123447D01*
X0284301Y0122248D02*
X0286132Y0122248D01*
X0286132Y0121050D02*
X0284301Y0121050D01*
X0284301Y0119851D02*
X0286132Y0119851D01*
X0286132Y0118653D02*
X0284301Y0118653D01*
X0283963Y0117454D02*
X0286132Y0117454D01*
X0286132Y0116256D02*
X0282351Y0116256D01*
X0281318Y0115057D02*
X0286132Y0115057D01*
X0286132Y0113859D02*
X0281318Y0113859D01*
X0281318Y0112660D02*
X0286132Y0112660D01*
X0286132Y0111462D02*
X0281318Y0111462D01*
X0281318Y0110263D02*
X0286132Y0110263D01*
X0286132Y0109065D02*
X0281318Y0109065D01*
X0281318Y0107866D02*
X0286132Y0107866D01*
X0286132Y0106668D02*
X0281318Y0106668D01*
X0281318Y0105469D02*
X0286132Y0105469D01*
X0286132Y0104270D02*
X0281318Y0104270D01*
X0281318Y0103072D02*
X0286132Y0103072D01*
X0286132Y0101873D02*
X0281318Y0101873D01*
X0281318Y0100675D02*
X0286132Y0100675D01*
X0286132Y0099476D02*
X0281318Y0099476D01*
X0281318Y0098278D02*
X0286132Y0098278D01*
X0286132Y0097079D02*
X0281318Y0097079D01*
X0281318Y0095881D02*
X0286132Y0095881D01*
X0286132Y0094682D02*
X0281318Y0094682D01*
X0282980Y0093484D02*
X0286132Y0093484D01*
X0286132Y0092285D02*
X0284071Y0092285D01*
X0284301Y0091087D02*
X0286132Y0091087D01*
X0286132Y0089888D02*
X0284301Y0089888D01*
X0284301Y0088690D02*
X0286132Y0088690D01*
X0286132Y0087491D02*
X0284301Y0087491D01*
X0284301Y0086293D02*
X0286132Y0086293D01*
X0286132Y0085094D02*
X0284301Y0085094D01*
X0284301Y0083896D02*
X0286132Y0083896D01*
X0286132Y0082697D02*
X0284244Y0082697D01*
X0283517Y0081499D02*
X0286132Y0081499D01*
X0286132Y0080300D02*
X0278491Y0080300D01*
X0278491Y0080000D02*
X0275000Y0080000D01*
X0275000Y0080000D01*
X0275000Y0080000D01*
X0271509Y0080000D01*
X0271509Y0079656D01*
X0271644Y0078982D01*
X0271907Y0078347D01*
X0272124Y0078021D01*
X0271920Y0078021D01*
X0270976Y0077630D01*
X0270618Y0077273D01*
X0270319Y0077353D01*
X0268110Y0077353D01*
X0268110Y0073100D01*
X0266910Y0073100D01*
X0266910Y0077353D01*
X0265182Y0077353D01*
X0265695Y0077865D01*
X0269717Y0081887D01*
X0270435Y0081169D01*
X0271379Y0080778D01*
X0271596Y0080778D01*
X0271509Y0080344D01*
X0271509Y0080000D01*
X0275000Y0080000D01*
X0278491Y0080000D01*
X0278380Y0079102D02*
X0286132Y0079102D01*
X0286132Y0077903D02*
X0278345Y0077903D01*
X0279811Y0076705D02*
X0286132Y0076705D01*
X0286132Y0075506D02*
X0280118Y0075506D01*
X0280118Y0074308D02*
X0286132Y0074308D01*
X0286132Y0073109D02*
X0280118Y0073109D01*
X0280118Y0071911D02*
X0286132Y0071911D01*
X0286132Y0070712D02*
X0280118Y0070712D01*
X0280118Y0069514D02*
X0286132Y0069514D01*
X0286132Y0068315D02*
X0280017Y0068315D01*
X0280017Y0067117D02*
X0286132Y0067117D01*
X0286132Y0065918D02*
X0280991Y0065918D01*
X0282293Y0064720D02*
X0286132Y0064720D01*
X0286132Y0063521D02*
X0282567Y0063521D01*
X0282567Y0062323D02*
X0286132Y0062323D01*
X0286132Y0061124D02*
X0282567Y0061124D01*
X0282567Y0059926D02*
X0286132Y0059926D01*
X0286132Y0058727D02*
X0282567Y0058727D01*
X0282567Y0057529D02*
X0286132Y0057529D01*
X0286132Y0056330D02*
X0282567Y0056330D01*
X0282232Y0055132D02*
X0286132Y0055132D01*
X0286132Y0053933D02*
X0280631Y0053933D01*
X0284830Y0052734D02*
X0286132Y0052734D01*
X0286132Y0051536D02*
X0286029Y0051536D01*
X0276848Y0060000D02*
X0276848Y0072500D01*
X0274990Y0072500D01*
X0273680Y0066979D02*
X0271920Y0066979D01*
X0270976Y0067370D01*
X0270618Y0067727D01*
X0270319Y0067647D01*
X0268110Y0067647D01*
X0268110Y0071900D01*
X0266910Y0071900D01*
X0266910Y0067647D01*
X0264701Y0067647D01*
X0264217Y0067777D01*
X0263784Y0068027D01*
X0263430Y0068381D01*
X0263180Y0068814D01*
X0263051Y0069297D01*
X0263051Y0071900D01*
X0266910Y0071900D01*
X0266910Y0073100D01*
X0263051Y0073100D01*
X0263051Y0075703D01*
X0263180Y0076186D01*
X0263206Y0076231D01*
X0260758Y0076231D01*
X0260758Y0073100D01*
X0256506Y0073100D01*
X0256506Y0071900D01*
X0260758Y0071900D01*
X0260758Y0068313D01*
X0260629Y0067830D01*
X0260379Y0067396D01*
X0260025Y0067043D01*
X0259592Y0066792D01*
X0259108Y0066663D01*
X0256505Y0066663D01*
X0256505Y0071900D01*
X0255306Y0071900D01*
X0255306Y0066663D01*
X0255068Y0066663D01*
X0255068Y0065837D01*
X0255306Y0065837D01*
X0255306Y0060600D01*
X0256505Y0060600D01*
X0256505Y0065837D01*
X0259108Y0065837D01*
X0259592Y0065708D01*
X0260025Y0065457D01*
X0260379Y0065104D01*
X0260395Y0065075D01*
X0261047Y0065727D01*
X0261991Y0066118D01*
X0269312Y0066118D01*
X0270256Y0065727D01*
X0270979Y0065004D01*
X0271250Y0064349D01*
X0271521Y0065004D01*
X0272244Y0065727D01*
X0273188Y0066118D01*
X0273680Y0066118D01*
X0273680Y0066979D01*
X0272706Y0065918D02*
X0269794Y0065918D01*
X0271097Y0064720D02*
X0271403Y0064720D01*
X0271587Y0067117D02*
X0260099Y0067117D01*
X0260758Y0068315D02*
X0263496Y0068315D01*
X0263051Y0069514D02*
X0260758Y0069514D01*
X0260758Y0070712D02*
X0263051Y0070712D01*
X0263051Y0073109D02*
X0260758Y0073109D01*
X0260758Y0074308D02*
X0263051Y0074308D01*
X0263051Y0075506D02*
X0260758Y0075506D01*
X0265733Y0077903D02*
X0271635Y0077903D01*
X0271620Y0079102D02*
X0266931Y0079102D01*
X0268130Y0080300D02*
X0271509Y0080300D01*
X0270105Y0081499D02*
X0269328Y0081499D01*
X0268110Y0076705D02*
X0266910Y0076705D01*
X0266910Y0075506D02*
X0268110Y0075506D01*
X0268110Y0074308D02*
X0266910Y0074308D01*
X0266910Y0073109D02*
X0268110Y0073109D01*
X0266910Y0071911D02*
X0256506Y0071911D01*
X0256505Y0070712D02*
X0255306Y0070712D01*
X0255306Y0069514D02*
X0256505Y0069514D01*
X0256505Y0068315D02*
X0255306Y0068315D01*
X0255306Y0067117D02*
X0256505Y0067117D01*
X0255068Y0065918D02*
X0261509Y0065918D01*
X0256505Y0064720D02*
X0255306Y0064720D01*
X0255306Y0063521D02*
X0256505Y0063521D01*
X0256505Y0062323D02*
X0255306Y0062323D01*
X0255306Y0061124D02*
X0256505Y0061124D01*
X0256505Y0059400D02*
X0256505Y0054163D01*
X0259108Y0054163D01*
X0259592Y0054292D01*
X0260025Y0054543D01*
X0260379Y0054896D01*
X0260395Y0054925D01*
X0261047Y0054273D01*
X0261991Y0053882D01*
X0263081Y0053882D01*
X0263081Y0053768D01*
X0262553Y0053768D01*
X0254770Y0053768D01*
X0254933Y0054163D01*
X0255306Y0054163D01*
X0255306Y0059400D01*
X0256505Y0059400D01*
X0256505Y0058727D02*
X0255306Y0058727D01*
X0255306Y0057529D02*
X0256505Y0057529D01*
X0256505Y0056330D02*
X0255306Y0056330D01*
X0255306Y0055132D02*
X0256505Y0055132D01*
X0254838Y0053933D02*
X0261869Y0053933D01*
X0266250Y0050000D02*
X0266250Y0060000D01*
X0265652Y0060000D01*
X0271035Y0055132D02*
X0271465Y0055132D01*
X0273065Y0053933D02*
X0269435Y0053933D01*
X0257825Y0045543D02*
X0137891Y0045543D01*
X0137711Y0045275D02*
X0138093Y0045847D01*
X0138356Y0046482D01*
X0138491Y0047156D01*
X0138491Y0047500D01*
X0138491Y0047844D01*
X0138356Y0048518D01*
X0138093Y0049153D01*
X0137711Y0049725D01*
X0137225Y0050211D01*
X0136653Y0050593D01*
X0136018Y0050856D01*
X0135344Y0050991D01*
X0135000Y0050991D01*
X0134656Y0050991D01*
X0133982Y0050856D01*
X0133347Y0050593D01*
X0132775Y0050211D01*
X0132289Y0049725D01*
X0131907Y0049153D01*
X0131644Y0048518D01*
X0131509Y0047844D01*
X0131509Y0047500D01*
X0131509Y0047156D01*
X0131644Y0046482D01*
X0131907Y0045847D01*
X0132289Y0045275D01*
X0132775Y0044789D01*
X0133347Y0044407D01*
X0133982Y0044144D01*
X0134656Y0044009D01*
X0135000Y0044009D01*
X0135344Y0044009D01*
X0136018Y0044144D01*
X0136653Y0044407D01*
X0137225Y0044789D01*
X0137711Y0045275D01*
X0136504Y0044345D02*
X0258322Y0044345D01*
X0259289Y0043146D02*
X0130085Y0043146D01*
X0130699Y0044345D02*
X0133496Y0044345D01*
X0135000Y0044345D02*
X0135000Y0044345D01*
X0135000Y0044009D02*
X0135000Y0047500D01*
X0138491Y0047500D01*
X0135000Y0047500D01*
X0135000Y0047500D01*
X0135000Y0047500D01*
X0135000Y0050991D01*
X0135000Y0047500D01*
X0135000Y0047500D01*
X0135000Y0047500D01*
X0131509Y0047500D01*
X0135000Y0047500D01*
X0135000Y0044009D01*
X0135000Y0045543D02*
X0135000Y0045543D01*
X0135000Y0046742D02*
X0135000Y0046742D01*
X0135000Y0047940D02*
X0135000Y0047940D01*
X0135000Y0049139D02*
X0135000Y0049139D01*
X0135000Y0050337D02*
X0135000Y0050337D01*
X0132964Y0050337D02*
X0130699Y0050337D01*
X0130699Y0050703D02*
X0130570Y0051186D01*
X0130320Y0051619D01*
X0129966Y0051973D01*
X0129533Y0052223D01*
X0129049Y0052353D01*
X0126840Y0052353D01*
X0126840Y0048100D01*
X0130699Y0048100D01*
X0130699Y0050703D01*
X0130368Y0051536D02*
X0163731Y0051536D01*
X0163731Y0052734D02*
X0122522Y0052734D01*
X0125640Y0051536D02*
X0126840Y0051536D01*
X0126840Y0050337D02*
X0125640Y0050337D01*
X0125640Y0049139D02*
X0126840Y0049139D01*
X0126840Y0047940D02*
X0131529Y0047940D01*
X0131592Y0046742D02*
X0130699Y0046742D01*
X0130699Y0045543D02*
X0132109Y0045543D01*
X0131901Y0049139D02*
X0130699Y0049139D01*
X0126840Y0046742D02*
X0125640Y0046742D01*
X0125640Y0045543D02*
X0126840Y0045543D01*
X0126840Y0044345D02*
X0125640Y0044345D01*
X0125640Y0043146D02*
X0126840Y0043146D01*
X0126063Y0037500D02*
X0130000Y0033563D01*
X0130000Y0022500D01*
X0122500Y0015000D01*
X0128268Y0015581D02*
X0258535Y0015581D01*
X0258244Y0016779D02*
X0128760Y0016779D01*
X0128268Y0014382D02*
X0259143Y0014382D01*
X0260214Y0013184D02*
X0128268Y0013184D01*
X0127643Y0011985D02*
X0262822Y0011985D01*
X0277000Y0015581D02*
X0278000Y0015581D01*
X0278000Y0016779D02*
X0277000Y0016779D01*
X0252601Y0029963D02*
X0133168Y0029963D01*
X0133168Y0031161D02*
X0251776Y0031161D01*
X0251509Y0032360D02*
X0133168Y0032360D01*
X0133168Y0033558D02*
X0251660Y0033558D01*
X0252320Y0034757D02*
X0132935Y0034757D01*
X0132089Y0035955D02*
X0254479Y0035955D01*
X0258361Y0040749D02*
X0112590Y0040749D01*
X0111391Y0041948D02*
X0259383Y0041948D01*
X0239969Y0053768D02*
X0171268Y0053768D01*
X0171268Y0075750D01*
X0170695Y0077135D01*
X0169635Y0078195D01*
X0168250Y0078768D01*
X0129720Y0078768D01*
X0129872Y0079135D01*
X0129872Y0094784D01*
X0188688Y0094784D01*
X0195267Y0088205D01*
X0195903Y0087568D01*
X0189804Y0087568D01*
X0188860Y0087177D01*
X0188137Y0086455D01*
X0187746Y0085511D01*
X0187746Y0066989D01*
X0188137Y0066045D01*
X0188860Y0065323D01*
X0189804Y0064931D01*
X0213124Y0064931D01*
X0213124Y0062388D01*
X0216411Y0062388D01*
X0216411Y0062013D01*
X0216786Y0062013D01*
X0216786Y0057545D01*
X0218423Y0057545D01*
X0218907Y0057674D01*
X0219016Y0057737D01*
X0219470Y0057283D01*
X0220414Y0056892D01*
X0224586Y0056892D01*
X0225432Y0057243D01*
X0226111Y0056961D01*
X0226267Y0056805D01*
X0227652Y0056231D01*
X0238573Y0056231D01*
X0238573Y0055552D01*
X0238964Y0054608D01*
X0239687Y0053886D01*
X0239969Y0053768D01*
X0239639Y0053933D02*
X0171268Y0053933D01*
X0171268Y0055132D02*
X0204932Y0055132D01*
X0204789Y0055275D02*
X0205275Y0054789D01*
X0205847Y0054407D01*
X0206482Y0054144D01*
X0207156Y0054009D01*
X0207500Y0054009D01*
X0207844Y0054009D01*
X0208518Y0054144D01*
X0209153Y0054407D01*
X0209725Y0054789D01*
X0210211Y0055275D01*
X0210593Y0055847D01*
X0210856Y0056482D01*
X0210991Y0057156D01*
X0210991Y0057500D01*
X0210991Y0057844D01*
X0210856Y0058518D01*
X0210593Y0059153D01*
X0210211Y0059725D01*
X0209725Y0060211D01*
X0209153Y0060593D01*
X0208518Y0060856D01*
X0207844Y0060991D01*
X0207500Y0060991D01*
X0207156Y0060991D01*
X0206482Y0060856D01*
X0205847Y0060593D01*
X0205275Y0060211D01*
X0204789Y0059725D01*
X0204407Y0059153D01*
X0204144Y0058518D01*
X0204009Y0057844D01*
X0204009Y0057500D01*
X0204009Y0057156D01*
X0204144Y0056482D01*
X0204407Y0055847D01*
X0204789Y0055275D01*
X0204206Y0056330D02*
X0171268Y0056330D01*
X0171268Y0057529D02*
X0204009Y0057529D01*
X0204009Y0057500D02*
X0207500Y0057500D01*
X0210991Y0057500D01*
X0207500Y0057500D01*
X0207500Y0057500D01*
X0207500Y0057500D01*
X0207500Y0060991D01*
X0207500Y0057500D01*
X0207500Y0054009D01*
X0207500Y0057500D01*
X0207500Y0057500D01*
X0207500Y0057500D01*
X0204009Y0057500D01*
X0204230Y0058727D02*
X0171268Y0058727D01*
X0171268Y0059926D02*
X0204989Y0059926D01*
X0207500Y0059926D02*
X0207500Y0059926D01*
X0207500Y0058727D02*
X0207500Y0058727D01*
X0207500Y0057529D02*
X0207500Y0057529D01*
X0207500Y0056330D02*
X0207500Y0056330D01*
X0207500Y0055132D02*
X0207500Y0055132D01*
X0210068Y0055132D02*
X0238747Y0055132D01*
X0227414Y0056330D02*
X0210794Y0056330D01*
X0210991Y0057529D02*
X0219225Y0057529D01*
X0216786Y0058727D02*
X0216411Y0058727D01*
X0216411Y0057545D02*
X0216411Y0062013D01*
X0213124Y0062013D01*
X0213124Y0059195D01*
X0213253Y0058712D01*
X0213503Y0058278D01*
X0213857Y0057924D01*
X0214290Y0057674D01*
X0214773Y0057545D01*
X0216411Y0057545D01*
X0216411Y0059926D02*
X0216786Y0059926D01*
X0216786Y0061124D02*
X0216411Y0061124D01*
X0216411Y0062323D02*
X0171268Y0062323D01*
X0171268Y0063521D02*
X0213124Y0063521D01*
X0213124Y0064720D02*
X0171268Y0064720D01*
X0171268Y0065918D02*
X0188264Y0065918D01*
X0187746Y0067117D02*
X0171268Y0067117D01*
X0171268Y0068315D02*
X0187746Y0068315D01*
X0187746Y0069514D02*
X0171268Y0069514D01*
X0171268Y0070712D02*
X0187746Y0070712D01*
X0187746Y0071911D02*
X0171268Y0071911D01*
X0171268Y0073109D02*
X0187746Y0073109D01*
X0187746Y0074308D02*
X0171268Y0074308D01*
X0171268Y0075506D02*
X0187746Y0075506D01*
X0187746Y0076705D02*
X0170873Y0076705D01*
X0169926Y0077903D02*
X0187746Y0077903D01*
X0187746Y0079102D02*
X0129858Y0079102D01*
X0129872Y0080300D02*
X0187746Y0080300D01*
X0187746Y0081499D02*
X0129872Y0081499D01*
X0129872Y0082697D02*
X0187746Y0082697D01*
X0187746Y0083896D02*
X0129872Y0083896D01*
X0129872Y0085094D02*
X0187746Y0085094D01*
X0188070Y0086293D02*
X0129872Y0086293D01*
X0129872Y0087491D02*
X0189618Y0087491D01*
X0192385Y0091087D02*
X0129872Y0091087D01*
X0129872Y0092285D02*
X0191186Y0092285D01*
X0189988Y0093484D02*
X0129872Y0093484D01*
X0129872Y0094682D02*
X0188789Y0094682D01*
X0190000Y0097953D02*
X0197953Y0090000D01*
X0232500Y0090000D01*
X0237500Y0095000D01*
X0237500Y0098701D01*
X0236437Y0101850D02*
X0232500Y0097913D01*
X0232500Y0097500D01*
X0223740Y0097500D01*
X0216260Y0097500D02*
X0208937Y0097500D01*
X0207500Y0099136D01*
X0204746Y0101890D01*
X0124941Y0101890D01*
X0124941Y0103858D02*
X0203858Y0103858D01*
X0207500Y0107500D01*
X0216260Y0107500D01*
X0211339Y0111462D02*
X0164025Y0111462D01*
X0164025Y0112660D02*
X0212318Y0112660D01*
X0205891Y0110263D02*
X0164025Y0110263D01*
X0163996Y0109065D02*
X0204584Y0109065D01*
X0203385Y0107866D02*
X0163439Y0107866D01*
X0149662Y0117454D02*
X0145896Y0117454D01*
X0145828Y0118653D02*
X0148791Y0118653D01*
X0148632Y0125844D02*
X0145609Y0125844D01*
X0145896Y0127042D02*
X0149158Y0127042D01*
X0150000Y0128241D02*
X0150000Y0128241D01*
X0150000Y0129439D02*
X0150000Y0129439D01*
X0150000Y0130638D02*
X0150000Y0130638D01*
X0150000Y0131836D02*
X0150000Y0131836D01*
X0148221Y0128241D02*
X0145896Y0128241D01*
X0133563Y0130000D02*
X0128750Y0130000D01*
X0128750Y0122500D01*
X0117264Y0117441D02*
X0117264Y0133563D01*
X0122451Y0138750D01*
X0187313Y0138750D01*
X0190000Y0141437D01*
X0190000Y0153563D01*
X0193937Y0157500D01*
X0197500Y0157500D01*
X0201657Y0159402D02*
X0209231Y0159402D01*
X0209231Y0159889D02*
X0209231Y0155111D01*
X0211842Y0152500D01*
X0209231Y0149889D01*
X0209231Y0145111D01*
X0212611Y0141731D01*
X0217389Y0141731D01*
X0220000Y0144342D01*
X0222611Y0141731D01*
X0227389Y0141731D01*
X0230768Y0145111D01*
X0230768Y0149889D01*
X0227685Y0152973D01*
X0230100Y0155388D01*
X0230100Y0157100D01*
X0225400Y0157100D01*
X0225400Y0157900D01*
X0230100Y0157900D01*
X0230100Y0159612D01*
X0227212Y0162500D01*
X0230100Y0165388D01*
X0230100Y0167100D01*
X0225400Y0167100D01*
X0225400Y0167900D01*
X0230100Y0167900D01*
X0230100Y0169612D01*
X0227685Y0172027D01*
X0230768Y0175111D01*
X0230768Y0179889D01*
X0227389Y0183268D01*
X0222611Y0183268D01*
X0220000Y0180658D01*
X0217389Y0183268D01*
X0212611Y0183268D01*
X0209231Y0179889D01*
X0209231Y0175111D01*
X0211842Y0172500D01*
X0209231Y0169889D01*
X0209231Y0165111D01*
X0211842Y0162500D01*
X0209231Y0159889D01*
X0209943Y0160601D02*
X0200860Y0160601D01*
X0199059Y0161799D02*
X0211141Y0161799D01*
X0211345Y0162998D02*
X0193168Y0162998D01*
X0193168Y0164196D02*
X0210146Y0164196D01*
X0209231Y0165395D02*
X0193168Y0165395D01*
X0193168Y0166593D02*
X0209231Y0166593D01*
X0209231Y0167792D02*
X0193168Y0167792D01*
X0193168Y0168990D02*
X0209231Y0168990D01*
X0209531Y0170189D02*
X0193168Y0170189D01*
X0193168Y0171387D02*
X0210729Y0171387D01*
X0211756Y0172586D02*
X0193168Y0172586D01*
X0193168Y0173784D02*
X0210558Y0173784D01*
X0209359Y0174983D02*
X0193168Y0174983D01*
X0193168Y0176181D02*
X0209231Y0176181D01*
X0209231Y0177380D02*
X0193168Y0177380D01*
X0193168Y0178578D02*
X0209231Y0178578D01*
X0209231Y0179777D02*
X0193168Y0179777D01*
X0193168Y0180975D02*
X0210317Y0180975D01*
X0211516Y0182174D02*
X0193168Y0182174D01*
X0193168Y0183372D02*
X0286132Y0183372D01*
X0286132Y0182174D02*
X0228484Y0182174D01*
X0229683Y0180975D02*
X0243264Y0180975D01*
X0243662Y0181373D02*
X0242377Y0180088D01*
X0241681Y0178409D01*
X0241681Y0176591D01*
X0242377Y0174912D01*
X0242481Y0174808D01*
X0242481Y0160097D01*
X0242039Y0159914D01*
X0241317Y0159191D01*
X0240926Y0158247D01*
X0240926Y0151713D01*
X0241317Y0150769D01*
X0242039Y0150047D01*
X0242983Y0149656D01*
X0249517Y0149656D01*
X0250461Y0150047D01*
X0251183Y0150769D01*
X0251574Y0151713D01*
X0251574Y0158247D01*
X0251183Y0159191D01*
X0250461Y0159914D01*
X0250018Y0160097D01*
X0250018Y0174808D01*
X0250123Y0174912D01*
X0250818Y0176591D01*
X0250818Y0178409D01*
X0250123Y0180088D01*
X0248838Y0181373D01*
X0247159Y0182068D01*
X0245341Y0182068D01*
X0243662Y0181373D01*
X0242248Y0179777D02*
X0230768Y0179777D01*
X0230768Y0178578D02*
X0241752Y0178578D01*
X0241681Y0177380D02*
X0230768Y0177380D01*
X0230768Y0176181D02*
X0241851Y0176181D01*
X0242348Y0174983D02*
X0230641Y0174983D01*
X0229442Y0173784D02*
X0242481Y0173784D01*
X0242481Y0172586D02*
X0228244Y0172586D01*
X0228325Y0171387D02*
X0242481Y0171387D01*
X0242481Y0170189D02*
X0229524Y0170189D01*
X0230100Y0168990D02*
X0242481Y0168990D01*
X0242481Y0167792D02*
X0225400Y0167792D01*
X0225400Y0167100D02*
X0225400Y0162400D01*
X0225400Y0157900D01*
X0224600Y0157900D01*
X0224600Y0167100D01*
X0225400Y0167100D01*
X0225400Y0166593D02*
X0224600Y0166593D01*
X0224600Y0165395D02*
X0225400Y0165395D01*
X0225400Y0164196D02*
X0224600Y0164196D01*
X0224600Y0162998D02*
X0225400Y0162998D01*
X0225400Y0161799D02*
X0224600Y0161799D01*
X0224600Y0160601D02*
X0225400Y0160601D01*
X0225400Y0159402D02*
X0224600Y0159402D01*
X0224600Y0158203D02*
X0225400Y0158203D01*
X0227913Y0161799D02*
X0234080Y0161799D01*
X0234144Y0161482D02*
X0234407Y0160847D01*
X0234789Y0160275D01*
X0235275Y0159789D01*
X0235847Y0159407D01*
X0236482Y0159144D01*
X0237156Y0159009D01*
X0237500Y0159009D01*
X0237844Y0159009D01*
X0238518Y0159144D01*
X0239153Y0159407D01*
X0239725Y0159789D01*
X0240211Y0160275D01*
X0240593Y0160847D01*
X0240856Y0161482D01*
X0240991Y0162156D01*
X0240991Y0162500D01*
X0240991Y0162844D01*
X0240856Y0163518D01*
X0240593Y0164153D01*
X0240211Y0164725D01*
X0239725Y0165211D01*
X0239153Y0165593D01*
X0238518Y0165856D01*
X0237844Y0165991D01*
X0237500Y0165991D01*
X0237156Y0165991D01*
X0236482Y0165856D01*
X0235847Y0165593D01*
X0235275Y0165211D01*
X0234789Y0164725D01*
X0234407Y0164153D01*
X0234144Y0163518D01*
X0234009Y0162844D01*
X0234009Y0162500D01*
X0234009Y0162156D01*
X0234144Y0161482D01*
X0234571Y0160601D02*
X0229112Y0160601D01*
X0230100Y0159402D02*
X0235858Y0159402D01*
X0237500Y0159402D02*
X0237500Y0159402D01*
X0237500Y0159009D02*
X0237500Y0162500D01*
X0240991Y0162500D01*
X0237500Y0162500D01*
X0237500Y0162500D01*
X0237500Y0162500D01*
X0237500Y0165991D01*
X0237500Y0162500D01*
X0237500Y0162500D01*
X0237500Y0162500D01*
X0234009Y0162500D01*
X0237500Y0162500D01*
X0237500Y0159009D01*
X0237500Y0160601D02*
X0237500Y0160601D01*
X0237500Y0161799D02*
X0237500Y0161799D01*
X0237500Y0162998D02*
X0237500Y0162998D01*
X0237500Y0164196D02*
X0237500Y0164196D01*
X0237500Y0165395D02*
X0237500Y0165395D01*
X0239451Y0165395D02*
X0242481Y0165395D01*
X0242481Y0166593D02*
X0230100Y0166593D01*
X0230100Y0165395D02*
X0235549Y0165395D01*
X0234435Y0164196D02*
X0228909Y0164196D01*
X0227710Y0162998D02*
X0234040Y0162998D01*
X0230100Y0158203D02*
X0240926Y0158203D01*
X0240926Y0157005D02*
X0230100Y0157005D01*
X0230100Y0155806D02*
X0240926Y0155806D01*
X0240926Y0154608D02*
X0229320Y0154608D01*
X0228122Y0153409D02*
X0240926Y0153409D01*
X0240926Y0152211D02*
X0228447Y0152211D01*
X0229645Y0151012D02*
X0241216Y0151012D01*
X0242602Y0149814D02*
X0230768Y0149814D01*
X0230768Y0148615D02*
X0269765Y0148615D01*
X0269529Y0148852D02*
X0270152Y0148229D01*
X0270865Y0147710D01*
X0271650Y0147310D01*
X0272489Y0147038D01*
X0273359Y0146900D01*
X0277000Y0146900D01*
X0277000Y0152000D01*
X0268209Y0152000D01*
X0268338Y0151189D01*
X0268610Y0150350D01*
X0269010Y0149565D01*
X0269529Y0148852D01*
X0268884Y0149814D02*
X0261148Y0149814D01*
X0262534Y0151012D02*
X0268395Y0151012D01*
X0268274Y0153409D02*
X0262824Y0153409D01*
X0262824Y0152211D02*
X0277000Y0152211D01*
X0277000Y0151012D02*
X0278000Y0151012D01*
X0278000Y0149814D02*
X0277000Y0149814D01*
X0277000Y0148615D02*
X0278000Y0148615D01*
X0278000Y0147417D02*
X0277000Y0147417D01*
X0271441Y0147417D02*
X0230768Y0147417D01*
X0230768Y0146218D02*
X0286132Y0146218D01*
X0286132Y0145020D02*
X0261550Y0145020D01*
X0262603Y0143821D02*
X0286132Y0143821D01*
X0286132Y0142623D02*
X0265207Y0142623D01*
X0257500Y0140020D02*
X0257500Y0140000D01*
X0252397Y0143821D02*
X0251353Y0143821D01*
X0250300Y0145020D02*
X0253450Y0145020D01*
X0253852Y0149814D02*
X0249898Y0149814D01*
X0251284Y0151012D02*
X0252466Y0151012D01*
X0252176Y0152211D02*
X0251574Y0152211D01*
X0251574Y0153409D02*
X0252176Y0153409D01*
X0252176Y0154608D02*
X0251574Y0154608D01*
X0251574Y0155806D02*
X0252176Y0155806D01*
X0252176Y0157005D02*
X0251574Y0157005D01*
X0251574Y0158203D02*
X0252176Y0158203D01*
X0252777Y0159402D02*
X0250973Y0159402D01*
X0250018Y0160601D02*
X0255271Y0160601D01*
X0256470Y0161799D02*
X0250018Y0161799D01*
X0250018Y0162998D02*
X0257668Y0162998D01*
X0258867Y0164196D02*
X0250018Y0164196D01*
X0250018Y0165395D02*
X0260065Y0165395D01*
X0263533Y0158203D02*
X0269231Y0158203D01*
X0270473Y0157005D02*
X0262824Y0157005D01*
X0262824Y0155806D02*
X0269280Y0155806D01*
X0268597Y0154608D02*
X0262824Y0154608D01*
X0269028Y0166593D02*
X0250018Y0166593D01*
X0250018Y0167792D02*
X0270227Y0167792D01*
X0284773Y0167792D02*
X0286132Y0167792D01*
X0286132Y0168990D02*
X0250018Y0168990D01*
X0250018Y0170189D02*
X0286132Y0170189D01*
X0286132Y0171387D02*
X0250018Y0171387D01*
X0250018Y0172586D02*
X0286132Y0172586D01*
X0286132Y0173784D02*
X0250018Y0173784D01*
X0250152Y0174983D02*
X0286132Y0174983D01*
X0286132Y0176181D02*
X0250649Y0176181D01*
X0250818Y0177380D02*
X0286132Y0177380D01*
X0286132Y0178578D02*
X0250748Y0178578D01*
X0250252Y0179777D02*
X0286132Y0179777D01*
X0286132Y0180975D02*
X0249236Y0180975D01*
X0253853Y0198190D02*
X0254336Y0198061D01*
X0260403Y0198061D01*
X0260403Y0201643D01*
X0261369Y0201643D01*
X0261369Y0202609D01*
X0269085Y0202609D01*
X0269085Y0204541D01*
X0268956Y0205025D01*
X0268705Y0205458D01*
X0268352Y0205812D01*
X0267918Y0206062D01*
X0267435Y0206191D01*
X0261369Y0206191D01*
X0261369Y0202609D01*
X0260403Y0202609D01*
X0260403Y0206191D01*
X0254336Y0206191D01*
X0253853Y0206062D01*
X0253420Y0205812D01*
X0253066Y0205458D01*
X0252816Y0205025D01*
X0252687Y0204541D01*
X0252687Y0202609D01*
X0260403Y0202609D01*
X0260403Y0201643D01*
X0252687Y0201643D01*
X0252687Y0199710D01*
X0252816Y0199227D01*
X0253066Y0198794D01*
X0253420Y0198440D01*
X0253853Y0198190D01*
X0252974Y0198953D02*
X0242025Y0198953D01*
X0241934Y0198794D02*
X0242184Y0199227D01*
X0242313Y0199710D01*
X0242313Y0201643D01*
X0234597Y0201643D01*
X0234597Y0198061D01*
X0240664Y0198061D01*
X0241147Y0198190D01*
X0241580Y0198440D01*
X0241934Y0198794D01*
X0242313Y0200151D02*
X0252687Y0200151D01*
X0252687Y0201350D02*
X0242313Y0201350D01*
X0242313Y0202609D02*
X0242313Y0204541D01*
X0242184Y0205025D01*
X0241934Y0205458D01*
X0241580Y0205812D01*
X0241147Y0206062D01*
X0240664Y0206191D01*
X0234597Y0206191D01*
X0234597Y0202609D01*
X0233631Y0202609D01*
X0233631Y0201643D01*
X0225915Y0201643D01*
X0225915Y0199710D01*
X0226044Y0199227D01*
X0226295Y0198794D01*
X0226648Y0198440D01*
X0227082Y0198190D01*
X0227565Y0198061D01*
X0233631Y0198061D01*
X0233631Y0201643D01*
X0234597Y0201643D01*
X0234597Y0202609D01*
X0242313Y0202609D01*
X0242313Y0203747D02*
X0252687Y0203747D01*
X0252795Y0204945D02*
X0242205Y0204945D01*
X0240840Y0206144D02*
X0254160Y0206144D01*
X0260403Y0206144D02*
X0261369Y0206144D01*
X0261369Y0204945D02*
X0260403Y0204945D01*
X0260403Y0203747D02*
X0261369Y0203747D01*
X0261369Y0202548D02*
X0286132Y0202548D01*
X0286132Y0201350D02*
X0269085Y0201350D01*
X0269085Y0201643D02*
X0269085Y0199710D01*
X0268956Y0199227D01*
X0268705Y0198794D01*
X0268352Y0198440D01*
X0267918Y0198190D01*
X0267435Y0198061D01*
X0261369Y0198061D01*
X0261369Y0201643D01*
X0269085Y0201643D01*
X0270000Y0202126D02*
X0275000Y0207126D01*
X0275000Y0207500D01*
X0274400Y0207342D02*
X0275600Y0207342D01*
X0275600Y0207963D02*
X0275600Y0204104D01*
X0278400Y0204104D01*
X0278883Y0204233D01*
X0279316Y0204484D01*
X0279670Y0204837D01*
X0279920Y0205271D01*
X0280050Y0205754D01*
X0280050Y0207963D01*
X0275600Y0207963D01*
X0275600Y0208541D02*
X0286132Y0208541D01*
X0286132Y0209739D02*
X0280050Y0209739D01*
X0280050Y0210938D02*
X0286132Y0210938D01*
X0286132Y0212137D02*
X0280041Y0212137D01*
X0280705Y0213335D02*
X0286132Y0213335D01*
X0286132Y0214534D02*
X0280718Y0214534D01*
X0280718Y0215732D02*
X0286132Y0215732D01*
X0286132Y0216931D02*
X0280718Y0216931D01*
X0280718Y0218129D02*
X0286132Y0218129D01*
X0286132Y0219328D02*
X0280718Y0219328D01*
X0280252Y0220526D02*
X0286132Y0220526D01*
X0286132Y0221725D02*
X0269132Y0221725D01*
X0275000Y0217874D02*
X0260886Y0217874D01*
X0234114Y0217874D01*
X0234114Y0222500D01*
X0190000Y0222500D01*
X0185000Y0217500D01*
X0180000Y0212500D01*
X0180000Y0192500D01*
X0175000Y0187500D01*
X0127500Y0187500D01*
X0122500Y0182500D01*
X0122500Y0157500D01*
X0117500Y0152500D01*
X0107421Y0152500D01*
X0103484Y0148563D01*
X0103484Y0117441D01*
X0101516Y0117441D02*
X0101516Y0151063D01*
X0105453Y0155000D01*
X0113750Y0155000D01*
X0118750Y0160000D01*
X0118750Y0187500D01*
X0123750Y0192500D01*
X0146902Y0192500D01*
X0151902Y0197500D01*
X0151902Y0205000D01*
X0146183Y0204945D02*
X0143817Y0204945D01*
X0143817Y0203747D02*
X0146183Y0203747D01*
X0146183Y0202548D02*
X0143817Y0202548D01*
X0143817Y0201350D02*
X0146183Y0201350D01*
X0146510Y0200151D02*
X0143490Y0200151D01*
X0141929Y0198953D02*
X0148071Y0198953D01*
X0147675Y0197754D02*
X0130070Y0197754D01*
X0129940Y0196556D02*
X0146476Y0196556D01*
X0150644Y0191762D02*
X0168696Y0191762D01*
X0168982Y0191644D02*
X0169656Y0191509D01*
X0170000Y0191509D01*
X0170344Y0191509D01*
X0171018Y0191644D01*
X0171653Y0191907D01*
X0172225Y0192289D01*
X0172711Y0192775D01*
X0173093Y0193347D01*
X0173356Y0193982D01*
X0173491Y0194656D01*
X0173491Y0195000D01*
X0173491Y0195344D01*
X0173356Y0196018D01*
X0173093Y0196653D01*
X0172711Y0197225D01*
X0172225Y0197711D01*
X0171653Y0198093D01*
X0171018Y0198356D01*
X0170344Y0198491D01*
X0170000Y0198491D01*
X0169656Y0198491D01*
X0168982Y0198356D01*
X0168347Y0198093D01*
X0167775Y0197711D01*
X0167289Y0197225D01*
X0166907Y0196653D01*
X0166644Y0196018D01*
X0166509Y0195344D01*
X0166509Y0195000D01*
X0166509Y0194656D01*
X0166644Y0193982D01*
X0166907Y0193347D01*
X0167289Y0192775D01*
X0167775Y0192289D01*
X0168347Y0191907D01*
X0168982Y0191644D01*
X0170000Y0191762D02*
X0170000Y0191762D01*
X0170000Y0191509D02*
X0170000Y0195000D01*
X0173491Y0195000D01*
X0170000Y0195000D01*
X0170000Y0195000D01*
X0170000Y0195000D01*
X0170000Y0198491D01*
X0170000Y0195000D01*
X0170000Y0195000D01*
X0170000Y0195000D01*
X0166509Y0195000D01*
X0170000Y0195000D01*
X0170000Y0191509D01*
X0171304Y0191762D02*
X0174781Y0191762D01*
X0175979Y0192960D02*
X0172835Y0192960D01*
X0173392Y0194159D02*
X0176831Y0194159D01*
X0176831Y0195357D02*
X0173488Y0195357D01*
X0173134Y0196556D02*
X0176831Y0196556D01*
X0176831Y0197754D02*
X0172161Y0197754D01*
X0170000Y0197754D02*
X0170000Y0197754D01*
X0170000Y0196556D02*
X0170000Y0196556D01*
X0170000Y0195357D02*
X0170000Y0195357D01*
X0170000Y0194159D02*
X0170000Y0194159D01*
X0170000Y0192960D02*
X0170000Y0192960D01*
X0167165Y0192960D02*
X0151843Y0192960D01*
X0153041Y0194159D02*
X0166608Y0194159D01*
X0166512Y0195357D02*
X0154240Y0195357D01*
X0154940Y0196556D02*
X0166866Y0196556D01*
X0167839Y0197754D02*
X0155070Y0197754D01*
X0155733Y0198953D02*
X0159267Y0198953D01*
X0157707Y0200151D02*
X0157293Y0200151D01*
X0163098Y0205000D02*
X0163098Y0217500D01*
X0161240Y0217500D01*
X0166267Y0213335D02*
X0176916Y0213335D01*
X0176831Y0212137D02*
X0166267Y0212137D01*
X0167193Y0210938D02*
X0176831Y0210938D01*
X0176831Y0209739D02*
X0168535Y0209739D01*
X0168817Y0208541D02*
X0176831Y0208541D01*
X0176831Y0207342D02*
X0168817Y0207342D01*
X0168817Y0206144D02*
X0176831Y0206144D01*
X0176831Y0204945D02*
X0168817Y0204945D01*
X0168817Y0203747D02*
X0176831Y0203747D01*
X0176831Y0202548D02*
X0168817Y0202548D01*
X0168817Y0201350D02*
X0176831Y0201350D01*
X0176831Y0200151D02*
X0168490Y0200151D01*
X0166929Y0198953D02*
X0176831Y0198953D01*
X0183168Y0198953D02*
X0186831Y0198953D01*
X0186831Y0200151D02*
X0183168Y0200151D01*
X0183168Y0201350D02*
X0186831Y0201350D01*
X0186831Y0202400D02*
X0186831Y0161312D01*
X0184455Y0158936D01*
X0184455Y0158936D01*
X0183564Y0158045D01*
X0183081Y0156880D01*
X0183081Y0147562D01*
X0182039Y0146520D01*
X0182068Y0146591D01*
X0182068Y0148409D01*
X0181373Y0150088D01*
X0180088Y0151373D01*
X0178409Y0152068D01*
X0176591Y0152068D01*
X0174912Y0151373D01*
X0174208Y0150668D01*
X0120149Y0150668D01*
X0120186Y0150705D01*
X0125186Y0155705D01*
X0125668Y0156870D01*
X0125668Y0181188D01*
X0128812Y0184331D01*
X0175630Y0184331D01*
X0176795Y0184814D01*
X0177686Y0185705D01*
X0182686Y0190705D01*
X0183168Y0191870D01*
X0183168Y0202400D01*
X0184600Y0202400D01*
X0184600Y0207100D01*
X0185400Y0207100D01*
X0185400Y0202400D01*
X0186831Y0202400D01*
X0185400Y0202548D02*
X0184600Y0202548D01*
X0184600Y0203747D02*
X0185400Y0203747D01*
X0185400Y0204945D02*
X0184600Y0204945D01*
X0184600Y0206144D02*
X0185400Y0206144D01*
X0190000Y0212500D02*
X0190000Y0160000D01*
X0186250Y0156250D01*
X0186250Y0146250D01*
X0182500Y0142500D01*
X0115295Y0142500D01*
X0111358Y0138563D01*
X0111358Y0117441D01*
X0105453Y0117441D02*
X0105453Y0143563D01*
X0109390Y0147500D01*
X0177500Y0147500D01*
X0182068Y0147417D02*
X0182936Y0147417D01*
X0183081Y0148615D02*
X0181983Y0148615D01*
X0181486Y0149814D02*
X0183081Y0149814D01*
X0183081Y0151012D02*
X0180448Y0151012D01*
X0183081Y0152211D02*
X0121692Y0152211D01*
X0122890Y0153409D02*
X0183081Y0153409D01*
X0183081Y0154608D02*
X0124089Y0154608D01*
X0125228Y0155806D02*
X0183081Y0155806D01*
X0183133Y0157005D02*
X0125668Y0157005D01*
X0125668Y0158203D02*
X0183723Y0158203D01*
X0184921Y0159402D02*
X0125668Y0159402D01*
X0125668Y0160601D02*
X0186120Y0160601D01*
X0186831Y0161799D02*
X0125668Y0161799D01*
X0125668Y0162998D02*
X0186831Y0162998D01*
X0186831Y0164196D02*
X0125668Y0164196D01*
X0125668Y0165395D02*
X0186831Y0165395D01*
X0186831Y0166593D02*
X0125668Y0166593D01*
X0125668Y0167792D02*
X0186831Y0167792D01*
X0186831Y0168990D02*
X0125668Y0168990D01*
X0125668Y0170189D02*
X0186831Y0170189D01*
X0186831Y0171387D02*
X0125668Y0171387D01*
X0125668Y0172586D02*
X0149978Y0172586D01*
X0149789Y0172775D02*
X0150275Y0172289D01*
X0150847Y0171907D01*
X0151482Y0171644D01*
X0152156Y0171509D01*
X0152500Y0171509D01*
X0152844Y0171509D01*
X0153518Y0171644D01*
X0154153Y0171907D01*
X0154725Y0172289D01*
X0155211Y0172775D01*
X0155593Y0173347D01*
X0155856Y0173982D01*
X0155991Y0174656D01*
X0155991Y0175000D01*
X0155991Y0175344D01*
X0155856Y0176018D01*
X0155593Y0176653D01*
X0155211Y0177225D01*
X0154725Y0177711D01*
X0154153Y0178093D01*
X0153518Y0178356D01*
X0152844Y0178491D01*
X0152500Y0178491D01*
X0152156Y0178491D01*
X0151482Y0178356D01*
X0150847Y0178093D01*
X0150275Y0177711D01*
X0149789Y0177225D01*
X0149407Y0176653D01*
X0149144Y0176018D01*
X0149009Y0175344D01*
X0149009Y0175000D01*
X0149009Y0174656D01*
X0149144Y0173982D01*
X0149407Y0173347D01*
X0149789Y0172775D01*
X0149225Y0173784D02*
X0125668Y0173784D01*
X0125668Y0174983D02*
X0149009Y0174983D01*
X0149009Y0175000D02*
X0152500Y0175000D01*
X0155991Y0175000D01*
X0152500Y0175000D01*
X0152500Y0175000D01*
X0152500Y0175000D01*
X0152500Y0178491D01*
X0152500Y0175000D01*
X0152500Y0171509D01*
X0152500Y0175000D01*
X0152500Y0175000D01*
X0152500Y0175000D01*
X0149009Y0175000D01*
X0149211Y0176181D02*
X0125668Y0176181D01*
X0125668Y0177380D02*
X0149943Y0177380D01*
X0152500Y0177380D02*
X0152500Y0177380D01*
X0152500Y0176181D02*
X0152500Y0176181D01*
X0152500Y0174983D02*
X0152500Y0174983D01*
X0152500Y0173784D02*
X0152500Y0173784D01*
X0152500Y0172586D02*
X0152500Y0172586D01*
X0155022Y0172586D02*
X0186831Y0172586D01*
X0186831Y0173784D02*
X0155775Y0173784D01*
X0155991Y0174983D02*
X0186831Y0174983D01*
X0186831Y0176181D02*
X0155789Y0176181D01*
X0155057Y0177380D02*
X0186831Y0177380D01*
X0186831Y0178578D02*
X0125668Y0178578D01*
X0125668Y0179777D02*
X0186831Y0179777D01*
X0186831Y0180975D02*
X0125668Y0180975D01*
X0126655Y0182174D02*
X0186831Y0182174D01*
X0186831Y0183372D02*
X0127853Y0183372D01*
X0114402Y0192500D02*
X0119402Y0197500D01*
X0126902Y0197500D01*
X0126902Y0205000D01*
X0121183Y0204945D02*
X0118817Y0204945D01*
X0118817Y0203747D02*
X0121183Y0203747D01*
X0121183Y0202548D02*
X0118817Y0202548D01*
X0118817Y0201350D02*
X0121183Y0201350D01*
X0121183Y0206144D02*
X0118817Y0206144D01*
X0118817Y0207342D02*
X0121183Y0207342D01*
X0121183Y0208541D02*
X0118817Y0208541D01*
X0118535Y0209739D02*
X0121465Y0209739D01*
X0122807Y0210938D02*
X0117193Y0210938D01*
X0116267Y0212137D02*
X0132789Y0212137D01*
X0134004Y0210938D02*
X0130996Y0210938D01*
X0132338Y0209739D02*
X0132662Y0209739D01*
X0128160Y0212647D02*
X0128160Y0216900D01*
X0124301Y0216900D01*
X0124301Y0214297D01*
X0124430Y0213814D01*
X0124680Y0213381D01*
X0125034Y0213027D01*
X0125467Y0212777D01*
X0125951Y0212647D01*
X0128160Y0212647D01*
X0128160Y0213335D02*
X0129360Y0213335D01*
X0129360Y0214534D02*
X0128160Y0214534D01*
X0128160Y0215732D02*
X0129360Y0215732D01*
X0128160Y0216931D02*
X0116368Y0216931D01*
X0116368Y0218129D02*
X0124301Y0218129D01*
X0124301Y0219328D02*
X0116368Y0219328D01*
X0116368Y0220526D02*
X0124301Y0220526D01*
X0124786Y0221725D02*
X0116053Y0221725D01*
X0114547Y0222923D02*
X0132933Y0222923D01*
X0129360Y0221725D02*
X0128160Y0221725D01*
X0128160Y0220526D02*
X0129360Y0220526D01*
X0129360Y0219328D02*
X0128160Y0219328D01*
X0128160Y0218129D02*
X0129360Y0218129D01*
X0124301Y0215732D02*
X0116368Y0215732D01*
X0116368Y0214534D02*
X0124301Y0214534D01*
X0124726Y0213335D02*
X0116267Y0213335D01*
X0113098Y0217500D02*
X0111240Y0217500D01*
X0113098Y0217500D02*
X0113098Y0205000D01*
X0107662Y0209739D02*
X0107338Y0209739D01*
X0105996Y0210938D02*
X0109004Y0210938D01*
X0107789Y0212137D02*
X0082344Y0212137D01*
X0081146Y0213335D02*
X0099726Y0213335D01*
X0099680Y0213381D02*
X0100034Y0213027D01*
X0100467Y0212777D01*
X0100951Y0212647D01*
X0103160Y0212647D01*
X0103160Y0216900D01*
X0099301Y0216900D01*
X0099301Y0214297D01*
X0099430Y0213814D01*
X0099680Y0213381D01*
X0099301Y0214534D02*
X0079947Y0214534D01*
X0077500Y0212500D02*
X0082500Y0207500D01*
X0082500Y0205000D01*
X0101902Y0205000D01*
X0096183Y0201831D02*
X0096183Y0200940D01*
X0096296Y0200668D01*
X0053812Y0200668D01*
X0052081Y0202400D01*
X0052100Y0202400D01*
X0052100Y0207100D01*
X0052900Y0207100D01*
X0052900Y0207900D01*
X0057600Y0207900D01*
X0062100Y0207900D01*
X0062100Y0207100D01*
X0052900Y0207100D01*
X0052900Y0202400D01*
X0054612Y0202400D01*
X0057500Y0205288D01*
X0060388Y0202400D01*
X0062100Y0202400D01*
X0062100Y0207100D01*
X0062900Y0207100D01*
X0062900Y0207900D01*
X0067600Y0207900D01*
X0067600Y0209331D01*
X0076188Y0209331D01*
X0079331Y0206188D01*
X0079331Y0204370D01*
X0079814Y0203205D01*
X0080705Y0202314D01*
X0081870Y0201831D01*
X0096183Y0201831D01*
X0096183Y0201350D02*
X0053131Y0201350D01*
X0052900Y0202548D02*
X0052100Y0202548D01*
X0052100Y0203747D02*
X0052900Y0203747D01*
X0052900Y0204945D02*
X0052100Y0204945D01*
X0052100Y0206144D02*
X0052900Y0206144D01*
X0052900Y0207342D02*
X0062100Y0207342D01*
X0062900Y0207342D02*
X0078177Y0207342D01*
X0079331Y0206144D02*
X0067600Y0206144D01*
X0067600Y0205388D02*
X0067600Y0207100D01*
X0062900Y0207100D01*
X0062900Y0202400D01*
X0064612Y0202400D01*
X0067600Y0205388D01*
X0067158Y0204945D02*
X0079331Y0204945D01*
X0079589Y0203747D02*
X0065959Y0203747D01*
X0064761Y0202548D02*
X0080471Y0202548D01*
X0076978Y0208541D02*
X0067600Y0208541D01*
X0062900Y0206144D02*
X0062100Y0206144D01*
X0062100Y0204945D02*
X0062900Y0204945D01*
X0062900Y0203747D02*
X0062100Y0203747D01*
X0062100Y0202548D02*
X0062900Y0202548D01*
X0060239Y0202548D02*
X0054761Y0202548D01*
X0055959Y0203747D02*
X0059041Y0203747D01*
X0057842Y0204945D02*
X0057158Y0204945D01*
X0057500Y0212500D02*
X0077500Y0212500D01*
X0083543Y0210938D02*
X0097807Y0210938D01*
X0096465Y0209739D02*
X0084741Y0209739D01*
X0085498Y0208541D02*
X0096183Y0208541D01*
X0103160Y0213335D02*
X0104360Y0213335D01*
X0104360Y0214534D02*
X0103160Y0214534D01*
X0103160Y0215732D02*
X0104360Y0215732D01*
X0103160Y0216931D02*
X0068268Y0216931D01*
X0068268Y0218129D02*
X0099301Y0218129D01*
X0099301Y0219328D02*
X0068268Y0219328D01*
X0067632Y0220526D02*
X0099301Y0220526D01*
X0099786Y0221725D02*
X0066433Y0221725D01*
X0065235Y0222923D02*
X0107933Y0222923D01*
X0104360Y0221725D02*
X0103160Y0221725D01*
X0103160Y0220526D02*
X0104360Y0220526D01*
X0104360Y0219328D02*
X0103160Y0219328D01*
X0103160Y0218129D02*
X0104360Y0218129D01*
X0099301Y0215732D02*
X0068268Y0215732D01*
X0062500Y0217500D02*
X0055000Y0225000D01*
X0016437Y0225000D01*
X0012500Y0221063D01*
X0012500Y0092500D01*
X0017500Y0087500D01*
X0027500Y0087500D01*
X0027500Y0078740D01*
X0021979Y0079102D02*
X0002568Y0079102D01*
X0002568Y0080300D02*
X0021979Y0080300D01*
X0021979Y0081499D02*
X0002568Y0081499D01*
X0002568Y0082697D02*
X0022346Y0082697D01*
X0024331Y0083896D02*
X0002568Y0083896D01*
X0002568Y0085094D02*
X0015425Y0085094D01*
X0014226Y0086293D02*
X0002568Y0086293D01*
X0002568Y0087491D02*
X0013028Y0087491D01*
X0011829Y0088690D02*
X0002568Y0088690D01*
X0002568Y0089888D02*
X0010631Y0089888D01*
X0009656Y0091087D02*
X0002568Y0091087D01*
X0002568Y0092285D02*
X0009331Y0092285D01*
X0009331Y0093484D02*
X0002568Y0093484D01*
X0002568Y0094682D02*
X0009331Y0094682D01*
X0009331Y0095881D02*
X0002568Y0095881D01*
X0002568Y0097079D02*
X0009331Y0097079D01*
X0009331Y0098278D02*
X0002568Y0098278D01*
X0002568Y0099476D02*
X0009331Y0099476D01*
X0009331Y0100675D02*
X0002568Y0100675D01*
X0002568Y0101873D02*
X0009331Y0101873D01*
X0009331Y0103072D02*
X0002568Y0103072D01*
X0002568Y0104270D02*
X0009331Y0104270D01*
X0009331Y0105469D02*
X0002568Y0105469D01*
X0002568Y0106668D02*
X0009331Y0106668D01*
X0009331Y0107866D02*
X0002568Y0107866D01*
X0002568Y0109065D02*
X0009331Y0109065D01*
X0009331Y0110263D02*
X0002568Y0110263D01*
X0002568Y0111462D02*
X0009331Y0111462D01*
X0009331Y0112660D02*
X0002568Y0112660D01*
X0002568Y0113859D02*
X0009331Y0113859D01*
X0009331Y0115057D02*
X0002568Y0115057D01*
X0002568Y0116256D02*
X0009331Y0116256D01*
X0009331Y0117454D02*
X0002568Y0117454D01*
X0002568Y0118653D02*
X0009331Y0118653D01*
X0009331Y0119851D02*
X0002568Y0119851D01*
X0002568Y0121050D02*
X0009331Y0121050D01*
X0009331Y0122248D02*
X0002568Y0122248D01*
X0002568Y0123447D02*
X0009331Y0123447D01*
X0009331Y0124645D02*
X0002568Y0124645D01*
X0002568Y0125844D02*
X0009331Y0125844D01*
X0009331Y0127042D02*
X0002568Y0127042D01*
X0002568Y0128241D02*
X0009331Y0128241D01*
X0009331Y0129439D02*
X0002568Y0129439D01*
X0002568Y0130638D02*
X0009331Y0130638D01*
X0009331Y0131836D02*
X0002568Y0131836D01*
X0002568Y0133035D02*
X0009331Y0133035D01*
X0009331Y0134233D02*
X0002568Y0134233D01*
X0002568Y0135432D02*
X0009331Y0135432D01*
X0009331Y0136630D02*
X0002568Y0136630D01*
X0002568Y0137829D02*
X0009331Y0137829D01*
X0009331Y0139027D02*
X0002568Y0139027D01*
X0002568Y0140226D02*
X0009331Y0140226D01*
X0009331Y0141424D02*
X0002568Y0141424D01*
X0002568Y0142623D02*
X0009331Y0142623D01*
X0009331Y0143821D02*
X0002568Y0143821D01*
X0002568Y0145020D02*
X0009331Y0145020D01*
X0009331Y0146218D02*
X0002568Y0146218D01*
X0002568Y0147417D02*
X0009331Y0147417D01*
X0009331Y0148615D02*
X0002568Y0148615D01*
X0002568Y0149814D02*
X0009331Y0149814D01*
X0009331Y0151012D02*
X0002568Y0151012D01*
X0002568Y0152211D02*
X0009331Y0152211D01*
X0009331Y0153409D02*
X0002568Y0153409D01*
X0002568Y0154608D02*
X0009331Y0154608D01*
X0009331Y0155806D02*
X0002568Y0155806D01*
X0002568Y0157005D02*
X0009331Y0157005D01*
X0009331Y0158203D02*
X0002568Y0158203D01*
X0002568Y0159402D02*
X0009331Y0159402D01*
X0009331Y0160601D02*
X0002568Y0160601D01*
X0002568Y0161799D02*
X0009331Y0161799D01*
X0009331Y0162998D02*
X0002568Y0162998D01*
X0002568Y0164196D02*
X0009331Y0164196D01*
X0009331Y0165395D02*
X0002568Y0165395D01*
X0002568Y0166593D02*
X0009331Y0166593D01*
X0009331Y0167792D02*
X0002568Y0167792D01*
X0002568Y0168990D02*
X0009331Y0168990D01*
X0009331Y0170189D02*
X0002568Y0170189D01*
X0002568Y0171387D02*
X0009331Y0171387D01*
X0009331Y0172586D02*
X0002568Y0172586D01*
X0002568Y0173784D02*
X0009331Y0173784D01*
X0009331Y0174983D02*
X0002568Y0174983D01*
X0002568Y0176181D02*
X0009331Y0176181D01*
X0009331Y0177380D02*
X0002568Y0177380D01*
X0002568Y0178578D02*
X0009331Y0178578D01*
X0009331Y0179777D02*
X0002568Y0179777D01*
X0002568Y0180975D02*
X0009331Y0180975D01*
X0009331Y0182174D02*
X0002568Y0182174D01*
X0002568Y0183372D02*
X0009331Y0183372D01*
X0009331Y0184571D02*
X0002568Y0184571D01*
X0002568Y0185769D02*
X0009331Y0185769D01*
X0009331Y0186968D02*
X0002568Y0186968D01*
X0002568Y0188166D02*
X0009331Y0188166D01*
X0009331Y0189365D02*
X0002568Y0189365D01*
X0002568Y0190563D02*
X0009331Y0190563D01*
X0009331Y0191762D02*
X0002568Y0191762D01*
X0002568Y0192960D02*
X0009331Y0192960D01*
X0009331Y0194159D02*
X0002568Y0194159D01*
X0002568Y0195357D02*
X0009331Y0195357D01*
X0009331Y0196556D02*
X0002568Y0196556D01*
X0002568Y0197754D02*
X0009331Y0197754D01*
X0009331Y0198953D02*
X0002568Y0198953D01*
X0002568Y0200151D02*
X0009331Y0200151D01*
X0009331Y0201350D02*
X0002568Y0201350D01*
X0002568Y0202548D02*
X0009331Y0202548D01*
X0009331Y0203747D02*
X0002568Y0203747D01*
X0002568Y0204945D02*
X0009331Y0204945D01*
X0009331Y0206144D02*
X0002568Y0206144D01*
X0002568Y0207342D02*
X0009331Y0207342D01*
X0009331Y0208541D02*
X0002568Y0208541D01*
X0002568Y0209739D02*
X0009331Y0209739D01*
X0009331Y0210938D02*
X0002568Y0210938D01*
X0002568Y0212137D02*
X0009331Y0212137D01*
X0009331Y0213335D02*
X0002568Y0213335D01*
X0002568Y0214534D02*
X0009331Y0214534D01*
X0009331Y0215732D02*
X0002568Y0215732D01*
X0002568Y0216931D02*
X0009331Y0216931D01*
X0009331Y0218129D02*
X0002568Y0218129D01*
X0002568Y0219328D02*
X0009331Y0219328D01*
X0009331Y0220526D02*
X0002568Y0220526D01*
X0002568Y0221725D02*
X0009344Y0221725D01*
X0009879Y0222923D02*
X0002568Y0222923D01*
X0002568Y0224122D02*
X0011078Y0224122D01*
X0012276Y0225320D02*
X0002568Y0225320D01*
X0002568Y0226519D02*
X0013475Y0226519D01*
X0018937Y0222500D02*
X0015000Y0218563D01*
X0015000Y0095000D01*
X0020000Y0090000D01*
X0068563Y0090000D01*
X0070610Y0092047D01*
X0080059Y0092047D01*
X0080059Y0090079D02*
X0072579Y0090079D01*
X0070000Y0087500D01*
X0027500Y0087500D01*
X0030668Y0084331D02*
X0057079Y0084331D01*
X0056525Y0083961D01*
X0056039Y0083475D01*
X0055657Y0082903D01*
X0055394Y0082268D01*
X0055259Y0081594D01*
X0055259Y0081250D01*
X0055259Y0080906D01*
X0055394Y0080232D01*
X0055657Y0079597D01*
X0056039Y0079025D01*
X0056525Y0078539D01*
X0057097Y0078157D01*
X0057732Y0077894D01*
X0058406Y0077759D01*
X0058750Y0077759D01*
X0059094Y0077759D01*
X0059768Y0077894D01*
X0060403Y0078157D01*
X0060975Y0078539D01*
X0061461Y0079025D01*
X0061843Y0079597D01*
X0062106Y0080232D01*
X0062241Y0080906D01*
X0062241Y0081250D01*
X0062241Y0081594D01*
X0062106Y0082268D01*
X0061843Y0082903D01*
X0061461Y0083475D01*
X0060975Y0083961D01*
X0060421Y0084331D01*
X0069919Y0084331D01*
X0063747Y0078218D01*
X0060867Y0078218D01*
X0059923Y0077827D01*
X0059457Y0077361D01*
X0059355Y0077420D01*
X0058872Y0077550D01*
X0056663Y0077550D01*
X0056663Y0073100D01*
X0055463Y0073100D01*
X0055463Y0077550D01*
X0053254Y0077550D01*
X0052771Y0077420D01*
X0052337Y0077170D01*
X0051984Y0076816D01*
X0051733Y0076383D01*
X0051604Y0075900D01*
X0051604Y0073100D01*
X0055463Y0073100D01*
X0055463Y0071900D01*
X0056663Y0071900D01*
X0056663Y0067450D01*
X0058872Y0067450D01*
X0059355Y0067580D01*
X0059457Y0067639D01*
X0059923Y0067173D01*
X0060769Y0066823D01*
X0060769Y0062872D01*
X0060327Y0062689D01*
X0059604Y0061967D01*
X0059417Y0061515D01*
X0032749Y0061515D01*
X0030668Y0063596D01*
X0030668Y0066132D01*
X0030964Y0066132D01*
X0031908Y0066523D01*
X0032630Y0067246D01*
X0033021Y0068190D01*
X0033021Y0074330D01*
X0032744Y0075000D01*
X0033021Y0075670D01*
X0033021Y0081810D01*
X0032630Y0082754D01*
X0031908Y0083477D01*
X0030964Y0083868D01*
X0030668Y0083868D01*
X0030668Y0084331D01*
X0030668Y0083896D02*
X0056459Y0083896D01*
X0055571Y0082697D02*
X0032654Y0082697D01*
X0033021Y0081499D02*
X0055259Y0081499D01*
X0055259Y0081250D02*
X0058750Y0081250D01*
X0062241Y0081250D01*
X0058750Y0081250D01*
X0058750Y0081250D01*
X0058750Y0077759D01*
X0058750Y0081250D01*
X0058750Y0081250D01*
X0058750Y0081250D01*
X0055259Y0081250D01*
X0055380Y0080300D02*
X0033021Y0080300D01*
X0033021Y0079102D02*
X0055987Y0079102D01*
X0057709Y0077903D02*
X0033021Y0077903D01*
X0033021Y0076705D02*
X0051919Y0076705D01*
X0051604Y0075506D02*
X0032953Y0075506D01*
X0033021Y0074308D02*
X0051604Y0074308D01*
X0051604Y0073109D02*
X0033021Y0073109D01*
X0033021Y0071911D02*
X0055463Y0071911D01*
X0055463Y0071900D02*
X0051604Y0071900D01*
X0051604Y0069100D01*
X0051733Y0068617D01*
X0051984Y0068184D01*
X0052337Y0067830D01*
X0052771Y0067580D01*
X0053254Y0067450D01*
X0055463Y0067450D01*
X0055463Y0071900D01*
X0055463Y0070712D02*
X0056663Y0070712D01*
X0056663Y0069514D02*
X0055463Y0069514D01*
X0055463Y0068315D02*
X0056663Y0068315D01*
X0060059Y0067117D02*
X0032501Y0067117D01*
X0033021Y0068315D02*
X0051908Y0068315D01*
X0051604Y0069514D02*
X0033021Y0069514D01*
X0033021Y0070712D02*
X0051604Y0070712D01*
X0055463Y0073109D02*
X0056663Y0073109D01*
X0056663Y0074308D02*
X0055463Y0074308D01*
X0055463Y0075506D02*
X0056663Y0075506D01*
X0056663Y0076705D02*
X0055463Y0076705D01*
X0058750Y0077903D02*
X0058750Y0077903D01*
X0059791Y0077903D02*
X0060107Y0077903D01*
X0058750Y0079102D02*
X0058750Y0079102D01*
X0058750Y0080300D02*
X0058750Y0080300D01*
X0061513Y0079102D02*
X0064639Y0079102D01*
X0065849Y0080300D02*
X0062120Y0080300D01*
X0062241Y0081499D02*
X0067059Y0081499D01*
X0068269Y0082697D02*
X0061929Y0082697D01*
X0062500Y0083750D02*
X0070000Y0083750D01*
X0074360Y0088110D01*
X0080059Y0088110D01*
X0080059Y0086142D02*
X0076250Y0086142D01*
X0065000Y0075000D01*
X0063937Y0072500D01*
X0063937Y0060846D01*
X0063750Y0058346D01*
X0031437Y0058346D01*
X0027500Y0062283D01*
X0027500Y0071260D01*
X0021979Y0070712D02*
X0002568Y0070712D01*
X0002568Y0069514D02*
X0021979Y0069514D01*
X0021979Y0068315D02*
X0002568Y0068315D01*
X0002568Y0067117D02*
X0022499Y0067117D01*
X0024331Y0065918D02*
X0002568Y0065918D01*
X0002568Y0064720D02*
X0024331Y0064720D01*
X0024331Y0063521D02*
X0002568Y0063521D01*
X0002568Y0062323D02*
X0024331Y0062323D01*
X0024551Y0061124D02*
X0002568Y0061124D01*
X0002568Y0059926D02*
X0025377Y0059926D01*
X0026575Y0058727D02*
X0002568Y0058727D01*
X0002568Y0057529D02*
X0027774Y0057529D01*
X0028972Y0056330D02*
X0002568Y0056330D01*
X0002568Y0055132D02*
X0059436Y0055132D01*
X0059213Y0053933D02*
X0002568Y0053933D01*
X0002568Y0052734D02*
X0059213Y0052734D01*
X0059213Y0051536D02*
X0002568Y0051536D01*
X0002568Y0050337D02*
X0059213Y0050337D01*
X0059213Y0049139D02*
X0002568Y0049139D01*
X0002568Y0047940D02*
X0059697Y0047940D01*
X0063750Y0051654D02*
X0082500Y0051654D01*
X0086437Y0055591D01*
X0086437Y0060000D01*
X0087736Y0060000D01*
X0091673Y0063937D01*
X0091673Y0072559D01*
X0089705Y0072559D02*
X0089705Y0065000D01*
X0077500Y0065000D01*
X0077500Y0060000D01*
X0077963Y0059926D02*
X0068287Y0059926D01*
X0068287Y0061023D02*
X0067896Y0061967D01*
X0067173Y0062689D01*
X0067105Y0062717D01*
X0067105Y0066823D01*
X0067951Y0067173D01*
X0068674Y0067895D01*
X0069065Y0068839D01*
X0069065Y0074566D01*
X0073681Y0079139D01*
X0073681Y0076989D01*
X0074073Y0076045D01*
X0074795Y0075323D01*
X0075739Y0074931D01*
X0076181Y0074931D01*
X0076181Y0070739D01*
X0076573Y0069795D01*
X0077295Y0069073D01*
X0078239Y0068681D01*
X0085029Y0068681D01*
X0085691Y0068019D01*
X0086635Y0067628D01*
X0088505Y0067628D01*
X0088505Y0065718D01*
X0083367Y0065718D01*
X0082423Y0065327D01*
X0081957Y0064861D01*
X0081855Y0064920D01*
X0081372Y0065050D01*
X0079163Y0065050D01*
X0079163Y0060600D01*
X0077963Y0060600D01*
X0077963Y0065050D01*
X0075754Y0065050D01*
X0075271Y0064920D01*
X0074837Y0064670D01*
X0074484Y0064316D01*
X0074233Y0063883D01*
X0074104Y0063400D01*
X0074104Y0060600D01*
X0077963Y0060600D01*
X0077963Y0059400D01*
X0079163Y0059400D01*
X0079163Y0054950D01*
X0081316Y0054950D01*
X0081188Y0054822D01*
X0068083Y0054822D01*
X0068009Y0055000D01*
X0068287Y0055670D01*
X0068287Y0061023D01*
X0068245Y0061124D02*
X0074104Y0061124D01*
X0074104Y0062323D02*
X0067540Y0062323D01*
X0067105Y0063521D02*
X0074136Y0063521D01*
X0073518Y0064144D02*
X0074153Y0064407D01*
X0074725Y0064789D01*
X0075211Y0065275D01*
X0075593Y0065847D01*
X0075856Y0066482D01*
X0075991Y0067156D01*
X0075991Y0067500D01*
X0075991Y0067844D01*
X0075856Y0068518D01*
X0075593Y0069153D01*
X0075211Y0069725D01*
X0074725Y0070211D01*
X0074153Y0070593D01*
X0073518Y0070856D01*
X0072844Y0070991D01*
X0072500Y0070991D01*
X0072156Y0070991D01*
X0071482Y0070856D01*
X0070847Y0070593D01*
X0070275Y0070211D01*
X0069789Y0069725D01*
X0069407Y0069153D01*
X0069144Y0068518D01*
X0069009Y0067844D01*
X0069009Y0067500D01*
X0069009Y0067156D01*
X0069144Y0066482D01*
X0069407Y0065847D01*
X0069789Y0065275D01*
X0070275Y0064789D01*
X0070847Y0064407D01*
X0071482Y0064144D01*
X0072156Y0064009D01*
X0072500Y0064009D01*
X0072844Y0064009D01*
X0073518Y0064144D01*
X0072500Y0064009D02*
X0072500Y0067500D01*
X0075991Y0067500D01*
X0072500Y0067500D01*
X0072500Y0067500D01*
X0072500Y0067500D01*
X0072500Y0070991D01*
X0072500Y0067500D01*
X0072500Y0067500D01*
X0072500Y0067500D01*
X0069009Y0067500D01*
X0072500Y0067500D01*
X0072500Y0064009D01*
X0072500Y0064720D02*
X0072500Y0064720D01*
X0072500Y0065918D02*
X0072500Y0065918D01*
X0072500Y0067117D02*
X0072500Y0067117D01*
X0072500Y0068315D02*
X0072500Y0068315D01*
X0072500Y0069514D02*
X0072500Y0069514D01*
X0072500Y0070712D02*
X0072500Y0070712D01*
X0073866Y0070712D02*
X0076193Y0070712D01*
X0076181Y0071911D02*
X0069065Y0071911D01*
X0069065Y0073109D02*
X0076181Y0073109D01*
X0076181Y0074308D02*
X0069065Y0074308D01*
X0070014Y0075506D02*
X0074611Y0075506D01*
X0073799Y0076705D02*
X0071224Y0076705D01*
X0072434Y0077903D02*
X0073681Y0077903D01*
X0073644Y0079102D02*
X0073681Y0079102D01*
X0069479Y0083896D02*
X0061041Y0083896D01*
X0066063Y0092500D02*
X0021437Y0092500D01*
X0017500Y0096437D01*
X0017500Y0151063D01*
X0021437Y0155000D01*
X0027500Y0155000D01*
X0027500Y0148937D01*
X0033218Y0148615D02*
X0088505Y0148615D01*
X0088505Y0147417D02*
X0087312Y0147417D01*
X0087420Y0147229D02*
X0087170Y0147663D01*
X0086816Y0148016D01*
X0086383Y0148267D01*
X0085900Y0148396D01*
X0083100Y0148396D01*
X0083100Y0144537D01*
X0087550Y0144537D01*
X0087550Y0146746D01*
X0087420Y0147229D01*
X0087550Y0146218D02*
X0088505Y0146218D01*
X0088505Y0145020D02*
X0087550Y0145020D01*
X0088505Y0143821D02*
X0083100Y0143821D01*
X0083100Y0143337D02*
X0083100Y0144537D01*
X0081900Y0144537D01*
X0081900Y0143337D01*
X0077450Y0143337D01*
X0077450Y0141128D01*
X0077580Y0140645D01*
X0077639Y0140543D01*
X0077173Y0140077D01*
X0076782Y0139133D01*
X0076782Y0132993D01*
X0077173Y0132049D01*
X0077895Y0131326D01*
X0078839Y0130935D01*
X0079331Y0130935D01*
X0079331Y0126870D01*
X0079814Y0125705D01*
X0080705Y0124814D01*
X0081870Y0124331D01*
X0084568Y0124331D01*
X0084568Y0121318D01*
X0078239Y0121318D01*
X0077521Y0121021D01*
X0077550Y0121128D01*
X0077550Y0123337D01*
X0073100Y0123337D01*
X0073100Y0124537D01*
X0077550Y0124537D01*
X0077550Y0126746D01*
X0077420Y0127229D01*
X0077170Y0127663D01*
X0076816Y0128016D01*
X0076383Y0128267D01*
X0075900Y0128396D01*
X0073100Y0128396D01*
X0073100Y0124537D01*
X0071900Y0124537D01*
X0071900Y0123337D01*
X0067450Y0123337D01*
X0067450Y0121128D01*
X0067580Y0120645D01*
X0067639Y0120543D01*
X0067173Y0120077D01*
X0066782Y0119133D01*
X0066782Y0115012D01*
X0066249Y0115545D01*
X0065358Y0116436D01*
X0064401Y0116832D01*
X0064264Y0117164D01*
X0063542Y0117886D01*
X0063168Y0118041D01*
X0063168Y0119890D01*
X0063674Y0120395D01*
X0064065Y0121339D01*
X0064065Y0128661D01*
X0063674Y0129605D01*
X0062951Y0130327D01*
X0062007Y0130718D01*
X0055867Y0130718D01*
X0054923Y0130327D01*
X0054457Y0129861D01*
X0054355Y0129920D01*
X0053872Y0130050D01*
X0051663Y0130050D01*
X0051663Y0127741D01*
X0050630Y0128168D01*
X0050463Y0128168D01*
X0050463Y0130050D01*
X0048254Y0130050D01*
X0047771Y0129920D01*
X0047337Y0129670D01*
X0046984Y0129316D01*
X0046733Y0128883D01*
X0046604Y0128400D01*
X0046604Y0125600D01*
X0046831Y0125600D01*
X0046831Y0124400D01*
X0046604Y0124400D01*
X0046604Y0121600D01*
X0046733Y0121117D01*
X0046831Y0120947D01*
X0046831Y0117278D01*
X0046747Y0117229D01*
X0046393Y0116875D01*
X0046143Y0116442D01*
X0046013Y0115959D01*
X0046013Y0113928D01*
X0046831Y0113928D01*
X0046831Y0112765D01*
X0046013Y0112765D01*
X0046013Y0110748D01*
X0045736Y0110471D01*
X0045467Y0109822D01*
X0045433Y0109822D01*
X0045327Y0110077D01*
X0044861Y0110543D01*
X0044920Y0110645D01*
X0045050Y0111128D01*
X0045050Y0113337D01*
X0040600Y0113337D01*
X0040600Y0114537D01*
X0045050Y0114537D01*
X0045050Y0116746D01*
X0044920Y0117229D01*
X0044670Y0117663D01*
X0044316Y0118016D01*
X0043883Y0118267D01*
X0043400Y0118396D01*
X0040600Y0118396D01*
X0040600Y0114537D01*
X0039400Y0114537D01*
X0039400Y0113337D01*
X0034950Y0113337D01*
X0034950Y0111128D01*
X0035080Y0110645D01*
X0035139Y0110543D01*
X0034673Y0110077D01*
X0034282Y0109133D01*
X0034282Y0102993D01*
X0034673Y0102049D01*
X0035395Y0101326D01*
X0036339Y0100935D01*
X0043661Y0100935D01*
X0044605Y0101326D01*
X0045327Y0102049D01*
X0045695Y0102936D01*
X0045736Y0102836D01*
X0046458Y0102114D01*
X0047402Y0101723D01*
X0047501Y0101723D01*
X0047501Y0099291D01*
X0047983Y0098126D01*
X0048874Y0097235D01*
X0050039Y0096753D01*
X0067365Y0096753D01*
X0065286Y0095668D01*
X0022749Y0095668D01*
X0020668Y0097749D01*
X0020668Y0149751D01*
X0021782Y0150864D01*
X0021782Y0145867D01*
X0022173Y0144923D01*
X0022639Y0144457D01*
X0022580Y0144355D01*
X0022450Y0143872D01*
X0022450Y0141663D01*
X0026900Y0141663D01*
X0026900Y0140463D01*
X0022450Y0140463D01*
X0022450Y0138254D01*
X0022580Y0137771D01*
X0022830Y0137337D01*
X0023184Y0136984D01*
X0023617Y0136733D01*
X0024100Y0136604D01*
X0026900Y0136604D01*
X0026900Y0140463D01*
X0028100Y0140463D01*
X0028100Y0141663D01*
X0032550Y0141663D01*
X0032550Y0143872D01*
X0032420Y0144355D01*
X0032361Y0144457D01*
X0032827Y0144923D01*
X0033218Y0145867D01*
X0033218Y0151831D01*
X0079208Y0151831D01*
X0079912Y0151127D01*
X0081591Y0150431D01*
X0083409Y0150431D01*
X0085088Y0151127D01*
X0086373Y0152412D01*
X0087068Y0154091D01*
X0087068Y0155909D01*
X0086872Y0156383D01*
X0088505Y0154751D01*
X0088505Y0130611D01*
X0088366Y0130668D01*
X0085668Y0130668D01*
X0085668Y0130935D01*
X0086161Y0130935D01*
X0087105Y0131326D01*
X0087827Y0132049D01*
X0088218Y0132993D01*
X0088218Y0139133D01*
X0087827Y0140077D01*
X0087361Y0140543D01*
X0087420Y0140645D01*
X0087550Y0141128D01*
X0087550Y0143337D01*
X0083100Y0143337D01*
X0081900Y0143821D02*
X0032550Y0143821D01*
X0032550Y0142623D02*
X0077450Y0142623D01*
X0077450Y0141424D02*
X0028100Y0141424D01*
X0028100Y0140463D02*
X0032550Y0140463D01*
X0032550Y0138254D01*
X0032420Y0137771D01*
X0032170Y0137337D01*
X0031816Y0136984D01*
X0031383Y0136733D01*
X0030900Y0136604D01*
X0028100Y0136604D01*
X0028100Y0140463D01*
X0028100Y0140226D02*
X0026900Y0140226D01*
X0026900Y0141424D02*
X0020668Y0141424D01*
X0020668Y0140226D02*
X0022450Y0140226D01*
X0022450Y0139027D02*
X0020668Y0139027D01*
X0020668Y0137829D02*
X0022564Y0137829D01*
X0024002Y0136630D02*
X0020668Y0136630D01*
X0020668Y0135432D02*
X0069684Y0135432D01*
X0069789Y0135275D02*
X0070275Y0134789D01*
X0070847Y0134407D01*
X0071482Y0134144D01*
X0072156Y0134009D01*
X0072500Y0134009D01*
X0072844Y0134009D01*
X0073518Y0134144D01*
X0074153Y0134407D01*
X0074725Y0134789D01*
X0075211Y0135275D01*
X0075593Y0135847D01*
X0075856Y0136482D01*
X0075991Y0137156D01*
X0075991Y0137500D01*
X0075991Y0137844D01*
X0075856Y0138518D01*
X0075593Y0139153D01*
X0075211Y0139725D01*
X0074725Y0140211D01*
X0074153Y0140593D01*
X0073518Y0140856D01*
X0072844Y0140991D01*
X0072500Y0140991D01*
X0072156Y0140991D01*
X0071482Y0140856D01*
X0070847Y0140593D01*
X0070275Y0140211D01*
X0069789Y0139725D01*
X0069407Y0139153D01*
X0069144Y0138518D01*
X0069009Y0137844D01*
X0069009Y0137500D01*
X0069009Y0137156D01*
X0069144Y0136482D01*
X0069407Y0135847D01*
X0069789Y0135275D01*
X0069114Y0136630D02*
X0030998Y0136630D01*
X0032436Y0137829D02*
X0069009Y0137829D01*
X0069009Y0137500D02*
X0072500Y0137500D01*
X0075991Y0137500D01*
X0072500Y0137500D01*
X0072500Y0137500D01*
X0072500Y0137500D01*
X0072500Y0140991D01*
X0072500Y0137500D01*
X0072500Y0134009D01*
X0072500Y0137500D01*
X0072500Y0137500D01*
X0072500Y0137500D01*
X0069009Y0137500D01*
X0069355Y0139027D02*
X0032550Y0139027D01*
X0032550Y0140226D02*
X0070297Y0140226D01*
X0072500Y0140226D02*
X0072500Y0140226D01*
X0072500Y0139027D02*
X0072500Y0139027D01*
X0072500Y0137829D02*
X0072500Y0137829D01*
X0072500Y0136630D02*
X0072500Y0136630D01*
X0072500Y0135432D02*
X0072500Y0135432D01*
X0072500Y0134233D02*
X0072500Y0134233D01*
X0073735Y0134233D02*
X0076782Y0134233D01*
X0076782Y0133035D02*
X0020668Y0133035D01*
X0020668Y0134233D02*
X0071265Y0134233D01*
X0075316Y0135432D02*
X0076782Y0135432D01*
X0076782Y0136630D02*
X0075886Y0136630D01*
X0075991Y0137829D02*
X0076782Y0137829D01*
X0076782Y0139027D02*
X0075645Y0139027D01*
X0074703Y0140226D02*
X0077322Y0140226D01*
X0077450Y0144537D02*
X0081900Y0144537D01*
X0081900Y0148396D01*
X0079100Y0148396D01*
X0078617Y0148267D01*
X0078184Y0148016D01*
X0077830Y0147663D01*
X0077580Y0147229D01*
X0077450Y0146746D01*
X0077450Y0144537D01*
X0077450Y0145020D02*
X0032867Y0145020D01*
X0033218Y0146218D02*
X0077450Y0146218D01*
X0077688Y0147417D02*
X0033218Y0147417D01*
X0033218Y0149814D02*
X0088505Y0149814D01*
X0088505Y0151012D02*
X0084811Y0151012D01*
X0086172Y0152211D02*
X0088505Y0152211D01*
X0088505Y0153409D02*
X0086786Y0153409D01*
X0087068Y0154608D02*
X0088505Y0154608D01*
X0087449Y0155806D02*
X0087068Y0155806D01*
X0091673Y0156063D02*
X0091673Y0117441D01*
X0089705Y0117441D02*
X0089705Y0145000D01*
X0082500Y0145000D01*
X0081900Y0145020D02*
X0083100Y0145020D01*
X0083100Y0146218D02*
X0081900Y0146218D01*
X0081900Y0147417D02*
X0083100Y0147417D01*
X0080189Y0151012D02*
X0033218Y0151012D01*
X0027500Y0155000D02*
X0082500Y0155000D01*
X0086673Y0161063D02*
X0091673Y0156063D01*
X0093642Y0160000D02*
X0093642Y0117441D01*
X0095610Y0117441D02*
X0095610Y0180000D01*
X0096250Y0181250D01*
X0082500Y0181250D01*
X0082500Y0177500D01*
X0082490Y0176250D01*
X0087618Y0176181D02*
X0090032Y0176181D01*
X0089981Y0176303D02*
X0090936Y0173999D01*
X0092442Y0172493D01*
X0092442Y0165681D01*
X0090437Y0167686D01*
X0089272Y0168168D01*
X0043812Y0168168D01*
X0040668Y0171312D01*
X0040668Y0202400D01*
X0042100Y0202400D01*
X0042100Y0207100D01*
X0042900Y0207100D01*
X0042900Y0202400D01*
X0044331Y0202400D01*
X0044331Y0201870D01*
X0044814Y0200705D01*
X0049814Y0195705D01*
X0050705Y0194814D01*
X0051870Y0194331D01*
X0103688Y0194331D01*
X0106831Y0191188D01*
X0106831Y0166312D01*
X0103688Y0163168D01*
X0100885Y0163168D01*
X0099721Y0162686D01*
X0098830Y0161795D01*
X0098779Y0161744D01*
X0098779Y0171812D01*
X0099801Y0172236D01*
X0101564Y0173999D01*
X0102518Y0176303D01*
X0102518Y0186197D01*
X0101564Y0188501D01*
X0099801Y0190264D01*
X0097497Y0191218D01*
X0095003Y0191218D01*
X0092699Y0190264D01*
X0090936Y0188501D01*
X0089981Y0186197D01*
X0089981Y0184418D01*
X0081870Y0184418D01*
X0080705Y0183936D01*
X0079814Y0183045D01*
X0079331Y0181880D01*
X0079331Y0181735D01*
X0078476Y0181380D01*
X0078118Y0181023D01*
X0077819Y0181103D01*
X0075610Y0181103D01*
X0075610Y0176850D01*
X0074410Y0176850D01*
X0074410Y0181103D01*
X0072201Y0181103D01*
X0071717Y0180973D01*
X0071284Y0180723D01*
X0070930Y0180369D01*
X0070680Y0179936D01*
X0070551Y0179453D01*
X0070551Y0176850D01*
X0074410Y0176850D01*
X0074410Y0175650D01*
X0075610Y0175650D01*
X0075610Y0171397D01*
X0077819Y0171397D01*
X0078118Y0171477D01*
X0078476Y0171120D01*
X0079420Y0170729D01*
X0085560Y0170729D01*
X0086504Y0171120D01*
X0087227Y0171842D01*
X0087618Y0172786D01*
X0087618Y0178081D01*
X0089981Y0178081D01*
X0089981Y0176303D01*
X0089981Y0177380D02*
X0087618Y0177380D01*
X0087618Y0174983D02*
X0090528Y0174983D01*
X0091151Y0173784D02*
X0087618Y0173784D01*
X0087535Y0172586D02*
X0092349Y0172586D01*
X0092442Y0171387D02*
X0086771Y0171387D01*
X0090182Y0167792D02*
X0092442Y0167792D01*
X0092442Y0168990D02*
X0042991Y0168990D01*
X0041792Y0170189D02*
X0092442Y0170189D01*
X0092442Y0166593D02*
X0091530Y0166593D01*
X0088642Y0165000D02*
X0093642Y0160000D01*
X0098779Y0161799D02*
X0098834Y0161799D01*
X0098779Y0162998D02*
X0100473Y0162998D01*
X0098779Y0164196D02*
X0104715Y0164196D01*
X0105914Y0165395D02*
X0098779Y0165395D01*
X0098779Y0166593D02*
X0106831Y0166593D01*
X0106831Y0167792D02*
X0098779Y0167792D01*
X0098779Y0168990D02*
X0106831Y0168990D01*
X0106831Y0170189D02*
X0098779Y0170189D01*
X0098779Y0171387D02*
X0106831Y0171387D01*
X0106831Y0172586D02*
X0100151Y0172586D01*
X0101349Y0173784D02*
X0106831Y0173784D01*
X0106831Y0174983D02*
X0101972Y0174983D01*
X0102468Y0176181D02*
X0106831Y0176181D01*
X0106831Y0177380D02*
X0102518Y0177380D01*
X0102518Y0178578D02*
X0106831Y0178578D01*
X0106831Y0179777D02*
X0102518Y0179777D01*
X0102518Y0180975D02*
X0106831Y0180975D01*
X0106831Y0182174D02*
X0102518Y0182174D01*
X0102518Y0183372D02*
X0106831Y0183372D01*
X0106831Y0184571D02*
X0102518Y0184571D01*
X0102518Y0185769D02*
X0106831Y0185769D01*
X0106831Y0186968D02*
X0102199Y0186968D01*
X0101703Y0188166D02*
X0106831Y0188166D01*
X0106831Y0189365D02*
X0100700Y0189365D01*
X0099079Y0190563D02*
X0106831Y0190563D01*
X0106257Y0191762D02*
X0081775Y0191762D01*
X0081653Y0191843D02*
X0081018Y0192106D01*
X0080344Y0192241D01*
X0080000Y0192241D01*
X0079656Y0192241D01*
X0078982Y0192106D01*
X0078347Y0191843D01*
X0077775Y0191461D01*
X0077289Y0190975D01*
X0076907Y0190403D01*
X0076644Y0189768D01*
X0076509Y0189094D01*
X0076509Y0188750D01*
X0076509Y0188406D01*
X0076644Y0187732D01*
X0076907Y0187097D01*
X0077289Y0186525D01*
X0077775Y0186039D01*
X0078347Y0185657D01*
X0078982Y0185394D01*
X0079656Y0185259D01*
X0080000Y0185259D01*
X0080344Y0185259D01*
X0081018Y0185394D01*
X0081653Y0185657D01*
X0082225Y0186039D01*
X0082711Y0186525D01*
X0083093Y0187097D01*
X0083356Y0187732D01*
X0083491Y0188406D01*
X0083491Y0188750D01*
X0083491Y0189094D01*
X0083356Y0189768D01*
X0083093Y0190403D01*
X0082711Y0190975D01*
X0082225Y0191461D01*
X0081653Y0191843D01*
X0080000Y0191762D02*
X0080000Y0191762D01*
X0080000Y0192241D02*
X0080000Y0188750D01*
X0083491Y0188750D01*
X0080000Y0188750D01*
X0080000Y0188750D01*
X0080000Y0188750D01*
X0080000Y0192241D01*
X0080000Y0190563D02*
X0080000Y0190563D01*
X0080000Y0189365D02*
X0080000Y0189365D01*
X0080000Y0188750D02*
X0080000Y0188750D01*
X0080000Y0185259D01*
X0080000Y0188750D01*
X0080000Y0188750D01*
X0076509Y0188750D01*
X0080000Y0188750D01*
X0080000Y0188166D02*
X0080000Y0188166D01*
X0080000Y0186968D02*
X0080000Y0186968D01*
X0080000Y0185769D02*
X0080000Y0185769D01*
X0081822Y0185769D02*
X0089981Y0185769D01*
X0089981Y0184571D02*
X0040668Y0184571D01*
X0040668Y0185769D02*
X0078178Y0185769D01*
X0076993Y0186968D02*
X0040668Y0186968D01*
X0040668Y0188166D02*
X0076557Y0188166D01*
X0076563Y0189365D02*
X0040668Y0189365D01*
X0040668Y0190563D02*
X0077014Y0190563D01*
X0078225Y0191762D02*
X0040668Y0191762D01*
X0040668Y0192960D02*
X0105059Y0192960D01*
X0103860Y0194159D02*
X0040668Y0194159D01*
X0040668Y0195357D02*
X0050162Y0195357D01*
X0048963Y0196556D02*
X0040668Y0196556D01*
X0040668Y0197754D02*
X0047765Y0197754D01*
X0046566Y0198953D02*
X0040668Y0198953D01*
X0040668Y0200151D02*
X0045368Y0200151D01*
X0044547Y0201350D02*
X0040668Y0201350D01*
X0042100Y0202548D02*
X0042900Y0202548D01*
X0042900Y0203747D02*
X0042100Y0203747D01*
X0042100Y0204945D02*
X0042900Y0204945D01*
X0042900Y0206144D02*
X0042100Y0206144D01*
X0047500Y0202500D02*
X0052500Y0197500D01*
X0105000Y0197500D01*
X0110000Y0192500D01*
X0110000Y0165000D01*
X0105000Y0160000D01*
X0101516Y0160000D01*
X0097579Y0156063D01*
X0097579Y0117441D01*
X0099547Y0117441D02*
X0099547Y0153563D01*
X0103484Y0157500D01*
X0109402Y0157500D01*
X0114402Y0162500D01*
X0114402Y0192500D01*
X0130733Y0198953D02*
X0134267Y0198953D01*
X0132707Y0200151D02*
X0132293Y0200151D01*
X0138098Y0205000D02*
X0138098Y0217500D01*
X0136240Y0217500D01*
X0141368Y0216931D02*
X0153160Y0216931D01*
X0153160Y0216900D02*
X0149301Y0216900D01*
X0149301Y0214297D01*
X0149430Y0213814D01*
X0149680Y0213381D01*
X0150034Y0213027D01*
X0150467Y0212777D01*
X0150951Y0212647D01*
X0153160Y0212647D01*
X0153160Y0216900D01*
X0153160Y0215732D02*
X0154360Y0215732D01*
X0154360Y0214534D02*
X0153160Y0214534D01*
X0153160Y0213335D02*
X0154360Y0213335D01*
X0149726Y0213335D02*
X0141267Y0213335D01*
X0141267Y0212137D02*
X0157789Y0212137D01*
X0159004Y0210938D02*
X0155996Y0210938D01*
X0157338Y0209739D02*
X0157662Y0209739D01*
X0149301Y0214534D02*
X0141368Y0214534D01*
X0141368Y0215732D02*
X0149301Y0215732D01*
X0149301Y0218129D02*
X0141368Y0218129D01*
X0141368Y0219328D02*
X0149301Y0219328D01*
X0149301Y0220526D02*
X0141368Y0220526D01*
X0141053Y0221725D02*
X0149786Y0221725D01*
X0153160Y0221725D02*
X0154360Y0221725D01*
X0154360Y0220526D02*
X0153160Y0220526D01*
X0153160Y0219328D02*
X0154360Y0219328D01*
X0154360Y0218129D02*
X0153160Y0218129D01*
X0157933Y0222923D02*
X0139547Y0222923D01*
X0142193Y0210938D02*
X0147807Y0210938D01*
X0146465Y0209739D02*
X0143535Y0209739D01*
X0143817Y0208541D02*
X0146183Y0208541D01*
X0146183Y0207342D02*
X0143817Y0207342D01*
X0143817Y0206144D02*
X0146183Y0206144D01*
X0166368Y0214534D02*
X0177553Y0214534D01*
X0178751Y0215732D02*
X0166368Y0215732D01*
X0166368Y0216931D02*
X0179231Y0216931D01*
X0179231Y0218129D02*
X0166368Y0218129D01*
X0166368Y0219328D02*
X0179231Y0219328D01*
X0179868Y0220526D02*
X0166368Y0220526D01*
X0166053Y0221725D02*
X0181067Y0221725D01*
X0182265Y0222923D02*
X0164547Y0222923D01*
X0187141Y0224122D02*
X0060359Y0224122D01*
X0059161Y0225320D02*
X0188529Y0225320D01*
X0195000Y0217500D02*
X0190000Y0212500D01*
X0195400Y0207342D02*
X0209009Y0207342D01*
X0209009Y0207500D02*
X0209009Y0207156D01*
X0209144Y0206482D01*
X0209407Y0205847D01*
X0209789Y0205275D01*
X0210275Y0204789D01*
X0210847Y0204407D01*
X0211482Y0204144D01*
X0212156Y0204009D01*
X0212500Y0204009D01*
X0212844Y0204009D01*
X0213518Y0204144D01*
X0214153Y0204407D01*
X0214725Y0204789D01*
X0215211Y0205275D01*
X0215593Y0205847D01*
X0215856Y0206482D01*
X0215991Y0207156D01*
X0215991Y0207500D01*
X0215991Y0207844D01*
X0215856Y0208518D01*
X0215593Y0209153D01*
X0215211Y0209725D01*
X0214725Y0210211D01*
X0214153Y0210593D01*
X0213518Y0210856D01*
X0212844Y0210991D01*
X0212500Y0210991D01*
X0212156Y0210991D01*
X0211482Y0210856D01*
X0210847Y0210593D01*
X0210275Y0210211D01*
X0209789Y0209725D01*
X0209407Y0209153D01*
X0209144Y0208518D01*
X0209009Y0207844D01*
X0209009Y0207500D01*
X0212500Y0207500D01*
X0215991Y0207500D01*
X0212500Y0207500D01*
X0212500Y0207500D01*
X0212500Y0207500D01*
X0212500Y0210991D01*
X0212500Y0207500D01*
X0212500Y0204009D01*
X0212500Y0207500D01*
X0212500Y0207500D01*
X0212500Y0207500D01*
X0209009Y0207500D01*
X0209153Y0208541D02*
X0200100Y0208541D01*
X0199973Y0209739D02*
X0209803Y0209739D01*
X0211892Y0210938D02*
X0198774Y0210938D01*
X0197794Y0212137D02*
X0269959Y0212137D01*
X0269950Y0210938D02*
X0213108Y0210938D01*
X0212500Y0210938D02*
X0212500Y0210938D01*
X0212500Y0209739D02*
X0212500Y0209739D01*
X0212500Y0208541D02*
X0212500Y0208541D01*
X0212500Y0207342D02*
X0212500Y0207342D01*
X0212500Y0206144D02*
X0212500Y0206144D01*
X0212500Y0204945D02*
X0212500Y0204945D01*
X0214882Y0204945D02*
X0226023Y0204945D01*
X0226044Y0205025D02*
X0225915Y0204541D01*
X0225915Y0202609D01*
X0233631Y0202609D01*
X0233631Y0206191D01*
X0227565Y0206191D01*
X0227082Y0206062D01*
X0226648Y0205812D01*
X0226295Y0205458D01*
X0226044Y0205025D01*
X0225915Y0203747D02*
X0198459Y0203747D01*
X0197261Y0202548D02*
X0233631Y0202548D01*
X0234597Y0202548D02*
X0260403Y0202548D01*
X0260886Y0202126D02*
X0270000Y0202126D01*
X0269085Y0203747D02*
X0286132Y0203747D01*
X0286132Y0204945D02*
X0279732Y0204945D01*
X0280050Y0206144D02*
X0286132Y0206144D01*
X0286132Y0207342D02*
X0280050Y0207342D01*
X0275600Y0206144D02*
X0274400Y0206144D01*
X0274400Y0204945D02*
X0275600Y0204945D01*
X0274400Y0208541D02*
X0215847Y0208541D01*
X0215991Y0207342D02*
X0269950Y0207342D01*
X0269950Y0206144D02*
X0267612Y0206144D01*
X0268977Y0204945D02*
X0270268Y0204945D01*
X0269950Y0209739D02*
X0215197Y0209739D01*
X0215716Y0206144D02*
X0227388Y0206144D01*
X0225915Y0201350D02*
X0193168Y0201350D01*
X0193168Y0200151D02*
X0225915Y0200151D01*
X0226203Y0198953D02*
X0193168Y0198953D01*
X0193168Y0197754D02*
X0286132Y0197754D01*
X0286132Y0196556D02*
X0193168Y0196556D01*
X0193168Y0195357D02*
X0286132Y0195357D01*
X0286132Y0194159D02*
X0193168Y0194159D01*
X0193168Y0192960D02*
X0286132Y0192960D01*
X0286132Y0191762D02*
X0193168Y0191762D01*
X0193168Y0190563D02*
X0286132Y0190563D01*
X0286132Y0189365D02*
X0193168Y0189365D01*
X0193168Y0188166D02*
X0286132Y0188166D01*
X0286132Y0186968D02*
X0193168Y0186968D01*
X0193168Y0185769D02*
X0286132Y0185769D01*
X0286132Y0184571D02*
X0193168Y0184571D01*
X0186831Y0184571D02*
X0176208Y0184571D01*
X0177750Y0185769D02*
X0186831Y0185769D01*
X0186831Y0186968D02*
X0178949Y0186968D01*
X0180147Y0188166D02*
X0186831Y0188166D01*
X0186831Y0189365D02*
X0181346Y0189365D01*
X0182544Y0190563D02*
X0186831Y0190563D01*
X0186831Y0191762D02*
X0183124Y0191762D01*
X0183168Y0192960D02*
X0186831Y0192960D01*
X0186831Y0194159D02*
X0183168Y0194159D01*
X0183168Y0195357D02*
X0186831Y0195357D01*
X0186831Y0196556D02*
X0183168Y0196556D01*
X0183168Y0197754D02*
X0186831Y0197754D01*
X0194600Y0202548D02*
X0195400Y0202548D01*
X0195400Y0202400D02*
X0197112Y0202400D01*
X0200100Y0205388D01*
X0200100Y0207100D01*
X0195400Y0207100D01*
X0195400Y0202400D01*
X0195400Y0203747D02*
X0194600Y0203747D01*
X0194600Y0204945D02*
X0195400Y0204945D01*
X0195400Y0206144D02*
X0194600Y0206144D01*
X0199658Y0204945D02*
X0210118Y0204945D01*
X0209284Y0206144D02*
X0200100Y0206144D01*
X0198993Y0213335D02*
X0226834Y0213335D01*
X0225522Y0214534D02*
X0200191Y0214534D01*
X0200768Y0215732D02*
X0225246Y0215732D01*
X0225246Y0216931D02*
X0200768Y0216931D01*
X0200768Y0218129D02*
X0225246Y0218129D01*
X0225246Y0219328D02*
X0200768Y0219328D01*
X0233631Y0206144D02*
X0234597Y0206144D01*
X0234597Y0204945D02*
X0233631Y0204945D01*
X0233631Y0203747D02*
X0234597Y0203747D01*
X0234597Y0201350D02*
X0233631Y0201350D01*
X0233631Y0200151D02*
X0234597Y0200151D01*
X0234597Y0198953D02*
X0233631Y0198953D01*
X0241395Y0213335D02*
X0253605Y0213335D01*
X0252293Y0214534D02*
X0242707Y0214534D01*
X0242361Y0221725D02*
X0252639Y0221725D01*
X0237283Y0222923D02*
X0286132Y0222923D01*
X0286132Y0224122D02*
X0236872Y0224122D01*
X0235585Y0225320D02*
X0286132Y0225320D01*
X0286132Y0226519D02*
X0057962Y0226519D01*
X0057686Y0226795D02*
X0057686Y0226795D01*
X0052500Y0217500D02*
X0057500Y0212500D01*
X0052500Y0217500D02*
X0047500Y0222500D01*
X0018937Y0222500D01*
X0022500Y0217500D02*
X0027500Y0212500D01*
X0027500Y0166063D01*
X0032500Y0161063D01*
X0086673Y0161063D01*
X0088642Y0165000D02*
X0042500Y0165000D01*
X0037500Y0170000D01*
X0037500Y0212500D01*
X0032500Y0217500D01*
X0042500Y0217500D02*
X0047500Y0212500D01*
X0047500Y0202500D01*
X0034331Y0202400D02*
X0034331Y0169370D01*
X0034814Y0168205D01*
X0038788Y0164231D01*
X0033812Y0164231D01*
X0030668Y0167375D01*
X0030668Y0202400D01*
X0032100Y0202400D01*
X0032100Y0207100D01*
X0032900Y0207100D01*
X0032900Y0202400D01*
X0034331Y0202400D01*
X0034331Y0201350D02*
X0030668Y0201350D01*
X0030668Y0200151D02*
X0034331Y0200151D01*
X0034331Y0198953D02*
X0030668Y0198953D01*
X0030668Y0197754D02*
X0034331Y0197754D01*
X0034331Y0196556D02*
X0030668Y0196556D01*
X0030668Y0195357D02*
X0034331Y0195357D01*
X0034331Y0194159D02*
X0030668Y0194159D01*
X0030668Y0192960D02*
X0034331Y0192960D01*
X0034331Y0191762D02*
X0030668Y0191762D01*
X0030668Y0190563D02*
X0034331Y0190563D01*
X0034331Y0189365D02*
X0030668Y0189365D01*
X0030668Y0188166D02*
X0034331Y0188166D01*
X0034331Y0186968D02*
X0030668Y0186968D01*
X0030668Y0185769D02*
X0034331Y0185769D01*
X0034331Y0184571D02*
X0030668Y0184571D01*
X0030668Y0183372D02*
X0034331Y0183372D01*
X0034331Y0182174D02*
X0030668Y0182174D01*
X0030668Y0180975D02*
X0034331Y0180975D01*
X0034331Y0179777D02*
X0030668Y0179777D01*
X0030668Y0178578D02*
X0034331Y0178578D01*
X0034331Y0177380D02*
X0030668Y0177380D01*
X0030668Y0176181D02*
X0034331Y0176181D01*
X0034331Y0174983D02*
X0030668Y0174983D01*
X0030668Y0173784D02*
X0034331Y0173784D01*
X0034331Y0172586D02*
X0030668Y0172586D01*
X0030668Y0171387D02*
X0034331Y0171387D01*
X0034331Y0170189D02*
X0030668Y0170189D01*
X0030668Y0168990D02*
X0034489Y0168990D01*
X0035227Y0167792D02*
X0030668Y0167792D01*
X0031451Y0166593D02*
X0036426Y0166593D01*
X0037624Y0165395D02*
X0032649Y0165395D01*
X0028482Y0160601D02*
X0018168Y0160601D01*
X0018168Y0161799D02*
X0027283Y0161799D01*
X0026084Y0162998D02*
X0018168Y0162998D01*
X0018168Y0164196D02*
X0024886Y0164196D01*
X0024814Y0164268D02*
X0029814Y0159268D01*
X0030705Y0158377D01*
X0031208Y0158168D01*
X0028130Y0158168D01*
X0020807Y0158168D01*
X0019642Y0157686D01*
X0018751Y0156795D01*
X0018168Y0156212D01*
X0018168Y0204619D01*
X0020388Y0202400D01*
X0022100Y0202400D01*
X0022100Y0207100D01*
X0022900Y0207100D01*
X0022900Y0202400D01*
X0024331Y0202400D01*
X0024331Y0165433D01*
X0024814Y0164268D01*
X0024347Y0165395D02*
X0018168Y0165395D01*
X0018168Y0166593D02*
X0024331Y0166593D01*
X0024331Y0167792D02*
X0018168Y0167792D01*
X0018168Y0168990D02*
X0024331Y0168990D01*
X0024331Y0170189D02*
X0018168Y0170189D01*
X0018168Y0171387D02*
X0024331Y0171387D01*
X0024331Y0172586D02*
X0018168Y0172586D01*
X0018168Y0173784D02*
X0024331Y0173784D01*
X0024331Y0174983D02*
X0018168Y0174983D01*
X0018168Y0176181D02*
X0024331Y0176181D01*
X0024331Y0177380D02*
X0018168Y0177380D01*
X0018168Y0178578D02*
X0024331Y0178578D01*
X0024331Y0179777D02*
X0018168Y0179777D01*
X0018168Y0180975D02*
X0024331Y0180975D01*
X0024331Y0182174D02*
X0018168Y0182174D01*
X0018168Y0183372D02*
X0024331Y0183372D01*
X0024331Y0184571D02*
X0018168Y0184571D01*
X0018168Y0185769D02*
X0024331Y0185769D01*
X0024331Y0186968D02*
X0018168Y0186968D01*
X0018168Y0188166D02*
X0024331Y0188166D01*
X0024331Y0189365D02*
X0018168Y0189365D01*
X0018168Y0190563D02*
X0024331Y0190563D01*
X0024331Y0191762D02*
X0018168Y0191762D01*
X0018168Y0192960D02*
X0024331Y0192960D01*
X0024331Y0194159D02*
X0018168Y0194159D01*
X0018168Y0195357D02*
X0024331Y0195357D01*
X0024331Y0196556D02*
X0018168Y0196556D01*
X0018168Y0197754D02*
X0024331Y0197754D01*
X0024331Y0198953D02*
X0018168Y0198953D01*
X0018168Y0200151D02*
X0024331Y0200151D01*
X0024331Y0201350D02*
X0018168Y0201350D01*
X0018168Y0202548D02*
X0020239Y0202548D01*
X0019041Y0203747D02*
X0018168Y0203747D01*
X0022100Y0203747D02*
X0022900Y0203747D01*
X0022900Y0204945D02*
X0022100Y0204945D01*
X0022100Y0206144D02*
X0022900Y0206144D01*
X0022900Y0202548D02*
X0022100Y0202548D01*
X0032100Y0202548D02*
X0032900Y0202548D01*
X0032900Y0203747D02*
X0032100Y0203747D01*
X0032100Y0204945D02*
X0032900Y0204945D01*
X0032900Y0206144D02*
X0032100Y0206144D01*
X0040668Y0183372D02*
X0080141Y0183372D01*
X0079453Y0182174D02*
X0040668Y0182174D01*
X0040668Y0180975D02*
X0071725Y0180975D01*
X0070638Y0179777D02*
X0040668Y0179777D01*
X0040668Y0178578D02*
X0070551Y0178578D01*
X0070551Y0177380D02*
X0040668Y0177380D01*
X0040668Y0176181D02*
X0074410Y0176181D01*
X0074410Y0175650D02*
X0070551Y0175650D01*
X0070551Y0173047D01*
X0070680Y0172564D01*
X0070930Y0172131D01*
X0071284Y0171777D01*
X0071717Y0171527D01*
X0072201Y0171397D01*
X0074410Y0171397D01*
X0074410Y0175650D01*
X0074410Y0174983D02*
X0075610Y0174983D01*
X0075610Y0173784D02*
X0074410Y0173784D01*
X0074410Y0172586D02*
X0075610Y0172586D01*
X0078209Y0171387D02*
X0040668Y0171387D01*
X0040668Y0172586D02*
X0070674Y0172586D01*
X0070551Y0173784D02*
X0040668Y0173784D01*
X0040668Y0174983D02*
X0070551Y0174983D01*
X0074410Y0177380D02*
X0075610Y0177380D01*
X0075610Y0178578D02*
X0074410Y0178578D01*
X0074410Y0179777D02*
X0075610Y0179777D01*
X0075610Y0180975D02*
X0074410Y0180975D01*
X0083007Y0186968D02*
X0090301Y0186968D01*
X0090797Y0188166D02*
X0083443Y0188166D01*
X0083437Y0189365D02*
X0091800Y0189365D01*
X0093421Y0190563D02*
X0082986Y0190563D01*
X0120493Y0151012D02*
X0174552Y0151012D01*
X0193168Y0151012D02*
X0194552Y0151012D01*
X0193514Y0149814D02*
X0193168Y0149814D01*
X0193168Y0152211D02*
X0211553Y0152211D01*
X0210933Y0153409D02*
X0199563Y0153409D01*
X0201069Y0154608D02*
X0209734Y0154608D01*
X0209231Y0155806D02*
X0201743Y0155806D01*
X0202068Y0157005D02*
X0209231Y0157005D01*
X0209231Y0158203D02*
X0202068Y0158203D01*
X0195941Y0161799D02*
X0193168Y0161799D01*
X0194327Y0153409D02*
X0195437Y0153409D01*
X0200448Y0151012D02*
X0210355Y0151012D01*
X0209231Y0149814D02*
X0201486Y0149814D01*
X0201983Y0148615D02*
X0209231Y0148615D01*
X0209231Y0147417D02*
X0202068Y0147417D01*
X0201914Y0146218D02*
X0209231Y0146218D01*
X0209322Y0145020D02*
X0201418Y0145020D01*
X0200668Y0143821D02*
X0210521Y0143821D01*
X0211719Y0142623D02*
X0200668Y0142623D01*
X0200668Y0141424D02*
X0240926Y0141424D01*
X0240926Y0140226D02*
X0200668Y0140226D01*
X0200668Y0139027D02*
X0240926Y0139027D01*
X0240926Y0137829D02*
X0227049Y0137829D01*
X0228103Y0136630D02*
X0240976Y0136630D01*
X0241694Y0135432D02*
X0228473Y0135432D01*
X0225000Y0135432D02*
X0225000Y0135432D01*
X0225000Y0136630D02*
X0225000Y0136630D01*
X0225000Y0137829D02*
X0225000Y0137829D01*
X0222951Y0137829D02*
X0200668Y0137829D01*
X0200668Y0136630D02*
X0221897Y0136630D01*
X0221527Y0135432D02*
X0200668Y0135432D01*
X0200668Y0134233D02*
X0221594Y0134233D01*
X0222115Y0133035D02*
X0200668Y0133035D01*
X0194331Y0133035D02*
X0193426Y0133035D01*
X0194184Y0131836D02*
X0194331Y0131836D01*
X0194331Y0134233D02*
X0191718Y0134233D01*
X0200668Y0124645D02*
X0237235Y0124645D01*
X0236629Y0123447D02*
X0200668Y0123447D01*
X0200230Y0122248D02*
X0236509Y0122248D01*
X0236823Y0121050D02*
X0199094Y0121050D01*
X0197895Y0119851D02*
X0237712Y0119851D01*
X0240000Y0123447D02*
X0240000Y0123447D01*
X0240000Y0124645D02*
X0240000Y0124645D01*
X0250806Y0135432D02*
X0252944Y0135432D01*
X0247500Y0140000D02*
X0246250Y0140020D01*
X0240926Y0142623D02*
X0228281Y0142623D01*
X0229479Y0143821D02*
X0241147Y0143821D01*
X0242200Y0145020D02*
X0230678Y0145020D01*
X0221719Y0142623D02*
X0218281Y0142623D01*
X0219479Y0143821D02*
X0220521Y0143821D01*
X0225000Y0134233D02*
X0225000Y0134233D01*
X0225000Y0133035D02*
X0225000Y0133035D01*
X0223740Y0107500D02*
X0232500Y0107500D01*
X0235000Y0105000D01*
X0255157Y0105000D01*
X0255157Y0101850D02*
X0236437Y0101850D01*
X0266910Y0070712D02*
X0268110Y0070712D01*
X0268110Y0069514D02*
X0266910Y0069514D01*
X0266910Y0068315D02*
X0268110Y0068315D01*
X0213124Y0061124D02*
X0171268Y0061124D01*
X0163731Y0061124D02*
X0133396Y0061124D01*
X0133396Y0059400D02*
X0129537Y0059400D01*
X0129537Y0054950D01*
X0131746Y0054950D01*
X0132229Y0055080D01*
X0132663Y0055330D01*
X0133016Y0055684D01*
X0133267Y0056117D01*
X0133396Y0056600D01*
X0133396Y0059400D01*
X0133396Y0058727D02*
X0163731Y0058727D01*
X0163731Y0057529D02*
X0133396Y0057529D01*
X0133324Y0056330D02*
X0163731Y0056330D01*
X0163731Y0055132D02*
X0132319Y0055132D01*
X0129537Y0055132D02*
X0128337Y0055132D01*
X0128337Y0056330D02*
X0129537Y0056330D01*
X0129537Y0057529D02*
X0128337Y0057529D01*
X0128337Y0058727D02*
X0129537Y0058727D01*
X0129537Y0059926D02*
X0163731Y0059926D01*
X0163731Y0062323D02*
X0140227Y0062323D01*
X0143337Y0063521D02*
X0144537Y0063521D01*
X0144537Y0062450D02*
X0146746Y0062450D01*
X0147229Y0062580D01*
X0147663Y0062830D01*
X0148016Y0063184D01*
X0148267Y0063617D01*
X0148396Y0064100D01*
X0148396Y0066900D01*
X0144537Y0066900D01*
X0144537Y0062450D01*
X0144537Y0064720D02*
X0143337Y0064720D01*
X0143337Y0065918D02*
X0144537Y0065918D01*
X0144537Y0067117D02*
X0163731Y0067117D01*
X0163731Y0068315D02*
X0148396Y0068315D01*
X0148396Y0069514D02*
X0163731Y0069514D01*
X0163731Y0070712D02*
X0148396Y0070712D01*
X0148396Y0065918D02*
X0163731Y0065918D01*
X0163731Y0064720D02*
X0148396Y0064720D01*
X0148211Y0063521D02*
X0163731Y0063521D01*
X0163731Y0053933D02*
X0112558Y0053933D01*
X0112558Y0055132D02*
X0116590Y0055132D01*
X0115939Y0056330D02*
X0112558Y0056330D01*
X0112558Y0057529D02*
X0113286Y0057529D01*
X0115295Y0060000D02*
X0121063Y0060000D01*
X0122500Y0060000D01*
X0125536Y0055132D02*
X0125555Y0055132D01*
X0118760Y0047500D02*
X0113327Y0047500D01*
X0109390Y0051437D01*
X0109390Y0072559D01*
X0115295Y0072559D02*
X0115295Y0060000D01*
X0114998Y0052734D02*
X0112573Y0052734D01*
X0113772Y0051536D02*
X0113869Y0051536D01*
X0110802Y0045543D02*
X0110590Y0045543D01*
X0110590Y0044345D02*
X0112664Y0044345D01*
X0114001Y0043146D02*
X0110590Y0043146D01*
X0118712Y0034331D02*
X0124751Y0034331D01*
X0126831Y0032251D01*
X0126831Y0027881D01*
X0124612Y0030100D01*
X0122900Y0030100D01*
X0122900Y0025400D01*
X0122100Y0025400D01*
X0122100Y0030100D01*
X0120668Y0030100D01*
X0120668Y0031693D01*
X0120186Y0032858D01*
X0118712Y0034331D01*
X0119486Y0033558D02*
X0125524Y0033558D01*
X0126722Y0032360D02*
X0120392Y0032360D01*
X0120668Y0031161D02*
X0126831Y0031161D01*
X0126831Y0029963D02*
X0124750Y0029963D01*
X0125948Y0028764D02*
X0126831Y0028764D01*
X0122900Y0028764D02*
X0122100Y0028764D01*
X0122100Y0027566D02*
X0122900Y0027566D01*
X0122900Y0026367D02*
X0122100Y0026367D01*
X0122100Y0029963D02*
X0122900Y0029963D01*
X0113982Y0030100D02*
X0112251Y0031831D01*
X0108759Y0031831D01*
X0108679Y0031865D01*
X0110186Y0030358D01*
X0110321Y0030033D01*
X0110388Y0030100D01*
X0112100Y0030100D01*
X0112100Y0025400D01*
X0112900Y0025400D01*
X0112900Y0030100D01*
X0113982Y0030100D01*
X0112900Y0029963D02*
X0112100Y0029963D01*
X0112100Y0028764D02*
X0112900Y0028764D01*
X0112900Y0027566D02*
X0112100Y0027566D01*
X0112100Y0026367D02*
X0112900Y0026367D01*
X0112921Y0031161D02*
X0109383Y0031161D01*
X0094410Y0031161D02*
X0090668Y0031161D01*
X0090668Y0030100D02*
X0090668Y0042251D01*
X0093065Y0044647D01*
X0093468Y0044814D01*
X0094410Y0045756D01*
X0094410Y0030100D01*
X0092900Y0030100D01*
X0092900Y0025400D01*
X0092100Y0025400D01*
X0092100Y0030100D01*
X0090668Y0030100D01*
X0092100Y0029963D02*
X0092900Y0029963D01*
X0092900Y0028764D02*
X0092100Y0028764D01*
X0092100Y0027566D02*
X0092900Y0027566D01*
X0092900Y0026367D02*
X0092100Y0026367D01*
X0090668Y0032360D02*
X0094410Y0032360D01*
X0094410Y0033558D02*
X0090668Y0033558D01*
X0090668Y0034757D02*
X0094410Y0034757D01*
X0094410Y0035955D02*
X0090668Y0035955D01*
X0090668Y0037154D02*
X0094410Y0037154D01*
X0094410Y0038352D02*
X0090668Y0038352D01*
X0090668Y0039551D02*
X0094410Y0039551D01*
X0094410Y0040749D02*
X0090668Y0040749D01*
X0090668Y0041948D02*
X0094410Y0041948D01*
X0094410Y0043146D02*
X0091564Y0043146D01*
X0092763Y0044345D02*
X0094410Y0044345D01*
X0094410Y0045543D02*
X0094198Y0045543D01*
X0090008Y0050337D02*
X0085665Y0050337D01*
X0084466Y0049139D02*
X0088595Y0049139D01*
X0087397Y0047940D02*
X0067803Y0047940D01*
X0068064Y0055132D02*
X0075181Y0055132D01*
X0075271Y0055080D02*
X0075754Y0054950D01*
X0077963Y0054950D01*
X0077963Y0059400D01*
X0074104Y0059400D01*
X0074104Y0056600D01*
X0074233Y0056117D01*
X0074484Y0055684D01*
X0074837Y0055330D01*
X0075271Y0055080D01*
X0074176Y0056330D02*
X0068287Y0056330D01*
X0068287Y0057529D02*
X0074104Y0057529D01*
X0074104Y0058727D02*
X0068287Y0058727D01*
X0060769Y0063521D02*
X0030743Y0063521D01*
X0030668Y0064720D02*
X0060769Y0064720D01*
X0060769Y0065918D02*
X0030668Y0065918D01*
X0031942Y0062323D02*
X0059960Y0062323D01*
X0067105Y0064720D02*
X0070378Y0064720D01*
X0069377Y0065918D02*
X0067105Y0065918D01*
X0067815Y0067117D02*
X0069017Y0067117D01*
X0069103Y0068315D02*
X0068847Y0068315D01*
X0069065Y0069514D02*
X0069647Y0069514D01*
X0069065Y0070712D02*
X0071134Y0070712D01*
X0075353Y0069514D02*
X0076854Y0069514D01*
X0075897Y0068315D02*
X0085395Y0068315D01*
X0088505Y0067117D02*
X0075983Y0067117D01*
X0075623Y0065918D02*
X0088505Y0065918D01*
X0092143Y0059926D02*
X0092442Y0059926D01*
X0092442Y0058727D02*
X0091565Y0058727D01*
X0091565Y0057529D02*
X0092442Y0057529D01*
X0092442Y0056330D02*
X0091561Y0056330D01*
X0090910Y0055132D02*
X0092442Y0055132D01*
X0092442Y0053933D02*
X0089180Y0053933D01*
X0088062Y0052734D02*
X0092427Y0052734D01*
X0091228Y0051536D02*
X0086863Y0051536D01*
X0086198Y0046742D02*
X0002568Y0046742D01*
X0002568Y0045543D02*
X0084999Y0045543D01*
X0084394Y0044345D02*
X0002568Y0044345D01*
X0002568Y0043146D02*
X0084331Y0043146D01*
X0084331Y0041948D02*
X0002568Y0041948D01*
X0002568Y0040749D02*
X0084331Y0040749D01*
X0084331Y0039551D02*
X0002568Y0039551D01*
X0002568Y0038352D02*
X0084331Y0038352D01*
X0084331Y0037154D02*
X0002568Y0037154D01*
X0002568Y0035955D02*
X0084331Y0035955D01*
X0084331Y0034757D02*
X0002568Y0034757D01*
X0002568Y0033558D02*
X0084331Y0033558D01*
X0084331Y0032360D02*
X0002568Y0032360D01*
X0002568Y0031161D02*
X0084331Y0031161D01*
X0082900Y0029963D02*
X0082100Y0029963D01*
X0082100Y0028764D02*
X0082900Y0028764D01*
X0082900Y0027566D02*
X0082100Y0027566D01*
X0082100Y0026367D02*
X0082900Y0026367D01*
X0082100Y0025169D02*
X0002568Y0025169D01*
X0002568Y0026367D02*
X0077400Y0026367D01*
X0077853Y0027566D02*
X0002568Y0027566D01*
X0002568Y0028764D02*
X0079052Y0028764D01*
X0080250Y0029963D02*
X0002568Y0029963D01*
X0002568Y0023970D02*
X0077400Y0023970D01*
X0077516Y0022772D02*
X0002568Y0022772D01*
X0002568Y0021573D02*
X0078714Y0021573D01*
X0079717Y0020375D02*
X0002568Y0020375D01*
X0002568Y0019176D02*
X0078518Y0019176D01*
X0077320Y0017978D02*
X0002568Y0017978D01*
X0002568Y0016779D02*
X0076731Y0016779D01*
X0076731Y0015581D02*
X0002568Y0015581D01*
X0002568Y0014382D02*
X0076731Y0014382D01*
X0076731Y0013184D02*
X0002568Y0013184D01*
X0002568Y0011985D02*
X0077357Y0011985D01*
X0078555Y0010787D02*
X0002568Y0010787D01*
X0002568Y0009588D02*
X0079754Y0009588D01*
X0079163Y0055132D02*
X0077963Y0055132D01*
X0077963Y0056330D02*
X0079163Y0056330D01*
X0079163Y0057529D02*
X0077963Y0057529D01*
X0077963Y0058727D02*
X0079163Y0058727D01*
X0079163Y0061124D02*
X0077963Y0061124D01*
X0077963Y0062323D02*
X0079163Y0062323D01*
X0079163Y0063521D02*
X0077963Y0063521D01*
X0077963Y0064720D02*
X0079163Y0064720D01*
X0074923Y0064720D02*
X0074622Y0064720D01*
X0100000Y0086142D02*
X0117264Y0086142D01*
X0117264Y0072559D01*
X0117264Y0067500D01*
X0127500Y0067500D01*
X0136063Y0067500D01*
X0137036Y0050337D02*
X0163731Y0050337D01*
X0163778Y0049139D02*
X0138099Y0049139D01*
X0138471Y0047940D02*
X0164274Y0047940D01*
X0165518Y0046742D02*
X0138408Y0046742D01*
X0129872Y0088690D02*
X0194782Y0088690D01*
X0193583Y0089888D02*
X0129872Y0089888D01*
X0124941Y0097953D02*
X0190000Y0097953D01*
X0162500Y0122500D02*
X0161240Y0122500D01*
X0088505Y0130638D02*
X0088441Y0130638D01*
X0088505Y0131836D02*
X0087614Y0131836D01*
X0088218Y0133035D02*
X0088505Y0133035D01*
X0088505Y0134233D02*
X0088218Y0134233D01*
X0088218Y0135432D02*
X0088505Y0135432D01*
X0088505Y0136630D02*
X0088218Y0136630D01*
X0088218Y0137829D02*
X0088505Y0137829D01*
X0088505Y0139027D02*
X0088218Y0139027D01*
X0088505Y0140226D02*
X0087678Y0140226D01*
X0087550Y0141424D02*
X0088505Y0141424D01*
X0088505Y0142623D02*
X0087550Y0142623D01*
X0082500Y0136063D02*
X0082500Y0127500D01*
X0087736Y0127500D01*
X0087736Y0117441D01*
X0087500Y0117500D02*
X0087500Y0110000D01*
X0080059Y0109764D02*
X0075000Y0109764D01*
X0072500Y0112264D01*
X0072500Y0116063D01*
X0066782Y0116256D02*
X0065538Y0116256D01*
X0066737Y0115057D02*
X0066782Y0115057D01*
X0066782Y0117454D02*
X0063974Y0117454D01*
X0063168Y0118653D02*
X0066782Y0118653D01*
X0067079Y0119851D02*
X0063168Y0119851D01*
X0063944Y0121050D02*
X0067471Y0121050D01*
X0067450Y0122248D02*
X0064065Y0122248D01*
X0064065Y0123447D02*
X0071900Y0123447D01*
X0071900Y0124537D02*
X0067450Y0124537D01*
X0067450Y0126746D01*
X0067580Y0127229D01*
X0067830Y0127663D01*
X0068184Y0128016D01*
X0068617Y0128267D01*
X0069100Y0128396D01*
X0071900Y0128396D01*
X0071900Y0124537D01*
X0071900Y0124645D02*
X0073100Y0124645D01*
X0073100Y0123447D02*
X0084568Y0123447D01*
X0084568Y0122248D02*
X0077550Y0122248D01*
X0077529Y0121050D02*
X0077590Y0121050D01*
X0077550Y0124645D02*
X0081112Y0124645D01*
X0079756Y0125844D02*
X0077550Y0125844D01*
X0077470Y0127042D02*
X0079331Y0127042D01*
X0079331Y0128241D02*
X0076428Y0128241D01*
X0079331Y0129439D02*
X0063742Y0129439D01*
X0064065Y0128241D02*
X0068572Y0128241D01*
X0067530Y0127042D02*
X0064065Y0127042D01*
X0064065Y0125844D02*
X0067450Y0125844D01*
X0067450Y0124645D02*
X0064065Y0124645D01*
X0060000Y0125000D02*
X0060000Y0113750D01*
X0060000Y0112500D01*
X0060000Y0113750D02*
X0063563Y0113750D01*
X0075423Y0101890D01*
X0080059Y0101890D01*
X0080059Y0099921D02*
X0050669Y0099921D01*
X0050669Y0106654D01*
X0040000Y0106654D01*
X0040000Y0106063D01*
X0045141Y0110263D02*
X0045650Y0110263D01*
X0046013Y0111462D02*
X0045050Y0111462D01*
X0045050Y0112660D02*
X0046013Y0112660D01*
X0046831Y0113859D02*
X0040600Y0113859D01*
X0040000Y0113937D02*
X0040000Y0113346D01*
X0050669Y0113346D01*
X0050000Y0112500D02*
X0050000Y0125000D01*
X0046831Y0124645D02*
X0043488Y0124645D01*
X0043491Y0124656D02*
X0043491Y0125000D01*
X0043491Y0125344D01*
X0043356Y0126018D01*
X0043093Y0126653D01*
X0042711Y0127225D01*
X0042225Y0127711D01*
X0041653Y0128093D01*
X0041018Y0128356D01*
X0040344Y0128491D01*
X0040000Y0128491D01*
X0039656Y0128491D01*
X0038982Y0128356D01*
X0038347Y0128093D01*
X0037775Y0127711D01*
X0037289Y0127225D01*
X0036907Y0126653D01*
X0036644Y0126018D01*
X0036509Y0125344D01*
X0036509Y0125000D01*
X0036509Y0124656D01*
X0036644Y0123982D01*
X0036907Y0123347D01*
X0037289Y0122775D01*
X0037775Y0122289D01*
X0038347Y0121907D01*
X0038982Y0121644D01*
X0039656Y0121509D01*
X0040000Y0121509D01*
X0040344Y0121509D01*
X0041018Y0121644D01*
X0041653Y0121907D01*
X0042225Y0122289D01*
X0042711Y0122775D01*
X0043093Y0123347D01*
X0043356Y0123982D01*
X0043491Y0124656D01*
X0043491Y0125000D02*
X0040000Y0125000D01*
X0043491Y0125000D01*
X0043391Y0125844D02*
X0046604Y0125844D01*
X0046604Y0127042D02*
X0042833Y0127042D01*
X0041297Y0128241D02*
X0046604Y0128241D01*
X0047107Y0129439D02*
X0020668Y0129439D01*
X0020668Y0128241D02*
X0038703Y0128241D01*
X0040000Y0128241D02*
X0040000Y0128241D01*
X0040000Y0128491D02*
X0040000Y0125000D01*
X0040000Y0125000D01*
X0040000Y0125000D01*
X0040000Y0128491D01*
X0040000Y0127042D02*
X0040000Y0127042D01*
X0040000Y0125844D02*
X0040000Y0125844D01*
X0040000Y0125000D02*
X0040000Y0125000D01*
X0040000Y0121509D01*
X0040000Y0125000D01*
X0040000Y0125000D01*
X0036509Y0125000D01*
X0040000Y0125000D01*
X0040000Y0124645D02*
X0040000Y0124645D01*
X0040000Y0123447D02*
X0040000Y0123447D01*
X0040000Y0122248D02*
X0040000Y0122248D01*
X0042164Y0122248D02*
X0046604Y0122248D01*
X0046604Y0123447D02*
X0043135Y0123447D01*
X0046772Y0121050D02*
X0020668Y0121050D01*
X0020668Y0122248D02*
X0037836Y0122248D01*
X0036865Y0123447D02*
X0020668Y0123447D01*
X0020668Y0124645D02*
X0036512Y0124645D01*
X0036609Y0125844D02*
X0020668Y0125844D01*
X0020668Y0127042D02*
X0037167Y0127042D01*
X0036600Y0118396D02*
X0036117Y0118267D01*
X0035684Y0118016D01*
X0035330Y0117663D01*
X0035080Y0117229D01*
X0034950Y0116746D01*
X0034950Y0114537D01*
X0039400Y0114537D01*
X0039400Y0118396D01*
X0036600Y0118396D01*
X0035210Y0117454D02*
X0020668Y0117454D01*
X0020668Y0116256D02*
X0034950Y0116256D01*
X0034950Y0115057D02*
X0020668Y0115057D01*
X0020668Y0113859D02*
X0039400Y0113859D01*
X0039400Y0115057D02*
X0040600Y0115057D01*
X0040600Y0116256D02*
X0039400Y0116256D01*
X0039400Y0117454D02*
X0040600Y0117454D01*
X0044790Y0117454D02*
X0046831Y0117454D01*
X0046831Y0118653D02*
X0020668Y0118653D01*
X0020668Y0119851D02*
X0046831Y0119851D01*
X0046093Y0116256D02*
X0045050Y0116256D01*
X0045050Y0115057D02*
X0046013Y0115057D01*
X0034950Y0112660D02*
X0020668Y0112660D01*
X0020668Y0111462D02*
X0034950Y0111462D01*
X0034859Y0110263D02*
X0020668Y0110263D01*
X0020668Y0109065D02*
X0034282Y0109065D01*
X0034282Y0107866D02*
X0020668Y0107866D01*
X0020668Y0106668D02*
X0034282Y0106668D01*
X0034282Y0105469D02*
X0020668Y0105469D01*
X0020668Y0104270D02*
X0034282Y0104270D01*
X0034282Y0103072D02*
X0020668Y0103072D01*
X0020668Y0101873D02*
X0034848Y0101873D01*
X0045152Y0101873D02*
X0047039Y0101873D01*
X0047501Y0100675D02*
X0020668Y0100675D01*
X0020668Y0099476D02*
X0047501Y0099476D01*
X0047920Y0098278D02*
X0020668Y0098278D01*
X0021339Y0097079D02*
X0049250Y0097079D01*
X0060000Y0105000D02*
X0066250Y0105000D01*
X0060000Y0105000D02*
X0060000Y0107500D01*
X0065693Y0095881D02*
X0022537Y0095881D01*
X0021979Y0077903D02*
X0002568Y0077903D01*
X0002568Y0076705D02*
X0021979Y0076705D01*
X0022047Y0075506D02*
X0002568Y0075506D01*
X0002568Y0074308D02*
X0021979Y0074308D01*
X0021979Y0073109D02*
X0002568Y0073109D01*
X0002568Y0071911D02*
X0021979Y0071911D01*
X0066063Y0092500D02*
X0076516Y0097953D01*
X0080059Y0097953D01*
X0073100Y0125844D02*
X0071900Y0125844D01*
X0071900Y0127042D02*
X0073100Y0127042D01*
X0073100Y0128241D02*
X0071900Y0128241D01*
X0077386Y0131836D02*
X0020668Y0131836D01*
X0020668Y0130638D02*
X0055673Y0130638D01*
X0051663Y0129439D02*
X0050463Y0129439D01*
X0050463Y0128241D02*
X0051663Y0128241D01*
X0062201Y0130638D02*
X0079331Y0130638D01*
X0031124Y0158203D02*
X0018168Y0158203D01*
X0018168Y0157005D02*
X0018961Y0157005D01*
X0018168Y0159402D02*
X0029680Y0159402D01*
X0021782Y0149814D02*
X0020732Y0149814D01*
X0020668Y0148615D02*
X0021782Y0148615D01*
X0021782Y0147417D02*
X0020668Y0147417D01*
X0020668Y0146218D02*
X0021782Y0146218D01*
X0022133Y0145020D02*
X0020668Y0145020D01*
X0020668Y0143821D02*
X0022450Y0143821D01*
X0022450Y0142623D02*
X0020668Y0142623D01*
X0026900Y0139027D02*
X0028100Y0139027D01*
X0028100Y0137829D02*
X0026900Y0137829D01*
X0026900Y0136630D02*
X0028100Y0136630D01*
X0210011Y0059926D02*
X0213124Y0059926D01*
X0213249Y0058727D02*
X0210770Y0058727D01*
X0283559Y0147417D02*
X0286132Y0147417D01*
X0286132Y0148615D02*
X0285235Y0148615D01*
X0286116Y0149814D02*
X0286132Y0149814D01*
X0285972Y0166593D02*
X0286132Y0166593D01*
X0286132Y0198953D02*
X0268797Y0198953D01*
X0269085Y0200151D02*
X0286132Y0200151D01*
X0269295Y0213335D02*
X0268166Y0213335D01*
X0275000Y0216437D02*
X0275000Y0217874D01*
X0261369Y0201350D02*
X0260403Y0201350D01*
X0260403Y0200151D02*
X0261369Y0200151D01*
X0261369Y0198953D02*
X0260403Y0198953D01*
X0221516Y0182174D02*
X0218484Y0182174D01*
X0219683Y0180975D02*
X0220317Y0180975D01*
X0240565Y0164196D02*
X0242481Y0164196D01*
X0242481Y0162998D02*
X0240960Y0162998D01*
X0240919Y0161799D02*
X0242481Y0161799D01*
X0242481Y0160601D02*
X0240429Y0160601D01*
X0241527Y0159402D02*
X0239142Y0159402D01*
D32*
X0246250Y0154980D02*
X0246250Y0177500D01*
X0262500Y0162500D02*
X0257500Y0157500D01*
X0257500Y0154980D01*
X0262500Y0162500D02*
X0277500Y0162500D01*
X0262500Y0140000D02*
X0257500Y0140000D01*
X0247500Y0140000D01*
X0262500Y0140000D02*
X0267500Y0135000D01*
X0267500Y0085000D01*
X0262500Y0080000D01*
X0240000Y0080000D01*
X0237500Y0080000D01*
X0237500Y0077500D01*
X0242500Y0077500D01*
X0242500Y0072500D01*
X0237500Y0077500D02*
X0222500Y0077500D01*
X0222500Y0073701D01*
X0228402Y0062201D02*
X0228402Y0060000D01*
X0244094Y0060000D01*
X0245000Y0060000D01*
X0245000Y0050000D01*
X0167500Y0050000D01*
X0167500Y0075000D01*
X0127500Y0075000D01*
X0245000Y0050000D02*
X0266250Y0050000D01*
X0267500Y0047500D01*
X0255906Y0060000D02*
X0255906Y0072500D01*
X0255000Y0072500D02*
X0267500Y0072500D01*
D33*
X0267500Y0075000D01*
X0272500Y0080000D01*
X0275000Y0080000D01*
X0267510Y0072500D02*
X0267500Y0072500D01*
X0244094Y0072500D02*
X0242500Y0072500D01*
X0240000Y0080000D02*
X0240000Y0081270D01*
X0237500Y0094980D02*
X0237500Y0095000D01*
X0237500Y0094980D02*
X0240000Y0096230D01*
X0237500Y0098701D02*
X0255157Y0098701D01*
X0255157Y0111299D02*
X0240000Y0111299D01*
X0222500Y0073701D02*
X0222500Y0063201D01*
X0267500Y0047500D02*
X0267500Y0037500D01*
X0277500Y0037500D01*
X0277500Y0027500D02*
X0267500Y0027500D01*
X0267500Y0017500D01*
X0277500Y0017500D01*
X0277500Y0047500D02*
X0267500Y0047500D01*
X0127500Y0067500D02*
X0127500Y0075000D01*
D34*
X0135000Y0047500D03*
X0072500Y0067500D03*
X0058750Y0081250D03*
X0040000Y0125000D03*
X0072500Y0137500D03*
X0080000Y0188750D03*
X0152500Y0175000D03*
X0170000Y0195000D03*
X0212500Y0207500D03*
X0237500Y0162500D03*
X0225000Y0135000D03*
X0240000Y0122500D03*
X0277500Y0137500D03*
X0275000Y0080000D03*
X0255000Y0032500D03*
X0207500Y0057500D03*
X0151250Y0112500D03*
X0150000Y0131250D03*
D35*
X0177500Y0147500D03*
X0197500Y0147500D03*
X0197500Y0157500D03*
X0190000Y0130000D03*
X0246250Y0177500D03*
X0082500Y0155000D03*
X0066250Y0105000D03*
M02*
